<svg width="64" height="36" viewBox="0 0 64 36" fill="none" xmlns="http://www.w3.org/2000/svg">
<path d="M36.3181 8.30545C35.7569 8.48049 35.1595 8.16654 34.9845 7.60529C34.8094 7.04406 35.1234 6.44671 35.6846 6.27166L36.232 6.10218C36.7932 5.92714 37.3906 6.2411 37.5656 6.80234C37.7406 7.36357 37.4267 7.96093 36.8654 8.13597L36.3181 8.30545ZM17.0469 14.643C16.4885 14.4624 16.1829 13.8595 16.3634 13.3011C16.544 12.7426 17.147 12.437 17.7054 12.6176C18.8834 12.9982 19.9643 13.6651 20.845 14.5541C21.6897 15.4099 22.3509 16.4796 22.7343 17.7049L22.7482 17.7549C23.365 19.7887 23.1094 21.8864 22.1925 23.6367C21.2673 25.3983 19.6669 26.8041 17.6165 27.4432C15.566 28.0822 13.4489 27.8266 11.6874 26.9014C9.92587 25.9761 8.51727 24.3758 7.87819 22.3253C7.46977 21.0167 7.42809 19.6775 7.68927 18.4245C7.96155 17.1242 8.56448 15.9128 9.43131 14.9153C9.81473 14.4708 10.4871 14.4235 10.9317 14.807C11.3762 15.1904 11.4234 15.8628 11.04 16.3073C10.4093 17.0325 9.97034 17.916 9.7731 18.8606C9.58417 19.7691 9.61473 20.7416 9.90925 21.6946C10.3732 23.1839 11.3957 24.348 12.6765 25.0204C13.9518 25.69 15.4827 25.8733 16.9663 25.4205L16.9858 25.4149C18.4722 24.9509 19.6309 23.9285 20.306 22.6504C20.97 21.3863 21.1562 19.8664 20.7144 18.3911L20.7005 18.3439C20.4227 17.4493 19.942 16.674 19.328 16.0517C18.6917 15.4071 17.9054 14.9237 17.0469 14.6458L17.0469 14.643ZM13.5739 14.6375C13.0099 14.8042 12.4209 14.4791 12.2542 13.9151C12.0875 13.3511 12.4126 12.7621 12.9765 12.5953L13.5378 12.4425C14.1074 12.3008 14.6881 12.6481 14.8297 13.2177C14.9714 13.7872 14.6241 14.3679 14.0546 14.5096L13.5795 14.6402L13.5739 14.6375ZM40.1328 7.11933C39.5715 7.29437 38.9742 6.98041 38.7991 6.41917C38.6241 5.85793 38.9381 5.26058 39.4993 5.08554L54.8585 0.3095C56.7061 -0.257297 58.6232 -0.0211269 60.218 0.817945C61.8239 1.6598 63.1076 3.11293 63.6827 4.97162L63.6994 5.03275C64.2551 6.87202 64.0161 8.77524 63.1826 10.3617C62.3407 11.9621 60.8876 13.2485 59.0289 13.8264L54.4001 15.2656C53.8389 15.4406 53.2415 15.1267 53.0665 14.5654L52.722 13.4568L50.4076 14.1764L50.7521 15.2822C50.9271 15.8435 50.6132 16.4408 50.0519 16.6159L46.5178 17.7161C45.9565 17.8912 45.3592 17.5772 45.1841 17.016L44.8396 15.9074L42.5252 16.627L42.8697 17.7356C43.0448 18.2968 42.7308 18.8942 42.1696 19.0692L38.6354 20.1695C38.0742 20.3445 37.4768 20.0305 37.3018 19.4693L36.9573 18.3607L34.6429 19.0803L34.9874 20.1861C35.1624 20.7474 34.8485 21.3447 34.2872 21.5198L30.3308 22.7478C29.8473 25.3901 28.6776 27.8601 26.9495 29.8997C25.1352 32.0446 22.704 33.7144 19.8254 34.6118C15.7967 35.8649 11.6401 35.3648 8.17833 33.5449C4.71644 31.7278 1.94917 28.5827 0.695769 24.5566L0.681877 24.5149C-0.557298 20.5001 -0.0544301 16.3545 1.75988 12.9041C3.57973 9.44224 6.71935 6.67497 10.7482 5.42157L10.7954 5.40768C13.6627 4.52414 16.5939 4.52692 19.2887 5.26043C21.8671 5.96336 24.2342 7.33314 26.1291 9.23629L32.4028 7.28584C32.964 7.1108 33.5613 7.42476 33.7364 7.986C33.9114 8.54723 33.5975 9.14459 33.0362 9.31963L26.1319 11.4673C25.7513 11.5868 25.3151 11.4812 25.0289 11.1672C23.3396 9.30848 21.1419 7.97485 18.733 7.31913C16.4158 6.68843 13.8958 6.68287 11.434 7.4386L11.3839 7.45527C7.9165 8.53604 5.21033 10.9172 3.64603 13.8956C2.08736 16.8602 1.65391 20.4193 2.71249 23.8698L2.72916 23.9225C3.80994 27.39 6.19106 30.0962 9.1695 31.6605C12.1452 33.2247 15.7154 33.6526 19.1799 32.5829L19.1994 32.5773C21.6777 31.8078 23.7643 30.3685 25.3258 28.5264C26.9317 26.6288 27.9791 24.3005 28.3236 21.8249C28.3653 21.4109 28.6459 21.0414 29.0655 20.9108L32.6329 19.8022L32.2884 18.6964C32.1134 18.1352 32.4273 17.5378 32.9886 17.3628L37.334 16.0125C37.9008 15.8402 38.4954 16.1542 38.6676 16.7154L39.0121 17.8185L40.5153 17.3517L40.1707 16.2431C39.9985 15.6763 40.3124 15.0817 40.8737 14.9095L45.2163 13.5592C45.7776 13.3842 46.3749 13.6981 46.55 14.2594L46.8945 15.3679L48.3949 14.9012L48.0503 13.7954C47.8753 13.2341 48.1893 12.6368 48.7505 12.4617L53.0959 11.1115C53.6572 10.9364 54.2545 11.2504 54.4296 11.8116L54.7741 12.9202L58.3832 11.7977C59.6835 11.3949 60.6976 10.4947 61.2866 9.37502C61.8645 8.27475 62.034 6.96061 61.6589 5.68253L61.6172 5.54361C61.206 4.27669 60.317 3.28475 59.2111 2.70407C58.1081 2.12339 56.7856 1.95667 55.5103 2.33455L40.1177 7.12175L40.1328 7.11933Z" fill="#021827"/>
</svg>
