<svg width="52" height="60" viewBox="0 0 52 60" fill="none" xmlns="http://www.w3.org/2000/svg">
<path d="M48.5715 24.9554C48.3542 24.9569 48.1423 24.8884 47.967 24.7602C47.7916 24.6319 47.6622 24.4506 47.5978 24.2432C47.2459 23.1132 46.7911 22.0179 46.2389 20.9711C46.1367 20.7779 46.0995 20.5569 46.1329 20.3409C46.1663 20.1249 46.2685 19.9254 46.4243 19.7722C46.7021 19.4945 46.9224 19.1648 47.0728 18.8019C47.2231 18.4391 47.3005 18.0501 47.3005 17.6574C47.3005 17.2646 47.2232 16.8757 47.0729 16.5128C46.9226 16.1499 46.7023 15.8202 46.4246 15.5424L43.5203 12.6379C42.9583 12.0775 42.1969 11.763 41.4032 11.7635C40.6096 11.764 39.8486 12.0795 39.2873 12.6407C39.1339 12.7954 38.9349 12.8967 38.7195 12.9297C38.5041 12.9626 38.2839 12.9255 38.0912 12.8238C37.0446 12.2715 35.9494 11.8165 34.8196 11.4647C34.6121 11.4003 34.4308 11.2709 34.3025 11.0956C34.1742 10.9202 34.1057 10.7083 34.1071 10.491C34.1062 9.69802 33.7908 8.93775 33.23 8.37701C32.6693 7.81628 31.909 7.50087 31.116 7.5H30V0.9375C30 0.68886 29.9012 0.450403 29.7254 0.274587C29.5496 0.0987721 29.3111 0 29.0625 0C28.8139 0 28.5754 0.0987721 28.3996 0.274587C28.2238 0.450403 28.125 0.68886 28.125 0.9375V3.75H22.9688C22.4716 3.75053 21.995 3.94824 21.6435 4.29976C21.292 4.65128 21.0943 5.12788 21.0938 5.625V8.4375H20.625C20.1279 8.43803 19.6513 8.63574 19.2998 8.98726C18.9482 9.33878 18.7505 9.81538 18.75 10.3125V10.9781H6.09375C5.84511 10.9781 5.60666 11.0769 5.43085 11.2527C5.25504 11.4285 5.15626 11.667 5.15625 11.9156V16.6031C5.15626 16.8517 5.25504 17.0902 5.43085 17.266C5.60666 17.4418 5.84511 17.5406 6.09375 17.5406H7.52749C7.51165 17.6304 7.50246 17.7213 7.5 17.8125V49.6875H0.9375C0.688863 49.6875 0.450414 49.7863 0.274601 49.9621C0.0987883 50.1379 1.24309e-05 50.3764 0 50.625V55.3125C1.24309e-05 55.5611 0.0987883 55.7996 0.274601 55.9754C0.450414 56.1512 0.688863 56.25 0.9375 56.25H28.125V59.0625C28.125 59.3111 28.2238 59.5496 28.3996 59.7254C28.5754 59.9012 28.8139 60 29.0625 60C29.3111 60 29.5496 59.9012 29.7254 59.7254C29.9012 59.5496 30 59.3111 30 59.0625V52.5H31.116C31.909 52.4991 32.6693 52.1837 33.23 51.623C33.7908 51.0622 34.1062 50.302 34.1071 49.509C34.1056 49.2917 34.1741 49.0798 34.3024 48.9044C34.4308 48.7291 34.6121 48.5997 34.8196 48.5353C35.9493 48.1835 37.0444 47.7287 38.091 47.1767C38.2842 47.0743 38.5053 47.037 38.7214 47.0704C38.9375 47.1038 39.137 47.2061 39.2903 47.3621C39.8516 47.9223 40.6123 48.237 41.4054 48.237C42.1985 48.237 42.9592 47.9223 43.5205 47.3621L46.4243 44.4576C46.9846 43.8956 47.2991 43.1343 47.2986 42.3408C47.2981 41.5472 46.9828 40.7863 46.4218 40.2251C46.2669 40.0717 46.1655 39.8727 46.1326 39.6572C46.0997 39.4418 46.1369 39.2215 46.2389 39.0289C46.791 37.9821 47.2459 36.8868 47.5978 35.7568C47.6622 35.5493 47.7916 35.3681 47.9669 35.2398C48.1423 35.1116 48.3542 35.0431 48.5715 35.0446C49.3645 35.0437 50.1247 34.7283 50.6855 34.1675C51.2462 33.6068 51.5616 32.8465 51.5625 32.0535V27.9465C51.5616 27.1535 51.2462 26.3932 50.6855 25.8325C50.1247 25.2717 49.3645 24.9563 48.5715 24.9554ZM7.03125 15.6656V12.8531H18.75V15.6656H7.03125ZM18.75 17.8125V49.6875H9.375V17.8125H18.75ZM28.125 54.375H1.875V51.5625H28.125V54.375ZM28.125 49.6875H20.625V10.3125H28.125V49.6875ZM28.125 8.4375H22.9688V5.625H28.125V8.4375ZM30 18.3233C32.9359 18.5578 35.6758 19.8897 37.6737 22.0536C39.6717 24.2176 40.7812 27.0547 40.7812 30C40.7812 32.9453 39.6717 35.7824 37.6737 37.9464C35.6758 40.1103 32.9359 41.4422 30 41.6767V18.3233ZM49.6875 32.0535C49.6872 32.3494 49.5695 32.6331 49.3602 32.8423C49.151 33.0515 48.8674 33.1692 48.5715 33.1696C47.9538 33.1668 47.3517 33.3627 46.8539 33.7283C46.3561 34.094 45.9891 34.61 45.807 35.2002C45.4897 36.2204 45.0791 37.2092 44.5805 38.1541C44.2901 38.7012 44.1837 39.3273 44.277 39.9396C44.3703 40.5519 44.6584 41.1178 45.0986 41.5535C45.3076 41.763 45.425 42.0468 45.4249 42.3427C45.4249 42.6386 45.3075 42.9225 45.0984 43.1319L42.1946 46.0364C41.9845 46.2455 41.6999 46.3627 41.4035 46.3622C41.107 46.3617 40.8229 46.2435 40.6135 46.0336C40.1777 45.5943 39.612 45.3069 39.0001 45.2141C38.3882 45.1213 37.7628 45.2279 37.2162 45.5182C36.2715 46.0165 35.283 46.427 34.2632 46.7445C33.6729 46.9265 33.1568 47.2935 32.7911 47.7913C32.4253 48.2891 32.2294 48.8913 32.2321 49.509C32.2317 49.8049 32.114 50.0885 31.9048 50.2978C31.6956 50.507 31.4119 50.6247 31.116 50.625H30V43.5542C33.4342 43.3186 36.651 41.7882 39.0003 39.2722C41.3496 36.7563 42.6563 33.4423 42.6563 30C42.6563 26.5577 41.3496 23.2437 39.0003 20.7278C36.651 18.2118 33.4342 16.6814 30 16.4458V9.375H31.116C31.4119 9.37534 31.6956 9.49304 31.9048 9.70226C32.114 9.91148 32.2317 10.1951 32.2321 10.491C32.2293 11.1087 32.4253 11.7109 32.791 12.2086C33.1566 12.7064 33.6727 13.0734 34.2629 13.2555C35.283 13.573 36.2718 13.9836 37.2166 14.4823C37.7637 14.7727 38.3899 14.8791 39.0022 14.7857C39.6145 14.6922 40.1804 14.404 40.616 13.9636C40.8256 13.7549 41.1094 13.6376 41.4052 13.6376C41.701 13.6376 41.9848 13.7549 42.1944 13.9636L45.0989 16.8686C45.2027 16.9725 45.285 17.0958 45.341 17.2315C45.3971 17.3672 45.4258 17.5127 45.4255 17.6595C45.4252 17.8064 45.396 17.9517 45.3394 18.0872C45.2829 18.2228 45.2001 18.3458 45.0959 18.4492C44.6564 18.885 44.369 19.4506 44.2761 20.0625C44.1833 20.6744 44.29 21.2999 44.5805 21.8463C45.0792 22.7911 45.4898 23.7798 45.8073 24.7998C45.9893 25.39 46.3562 25.906 46.854 26.2717C47.3517 26.6373 47.9539 26.8332 48.5715 26.8304C48.8674 26.8308 49.151 26.9485 49.3603 27.1577C49.5695 27.3669 49.6872 27.6506 49.6875 27.9465V32.0535Z" fill="#021827"/>
<path d="M12.1875 21.5625H15.9375C16.1861 21.5625 16.4246 21.4637 16.6004 21.2879C16.7762 21.1121 16.875 20.8736 16.875 20.625C16.875 20.3764 16.7762 20.1379 16.6004 19.9621C16.4246 19.7863 16.1861 19.6875 15.9375 19.6875H12.1875C11.9389 19.6875 11.7004 19.7863 11.5246 19.9621C11.3488 20.1379 11.25 20.3764 11.25 20.625C11.25 20.8736 11.3488 21.1121 11.5246 21.2879C11.7004 21.4637 11.9389 21.5625 12.1875 21.5625Z" fill="#021827"/>
<path d="M12.1875 25.3125H15.9375C16.1861 25.3125 16.4246 25.2137 16.6004 25.0379C16.7762 24.8621 16.875 24.6236 16.875 24.375C16.875 24.1264 16.7762 23.8879 16.6004 23.7121C16.4246 23.5363 16.1861 23.4375 15.9375 23.4375H12.1875C11.9389 23.4375 11.7004 23.5363 11.5246 23.7121C11.3488 23.8879 11.25 24.1264 11.25 24.375C11.25 24.6236 11.3488 24.8621 11.5246 25.0379C11.7004 25.2137 11.9389 25.3125 12.1875 25.3125Z" fill="#021827"/>
<path d="M12.1875 29.0625H15.9375C16.1861 29.0625 16.4246 28.9637 16.6004 28.7879C16.7762 28.6121 16.875 28.3736 16.875 28.125C16.875 27.8764 16.7762 27.6379 16.6004 27.4621C16.4246 27.2863 16.1861 27.1875 15.9375 27.1875H12.1875C11.9389 27.1875 11.7004 27.2863 11.5246 27.4621C11.3488 27.6379 11.25 27.8764 11.25 28.125C11.25 28.3736 11.3488 28.6121 11.5246 28.7879C11.7004 28.9637 11.9389 29.0625 12.1875 29.0625Z" fill="#021827"/>
<path d="M12.1875 32.8125H15.9375C16.1861 32.8125 16.4246 32.7137 16.6004 32.5379C16.7762 32.3621 16.875 32.1236 16.875 31.875C16.875 31.6264 16.7762 31.3879 16.6004 31.2121C16.4246 31.0363 16.1861 30.9375 15.9375 30.9375H12.1875C11.9389 30.9375 11.7004 31.0363 11.5246 31.2121C11.3488 31.3879 11.25 31.6264 11.25 31.875C11.25 32.1236 11.3488 32.3621 11.5246 32.5379C11.7004 32.7137 11.9389 32.8125 12.1875 32.8125Z" fill="#021827"/>
<path d="M12.1875 36.5625H15.9375C16.1861 36.5625 16.4246 36.4637 16.6004 36.2879C16.7762 36.1121 16.875 35.8736 16.875 35.625C16.875 35.3764 16.7762 35.1379 16.6004 34.9621C16.4246 34.7863 16.1861 34.6875 15.9375 34.6875H12.1875C11.9389 34.6875 11.7004 34.7863 11.5246 34.9621C11.3488 35.1379 11.25 35.3764 11.25 35.625C11.25 35.8736 11.3488 36.1121 11.5246 36.2879C11.7004 36.4637 11.9389 36.5625 12.1875 36.5625Z" fill="#021827"/>
<path d="M12.1875 40.3125H15.9375C16.1861 40.3125 16.4246 40.2137 16.6004 40.0379C16.7762 39.8621 16.875 39.6236 16.875 39.375C16.875 39.1264 16.7762 38.8879 16.6004 38.7121C16.4246 38.5363 16.1861 38.4375 15.9375 38.4375H12.1875C11.9389 38.4375 11.7004 38.5363 11.5246 38.7121C11.3488 38.8879 11.25 39.1264 11.25 39.375C11.25 39.6236 11.3488 39.8621 11.5246 40.0379C11.7004 40.2137 11.9389 40.3125 12.1875 40.3125Z" fill="#021827"/>
<path d="M12.1875 44.0625H15.9375C16.1861 44.0625 16.4246 43.9637 16.6004 43.7879C16.7762 43.6121 16.875 43.3736 16.875 43.125C16.875 42.8764 16.7762 42.6379 16.6004 42.4621C16.4246 42.2863 16.1861 42.1875 15.9375 42.1875H12.1875C11.9389 42.1875 11.7004 42.2863 11.5246 42.4621C11.3488 42.6379 11.25 42.8764 11.25 43.125C11.25 43.3736 11.3488 43.6121 11.5246 43.7879C11.7004 43.9637 11.9389 44.0625 12.1875 44.0625Z" fill="#021827"/>
<path d="M12.1875 47.8125H15.9375C16.1861 47.8125 16.4246 47.7137 16.6004 47.5379C16.7762 47.3621 16.875 47.1236 16.875 46.875C16.875 46.6264 16.7762 46.3879 16.6004 46.2121C16.4246 46.0363 16.1861 45.9375 15.9375 45.9375H12.1875C11.9389 45.9375 11.7004 46.0363 11.5246 46.2121C11.3488 46.3879 11.25 46.6264 11.25 46.875C11.25 47.1236 11.3488 47.3621 11.5246 47.5379C11.7004 47.7137 11.9389 47.8125 12.1875 47.8125Z" fill="#021827"/>
<path d="M25.3125 12.1875H23.4375C23.1889 12.1875 22.9504 12.2863 22.7746 12.4621C22.5988 12.6379 22.5 12.8764 22.5 13.125C22.5 13.3736 22.5988 13.6121 22.7746 13.7879C22.9504 13.9637 23.1889 14.0625 23.4375 14.0625H25.3125C25.5611 14.0625 25.7996 13.9637 25.9754 13.7879C26.1512 13.6121 26.25 13.3736 26.25 13.125C26.25 12.8764 26.1512 12.6379 25.9754 12.4621C25.7996 12.2863 25.5611 12.1875 25.3125 12.1875Z" fill="#021827"/>
<path d="M25.3125 15.9375H23.4375C23.1889 15.9375 22.9504 16.0363 22.7746 16.2121C22.5988 16.3879 22.5 16.6264 22.5 16.875C22.5 17.1236 22.5988 17.3621 22.7746 17.5379C22.9504 17.7137 23.1889 17.8125 23.4375 17.8125H25.3125C25.5611 17.8125 25.7996 17.7137 25.9754 17.5379C26.1512 17.3621 26.25 17.1236 26.25 16.875C26.25 16.6264 26.1512 16.3879 25.9754 16.2121C25.7996 16.0363 25.5611 15.9375 25.3125 15.9375Z" fill="#021827"/>
<path d="M25.3125 19.6875H23.4375C23.1889 19.6875 22.9504 19.7863 22.7746 19.9621C22.5988 20.1379 22.5 20.3764 22.5 20.625C22.5 20.8736 22.5988 21.1121 22.7746 21.2879C22.9504 21.4637 23.1889 21.5625 23.4375 21.5625H25.3125C25.5611 21.5625 25.7996 21.4637 25.9754 21.2879C26.1512 21.1121 26.25 20.8736 26.25 20.625C26.25 20.3764 26.1512 20.1379 25.9754 19.9621C25.7996 19.7863 25.5611 19.6875 25.3125 19.6875Z" fill="#021827"/>
<path d="M25.3125 23.4375H23.4375C23.1889 23.4375 22.9504 23.5363 22.7746 23.7121C22.5988 23.8879 22.5 24.1264 22.5 24.375C22.5 24.6236 22.5988 24.8621 22.7746 25.0379C22.9504 25.2137 23.1889 25.3125 23.4375 25.3125H25.3125C25.5611 25.3125 25.7996 25.2137 25.9754 25.0379C26.1512 24.8621 26.25 24.6236 26.25 24.375C26.25 24.1264 26.1512 23.8879 25.9754 23.7121C25.7996 23.5363 25.5611 23.4375 25.3125 23.4375Z" fill="#021827"/>
<path d="M25.3125 27.1875H23.4375C23.1889 27.1875 22.9504 27.2863 22.7746 27.4621C22.5988 27.6379 22.5 27.8764 22.5 28.125C22.5 28.3736 22.5988 28.6121 22.7746 28.7879C22.9504 28.9637 23.1889 29.0625 23.4375 29.0625H25.3125C25.5611 29.0625 25.7996 28.9637 25.9754 28.7879C26.1512 28.6121 26.25 28.3736 26.25 28.125C26.25 27.8764 26.1512 27.6379 25.9754 27.4621C25.7996 27.2863 25.5611 27.1875 25.3125 27.1875Z" fill="#021827"/>
<path d="M25.3125 30.9375H23.4375C23.1889 30.9375 22.9504 31.0363 22.7746 31.2121C22.5988 31.3879 22.5 31.6264 22.5 31.875C22.5 32.1236 22.5988 32.3621 22.7746 32.5379C22.9504 32.7137 23.1889 32.8125 23.4375 32.8125H25.3125C25.5611 32.8125 25.7996 32.7137 25.9754 32.5379C26.1512 32.3621 26.25 32.1236 26.25 31.875C26.25 31.6264 26.1512 31.3879 25.9754 31.2121C25.7996 31.0363 25.5611 30.9375 25.3125 30.9375Z" fill="#021827"/>
<path d="M25.3125 34.6875H23.4375C23.1889 34.6875 22.9504 34.7863 22.7746 34.9621C22.5988 35.1379 22.5 35.3764 22.5 35.625C22.5 35.8736 22.5988 36.1121 22.7746 36.2879C22.9504 36.4637 23.1889 36.5625 23.4375 36.5625H25.3125C25.5611 36.5625 25.7996 36.4637 25.9754 36.2879C26.1512 36.1121 26.25 35.8736 26.25 35.625C26.25 35.3764 26.1512 35.1379 25.9754 34.9621C25.7996 34.7863 25.5611 34.6875 25.3125 34.6875Z" fill="#021827"/>
<path d="M25.3125 38.4375H23.4375C23.1889 38.4375 22.9504 38.5363 22.7746 38.7121C22.5988 38.8879 22.5 39.1264 22.5 39.375C22.5 39.6236 22.5988 39.8621 22.7746 40.0379C22.9504 40.2137 23.1889 40.3125 23.4375 40.3125H25.3125C25.5611 40.3125 25.7996 40.2137 25.9754 40.0379C26.1512 39.8621 26.25 39.6236 26.25 39.375C26.25 39.1264 26.1512 38.8879 25.9754 38.7121C25.7996 38.5363 25.5611 38.4375 25.3125 38.4375Z" fill="#021827"/>
<path d="M25.3125 42.1875H23.4375C23.1889 42.1875 22.9504 42.2863 22.7746 42.4621C22.5988 42.6379 22.5 42.8764 22.5 43.125C22.5 43.3736 22.5988 43.6121 22.7746 43.7879C22.9504 43.9637 23.1889 44.0625 23.4375 44.0625H25.3125C25.5611 44.0625 25.7996 43.9637 25.9754 43.7879C26.1512 43.6121 26.25 43.3736 26.25 43.125C26.25 42.8764 26.1512 42.6379 25.9754 42.4621C25.7996 42.2863 25.5611 42.1875 25.3125 42.1875Z" fill="#021827"/>
<path d="M25.3125 45.9375H23.4375C23.1889 45.9375 22.9504 46.0363 22.7746 46.2121C22.5988 46.3879 22.5 46.6264 22.5 46.875C22.5 47.1236 22.5988 47.3621 22.7746 47.5379C22.9504 47.7137 23.1889 47.8125 23.4375 47.8125H25.3125C25.5611 47.8125 25.7996 47.7137 25.9754 47.5379C26.1512 47.3621 26.25 47.1236 26.25 46.875C26.25 46.6264 26.1512 46.3879 25.9754 46.2121C25.7996 46.0363 25.5611 45.9375 25.3125 45.9375Z" fill="#021827"/>
</svg>
