<svg width="52" height="54" viewBox="0 0 52 54" fill="none" xmlns="http://www.w3.org/2000/svg">
<mask id="path-1-outside-1_274_1473" maskUnits="userSpaceOnUse" x="0" y="0" width="52" height="54" fill="black">
<rect fill="white" width="52" height="54"/>
<path d="M24.4933 33.8129C23.8181 33.8129 23.8181 32.7937 24.4933 32.7937H25.8056C26.4808 32.7937 26.4808 33.8129 25.8056 33.8129H24.4933ZM24.4933 31.8891C23.8181 31.8891 23.8181 30.8699 24.4933 30.8699H25.8056C26.4808 30.8699 26.4808 31.8891 25.8056 31.8891H24.4933ZM20.7476 31.8891C20.0851 31.8891 20.0851 30.8699 20.7476 30.8699H22.0599C22.7351 30.8699 22.7351 31.8891 22.0599 31.8891H20.7476ZM20.7476 35.724C20.0851 35.724 20.0851 34.7048 20.7476 34.7048H22.0599C22.7351 34.7048 22.7351 35.724 22.0599 35.724H20.7476ZM20.7476 33.8129C20.0851 33.8129 20.0851 32.7937 20.7476 32.7937H22.0599C22.7351 32.7937 22.7351 33.8129 22.0599 33.8129H20.7476ZM24.4933 35.724C23.8181 35.724 23.8181 34.7048 24.4933 34.7048H25.8056C26.4808 34.7048 26.4808 35.724 25.8056 35.724H24.4933ZM18.8493 26.5382H18.9385C19.2443 24.6526 20.8623 23.2639 22.7606 23.0473V18.9067C22.7606 18.2442 23.7799 18.2442 23.7799 18.9067V23.0473C25.6909 23.2511 27.2962 24.6526 27.602 26.5382C28.0224 26.5382 28.3537 26.6401 28.634 26.9331C29.1308 27.4427 29.0289 27.9906 29.0289 28.704C29.0289 29.0735 28.876 29.4175 28.634 29.6596C28.5448 29.7487 28.4429 29.8252 28.3282 29.8889V30.6915C28.6594 30.4877 29.0417 30.373 29.4493 30.373H31.5388C32.7236 30.373 33.6792 31.3413 33.6792 32.5134V42.4764H34.7748C35.0551 42.4764 35.2845 42.7057 35.2845 42.986V46.0565C35.2845 46.3368 35.0551 46.5661 34.7748 46.5661H17.1421C16.8618 46.5661 16.6325 46.3368 16.6325 46.0565V42.986C16.6325 42.7057 16.8618 42.4764 17.1421 42.4764H18.2123V29.8761C17.7919 29.6468 17.5116 29.2009 17.5116 28.6913C17.5116 27.9906 17.4097 27.4045 17.9065 26.9204C18.1486 26.691 18.4799 26.5382 18.8493 26.5382ZM27.6912 27.5574H18.8493C18.671 27.5574 18.5181 27.6975 18.5181 27.8886V28.7168C18.5181 28.8951 18.6582 29.048 18.8493 29.048H27.6912C27.7804 29.048 27.8568 29.0098 27.9205 28.9461C27.9842 28.8824 28.0224 28.806 28.0224 28.7168V27.8886C28.0224 27.6975 27.8695 27.5574 27.6912 27.5574ZM21.1553 36.5394H25.3979C25.6782 36.5394 25.9075 36.7687 25.9075 37.049V42.4892H27.3217V30.0545H19.2315V42.4892H20.6457V37.049C20.6457 36.7687 20.875 36.5394 21.1553 36.5394ZM24.8755 37.5586H21.6522V42.4892H24.8755V37.5586ZM29.8443 33.9403C29.1691 33.9403 29.1691 32.9211 29.8443 32.9211H31.1566C31.8318 32.9211 31.8318 33.9403 31.1566 33.9403H29.8443ZM29.8443 37.7752C29.1691 37.7752 29.1691 36.756 29.8443 36.756H31.1566C31.8318 36.756 31.8318 37.7752 31.1566 37.7752H29.8443ZM29.8443 35.8641C29.1691 35.8641 29.1691 34.8449 29.8443 34.8449H31.1566C31.8318 34.8449 31.8318 35.8641 31.1566 35.8641H29.8443ZM25.6272 24.9329C23.7289 23.2002 20.5056 24.1302 19.9705 26.5382H26.57C26.4426 25.9139 26.0986 25.3533 25.6272 24.9329ZM28.3409 32.5134V42.4892H32.6727V32.5262C32.6727 31.9146 32.1631 31.405 31.5515 31.405H29.4621C28.8505 31.3923 28.3409 31.9019 28.3409 32.5134ZM34.278 43.5084H17.6517V45.5596H34.278V43.5084ZM26.9904 15.6833C28.4301 15.7598 29.8316 16.0018 31.1566 16.384V13.4028C31.1566 12.7276 32.1758 12.7276 32.1758 13.4028V16.7153C33.1823 17.072 34.1633 17.5179 35.0806 18.0276V12.1288C35.0806 11.4535 36.0998 11.4535 36.0998 12.1288V18.6391C36.2527 18.741 36.4184 18.843 36.5712 18.9576L37.5013 19.0595L38.0491 16.0273V11.0968V11.0331C38.1128 10.4598 37.8071 9.9374 37.3102 9.54245C36.7751 9.12201 36.0361 8.82898 35.2335 8.71432C34.6474 9.03283 33.9849 9.2112 33.2715 9.2112C32.9912 9.2112 32.6982 9.18572 32.4306 9.12201L31.8191 9.52971L30.252 13.6321C30.201 13.7723 30.0736 13.8869 29.9207 13.9379L26.6082 14.9316C26.7866 15.1737 26.914 15.4285 26.9904 15.6833ZM38.0619 20.1043L39.2212 21.1744C39.6162 20.6266 40.0366 19.9131 40.3934 19.2506C40.6482 18.792 41.3489 18.9704 41.3489 19.4927V23.7353C42.3554 25.2004 43.158 26.8057 43.7186 28.5257V24.7418C43.7186 24.0665 44.7378 24.0665 44.7378 24.7418V34.9341H45.7189C46.4833 34.9341 47.1076 34.3098 47.1076 33.5454V18.1422C47.1076 17.467 48.1268 17.467 48.1268 18.1422V24.1302C48.1268 25.3915 49.8977 25.3915 49.8977 24.1302V17.4288C49.7448 16.8554 49.3371 16.384 48.7893 15.9891C48.1523 15.5304 47.3114 15.1992 46.3941 14.9826C44.9162 15.9509 43.0051 15.8999 41.5782 14.8679C40.9285 14.9953 40.3424 15.1992 39.8837 15.454C39.4888 15.6833 39.1958 15.9509 39.0429 16.2566L38.4313 19.722C38.3931 19.9004 38.2402 20.0533 38.0619 20.1043ZM39.9347 21.9261C40.0749 22.079 40.2023 22.2319 40.3297 22.3975V21.3528C40.1895 21.5694 40.0494 21.7732 39.9347 21.9261ZM44.5722 35.9406C43.7441 45.5341 35.7049 53 25.9712 53C16.2375 53 8.18559 45.5341 7.37021 35.9406C6.26179 35.9406 5.35722 36.0807 4.51635 35.2399C4.0577 34.8067 3.79015 34.2079 3.79015 33.5326V25.8884C2.60529 26.4872 1 25.7737 1 24.1302V17.3651C1 17.3014 1.01274 17.2504 1.02548 17.1994C1.24207 16.3713 1.78991 15.6833 2.52885 15.1482C3.11491 14.7278 3.82837 14.3965 4.60554 14.1545C2.2613 11.4025 4.22333 7.14725 7.8416 7.14725C11.3707 7.14725 13.3582 11.2242 11.2051 14.0016C11.8039 14.1672 12.3772 14.4093 12.8613 14.7405V10.2177C12.7849 9.42778 13.0397 8.77802 13.5238 8.29389C13.8296 7.98812 14.2246 7.74605 14.6832 7.58042C12.632 4.90494 14.5431 1.00637 17.932 1.00637C20.1871 1.00637 22.0217 2.84099 22.0217 5.09604C22.0217 6.59941 21.2063 7.9499 19.945 8.66336C20.0724 8.76528 20.2253 8.87995 20.2762 9.02009L21.8051 13.0206L25.2323 14.0526C25.7674 14.2054 25.4234 14.2309 25.9457 14.0526L29.3729 13.0206L30.9018 9.02009C30.9655 8.86721 31.1056 8.76528 31.233 8.66336C28.8888 7.33836 28.4301 4.12777 30.3539 2.20397C31.9592 0.598677 34.5455 0.598677 36.1381 2.20397C37.6924 3.7583 37.7434 6.26816 36.2527 7.87345C36.8897 8.06456 37.4631 8.34485 37.9217 8.71432C38.6861 9.31312 39.1448 10.1285 39.0429 11.084V14.7278C39.5143 14.3965 40.0876 14.1672 40.6864 13.9889C38.5333 11.2114 40.508 7.13451 44.0499 7.13451C47.6681 7.13451 49.6302 11.3898 47.2859 14.1417C48.0631 14.3838 48.7766 14.7151 49.3626 15.1355C50.1143 15.6706 50.6494 16.3586 50.866 17.1867C50.8787 17.2377 50.8915 17.3014 50.8915 17.3523V24.1175C50.8915 25.761 49.2862 26.4745 48.1013 25.8757V33.5326C48.1013 34.8576 47.0184 35.9406 45.6934 35.9406H44.5722ZM8.19833 28.5384C8.75891 26.8184 9.56156 25.2132 10.5681 23.748V19.5055C10.5681 18.9831 11.2688 18.8047 11.5236 19.2634C11.8803 19.9259 12.3135 20.6393 12.6957 21.1872L13.8551 20.117C13.6767 20.066 13.5238 19.9131 13.4983 19.722L12.8868 16.2566C12.7339 15.9509 12.4409 15.6833 12.0459 15.454C11.5873 15.1992 11.0012 15.0081 10.3515 14.8679C8.92454 15.8999 7.01348 15.9509 5.53559 14.9826C4.61828 15.1992 3.77741 15.5432 3.14039 15.9891C2.59255 16.384 2.18486 16.8682 2.03197 17.4288V24.1302C2.03197 25.3915 3.80289 25.3915 3.80289 24.1302V18.1422C3.80289 17.467 4.82212 17.467 4.82212 18.1422V33.5326C4.82212 34.2971 5.4464 34.9214 6.21083 34.9214H7.19184V24.7418C7.19184 24.0665 8.21107 24.0665 8.21107 24.7418V28.5384H8.19833ZM11.6 22.3975C11.7274 22.2446 11.8676 22.079 11.995 21.9261C11.8676 21.7605 11.7402 21.5694 11.6 21.3528V22.3975ZM15.3584 18.9576C16.5178 18.155 17.7664 17.4797 19.0914 16.9574C19.0914 16.9446 19.0786 16.9446 19.0786 16.9319L16.7726 12.1415C16.4796 11.5427 17.3969 11.0968 17.6899 11.7083C17.9448 12.2307 19.996 16.4478 20.0342 16.6134C21.8688 16.0018 23.8436 15.6578 25.882 15.6451C25.6782 15.3393 25.3215 15.1482 24.9647 15.0336L21.2827 13.9251C21.1299 13.8742 21.0025 13.7595 20.9515 13.6194L19.3844 9.51697L18.8111 9.09653C18.7856 9.08379 17.1294 9.56793 15.5241 8.40855C14.5813 8.57418 13.7532 9.09653 13.8678 10.1285C13.8678 10.1412 13.8678 10.1667 13.8678 10.1795V16.0146L14.4029 19.0341L15.3584 18.9576ZM38.4441 21.8497C31.5515 14.9571 20.3782 14.9571 13.4729 21.8497C6.5803 28.7423 6.5803 39.9283 13.4729 46.8209C20.3654 53.7135 31.5388 53.7135 38.4441 46.8209C45.3366 39.9156 45.3366 28.7423 38.4441 21.8497ZM7.85434 8.17922C4.98775 8.17922 3.53534 11.6701 5.57381 13.6958C7.61228 15.7215 11.0904 14.2819 11.0904 11.4153C11.0904 9.63163 9.638 8.17922 7.85434 8.17922ZM46.3559 9.12201C44.3302 7.08355 40.8393 8.53595 40.8393 11.4025C40.8393 14.2691 44.3302 15.7215 46.3559 13.6831C47.6172 12.4345 47.6172 10.3833 46.3559 9.12201ZM33.2587 2.03834C30.5323 2.03834 29.1563 5.35085 31.0929 7.28739C33.0167 9.2112 36.3419 7.84797 36.3419 5.10878C36.3292 3.41431 34.9532 2.03834 33.2587 2.03834ZM20.1106 2.94291C18.1868 1.00637 14.8616 2.38234 14.8616 5.12152C14.8616 7.84797 18.1741 9.22394 20.1106 7.30013C21.3082 6.0898 21.3082 4.14051 20.1106 2.94291Z"/>
</mask>
<path d="M24.4933 33.8129C23.8181 33.8129 23.8181 32.7937 24.4933 32.7937H25.8056C26.4808 32.7937 26.4808 33.8129 25.8056 33.8129H24.4933ZM24.4933 31.8891C23.8181 31.8891 23.8181 30.8699 24.4933 30.8699H25.8056C26.4808 30.8699 26.4808 31.8891 25.8056 31.8891H24.4933ZM20.7476 31.8891C20.0851 31.8891 20.0851 30.8699 20.7476 30.8699H22.0599C22.7351 30.8699 22.7351 31.8891 22.0599 31.8891H20.7476ZM20.7476 35.724C20.0851 35.724 20.0851 34.7048 20.7476 34.7048H22.0599C22.7351 34.7048 22.7351 35.724 22.0599 35.724H20.7476ZM20.7476 33.8129C20.0851 33.8129 20.0851 32.7937 20.7476 32.7937H22.0599C22.7351 32.7937 22.7351 33.8129 22.0599 33.8129H20.7476ZM24.4933 35.724C23.8181 35.724 23.8181 34.7048 24.4933 34.7048H25.8056C26.4808 34.7048 26.4808 35.724 25.8056 35.724H24.4933ZM18.8493 26.5382H18.9385C19.2443 24.6526 20.8623 23.2639 22.7606 23.0473V18.9067C22.7606 18.2442 23.7799 18.2442 23.7799 18.9067V23.0473C25.6909 23.2511 27.2962 24.6526 27.602 26.5382C28.0224 26.5382 28.3537 26.6401 28.634 26.9331C29.1308 27.4427 29.0289 27.9906 29.0289 28.704C29.0289 29.0735 28.876 29.4175 28.634 29.6596C28.5448 29.7487 28.4429 29.8252 28.3282 29.8889V30.6915C28.6594 30.4877 29.0417 30.373 29.4493 30.373H31.5388C32.7236 30.373 33.6792 31.3413 33.6792 32.5134V42.4764H34.7748C35.0551 42.4764 35.2845 42.7057 35.2845 42.986V46.0565C35.2845 46.3368 35.0551 46.5661 34.7748 46.5661H17.1421C16.8618 46.5661 16.6325 46.3368 16.6325 46.0565V42.986C16.6325 42.7057 16.8618 42.4764 17.1421 42.4764H18.2123V29.8761C17.7919 29.6468 17.5116 29.2009 17.5116 28.6913C17.5116 27.9906 17.4097 27.4045 17.9065 26.9204C18.1486 26.691 18.4799 26.5382 18.8493 26.5382ZM27.6912 27.5574H18.8493C18.671 27.5574 18.5181 27.6975 18.5181 27.8886V28.7168C18.5181 28.8951 18.6582 29.048 18.8493 29.048H27.6912C27.7804 29.048 27.8568 29.0098 27.9205 28.9461C27.9842 28.8824 28.0224 28.806 28.0224 28.7168V27.8886C28.0224 27.6975 27.8695 27.5574 27.6912 27.5574ZM21.1553 36.5394H25.3979C25.6782 36.5394 25.9075 36.7687 25.9075 37.049V42.4892H27.3217V30.0545H19.2315V42.4892H20.6457V37.049C20.6457 36.7687 20.875 36.5394 21.1553 36.5394ZM24.8755 37.5586H21.6522V42.4892H24.8755V37.5586ZM29.8443 33.9403C29.1691 33.9403 29.1691 32.9211 29.8443 32.9211H31.1566C31.8318 32.9211 31.8318 33.9403 31.1566 33.9403H29.8443ZM29.8443 37.7752C29.1691 37.7752 29.1691 36.756 29.8443 36.756H31.1566C31.8318 36.756 31.8318 37.7752 31.1566 37.7752H29.8443ZM29.8443 35.8641C29.1691 35.8641 29.1691 34.8449 29.8443 34.8449H31.1566C31.8318 34.8449 31.8318 35.8641 31.1566 35.8641H29.8443ZM25.6272 24.9329C23.7289 23.2002 20.5056 24.1302 19.9705 26.5382H26.57C26.4426 25.9139 26.0986 25.3533 25.6272 24.9329ZM28.3409 32.5134V42.4892H32.6727V32.5262C32.6727 31.9146 32.1631 31.405 31.5515 31.405H29.4621C28.8505 31.3923 28.3409 31.9019 28.3409 32.5134ZM34.278 43.5084H17.6517V45.5596H34.278V43.5084ZM26.9904 15.6833C28.4301 15.7598 29.8316 16.0018 31.1566 16.384V13.4028C31.1566 12.7276 32.1758 12.7276 32.1758 13.4028V16.7153C33.1823 17.072 34.1633 17.5179 35.0806 18.0276V12.1288C35.0806 11.4535 36.0998 11.4535 36.0998 12.1288V18.6391C36.2527 18.741 36.4184 18.843 36.5712 18.9576L37.5013 19.0595L38.0491 16.0273V11.0968V11.0331C38.1128 10.4598 37.8071 9.9374 37.3102 9.54245C36.7751 9.12201 36.0361 8.82898 35.2335 8.71432C34.6474 9.03283 33.9849 9.2112 33.2715 9.2112C32.9912 9.2112 32.6982 9.18572 32.4306 9.12201L31.8191 9.52971L30.252 13.6321C30.201 13.7723 30.0736 13.8869 29.9207 13.9379L26.6082 14.9316C26.7866 15.1737 26.914 15.4285 26.9904 15.6833ZM38.0619 20.1043L39.2212 21.1744C39.6162 20.6266 40.0366 19.9131 40.3934 19.2506C40.6482 18.792 41.3489 18.9704 41.3489 19.4927V23.7353C42.3554 25.2004 43.158 26.8057 43.7186 28.5257V24.7418C43.7186 24.0665 44.7378 24.0665 44.7378 24.7418V34.9341H45.7189C46.4833 34.9341 47.1076 34.3098 47.1076 33.5454V18.1422C47.1076 17.467 48.1268 17.467 48.1268 18.1422V24.1302C48.1268 25.3915 49.8977 25.3915 49.8977 24.1302V17.4288C49.7448 16.8554 49.3371 16.384 48.7893 15.9891C48.1523 15.5304 47.3114 15.1992 46.3941 14.9826C44.9162 15.9509 43.0051 15.8999 41.5782 14.8679C40.9285 14.9953 40.3424 15.1992 39.8837 15.454C39.4888 15.6833 39.1958 15.9509 39.0429 16.2566L38.4313 19.722C38.3931 19.9004 38.2402 20.0533 38.0619 20.1043ZM39.9347 21.9261C40.0749 22.079 40.2023 22.2319 40.3297 22.3975V21.3528C40.1895 21.5694 40.0494 21.7732 39.9347 21.9261ZM44.5722 35.9406C43.7441 45.5341 35.7049 53 25.9712 53C16.2375 53 8.18559 45.5341 7.37021 35.9406C6.26179 35.9406 5.35722 36.0807 4.51635 35.2399C4.0577 34.8067 3.79015 34.2079 3.79015 33.5326V25.8884C2.60529 26.4872 1 25.7737 1 24.1302V17.3651C1 17.3014 1.01274 17.2504 1.02548 17.1994C1.24207 16.3713 1.78991 15.6833 2.52885 15.1482C3.11491 14.7278 3.82837 14.3965 4.60554 14.1545C2.2613 11.4025 4.22333 7.14725 7.8416 7.14725C11.3707 7.14725 13.3582 11.2242 11.2051 14.0016C11.8039 14.1672 12.3772 14.4093 12.8613 14.7405V10.2177C12.7849 9.42778 13.0397 8.77802 13.5238 8.29389C13.8296 7.98812 14.2246 7.74605 14.6832 7.58042C12.632 4.90494 14.5431 1.00637 17.932 1.00637C20.1871 1.00637 22.0217 2.84099 22.0217 5.09604C22.0217 6.59941 21.2063 7.9499 19.945 8.66336C20.0724 8.76528 20.2253 8.87995 20.2762 9.02009L21.8051 13.0206L25.2323 14.0526C25.7674 14.2054 25.4234 14.2309 25.9457 14.0526L29.3729 13.0206L30.9018 9.02009C30.9655 8.86721 31.1056 8.76528 31.233 8.66336C28.8888 7.33836 28.4301 4.12777 30.3539 2.20397C31.9592 0.598677 34.5455 0.598677 36.1381 2.20397C37.6924 3.7583 37.7434 6.26816 36.2527 7.87345C36.8897 8.06456 37.4631 8.34485 37.9217 8.71432C38.6861 9.31312 39.1448 10.1285 39.0429 11.084V14.7278C39.5143 14.3965 40.0876 14.1672 40.6864 13.9889C38.5333 11.2114 40.508 7.13451 44.0499 7.13451C47.6681 7.13451 49.6302 11.3898 47.2859 14.1417C48.0631 14.3838 48.7766 14.7151 49.3626 15.1355C50.1143 15.6706 50.6494 16.3586 50.866 17.1867C50.8787 17.2377 50.8915 17.3014 50.8915 17.3523V24.1175C50.8915 25.761 49.2862 26.4745 48.1013 25.8757V33.5326C48.1013 34.8576 47.0184 35.9406 45.6934 35.9406H44.5722ZM8.19833 28.5384C8.75891 26.8184 9.56156 25.2132 10.5681 23.748V19.5055C10.5681 18.9831 11.2688 18.8047 11.5236 19.2634C11.8803 19.9259 12.3135 20.6393 12.6957 21.1872L13.8551 20.117C13.6767 20.066 13.5238 19.9131 13.4983 19.722L12.8868 16.2566C12.7339 15.9509 12.4409 15.6833 12.0459 15.454C11.5873 15.1992 11.0012 15.0081 10.3515 14.8679C8.92454 15.8999 7.01348 15.9509 5.53559 14.9826C4.61828 15.1992 3.77741 15.5432 3.14039 15.9891C2.59255 16.384 2.18486 16.8682 2.03197 17.4288V24.1302C2.03197 25.3915 3.80289 25.3915 3.80289 24.1302V18.1422C3.80289 17.467 4.82212 17.467 4.82212 18.1422V33.5326C4.82212 34.2971 5.4464 34.9214 6.21083 34.9214H7.19184V24.7418C7.19184 24.0665 8.21107 24.0665 8.21107 24.7418V28.5384H8.19833ZM11.6 22.3975C11.7274 22.2446 11.8676 22.079 11.995 21.9261C11.8676 21.7605 11.7402 21.5694 11.6 21.3528V22.3975ZM15.3584 18.9576C16.5178 18.155 17.7664 17.4797 19.0914 16.9574C19.0914 16.9446 19.0786 16.9446 19.0786 16.9319L16.7726 12.1415C16.4796 11.5427 17.3969 11.0968 17.6899 11.7083C17.9448 12.2307 19.996 16.4478 20.0342 16.6134C21.8688 16.0018 23.8436 15.6578 25.882 15.6451C25.6782 15.3393 25.3215 15.1482 24.9647 15.0336L21.2827 13.9251C21.1299 13.8742 21.0025 13.7595 20.9515 13.6194L19.3844 9.51697L18.8111 9.09653C18.7856 9.08379 17.1294 9.56793 15.5241 8.40855C14.5813 8.57418 13.7532 9.09653 13.8678 10.1285C13.8678 10.1412 13.8678 10.1667 13.8678 10.1795V16.0146L14.4029 19.0341L15.3584 18.9576ZM38.4441 21.8497C31.5515 14.9571 20.3782 14.9571 13.4729 21.8497C6.5803 28.7423 6.5803 39.9283 13.4729 46.8209C20.3654 53.7135 31.5388 53.7135 38.4441 46.8209C45.3366 39.9156 45.3366 28.7423 38.4441 21.8497ZM7.85434 8.17922C4.98775 8.17922 3.53534 11.6701 5.57381 13.6958C7.61228 15.7215 11.0904 14.2819 11.0904 11.4153C11.0904 9.63163 9.638 8.17922 7.85434 8.17922ZM46.3559 9.12201C44.3302 7.08355 40.8393 8.53595 40.8393 11.4025C40.8393 14.2691 44.3302 15.7215 46.3559 13.6831C47.6172 12.4345 47.6172 10.3833 46.3559 9.12201ZM33.2587 2.03834C30.5323 2.03834 29.1563 5.35085 31.0929 7.28739C33.0167 9.2112 36.3419 7.84797 36.3419 5.10878C36.3292 3.41431 34.9532 2.03834 33.2587 2.03834ZM20.1106 2.94291C18.1868 1.00637 14.8616 2.38234 14.8616 5.12152C14.8616 7.84797 18.1741 9.22394 20.1106 7.30013C21.3082 6.0898 21.3082 4.14051 20.1106 2.94291Z" fill="#021827"/>
<path d="M24.4933 33.8129C23.8181 33.8129 23.8181 32.7937 24.4933 32.7937H25.8056C26.4808 32.7937 26.4808 33.8129 25.8056 33.8129H24.4933ZM24.4933 31.8891C23.8181 31.8891 23.8181 30.8699 24.4933 30.8699H25.8056C26.4808 30.8699 26.4808 31.8891 25.8056 31.8891H24.4933ZM20.7476 31.8891C20.0851 31.8891 20.0851 30.8699 20.7476 30.8699H22.0599C22.7351 30.8699 22.7351 31.8891 22.0599 31.8891H20.7476ZM20.7476 35.724C20.0851 35.724 20.0851 34.7048 20.7476 34.7048H22.0599C22.7351 34.7048 22.7351 35.724 22.0599 35.724H20.7476ZM20.7476 33.8129C20.0851 33.8129 20.0851 32.7937 20.7476 32.7937H22.0599C22.7351 32.7937 22.7351 33.8129 22.0599 33.8129H20.7476ZM24.4933 35.724C23.8181 35.724 23.8181 34.7048 24.4933 34.7048H25.8056C26.4808 34.7048 26.4808 35.724 25.8056 35.724H24.4933ZM18.8493 26.5382H18.9385C19.2443 24.6526 20.8623 23.2639 22.7606 23.0473V18.9067C22.7606 18.2442 23.7799 18.2442 23.7799 18.9067V23.0473C25.6909 23.2511 27.2962 24.6526 27.602 26.5382C28.0224 26.5382 28.3537 26.6401 28.634 26.9331C29.1308 27.4427 29.0289 27.9906 29.0289 28.704C29.0289 29.0735 28.876 29.4175 28.634 29.6596C28.5448 29.7487 28.4429 29.8252 28.3282 29.8889V30.6915C28.6594 30.4877 29.0417 30.373 29.4493 30.373H31.5388C32.7236 30.373 33.6792 31.3413 33.6792 32.5134V42.4764H34.7748C35.0551 42.4764 35.2845 42.7057 35.2845 42.986V46.0565C35.2845 46.3368 35.0551 46.5661 34.7748 46.5661H17.1421C16.8618 46.5661 16.6325 46.3368 16.6325 46.0565V42.986C16.6325 42.7057 16.8618 42.4764 17.1421 42.4764H18.2123V29.8761C17.7919 29.6468 17.5116 29.2009 17.5116 28.6913C17.5116 27.9906 17.4097 27.4045 17.9065 26.9204C18.1486 26.691 18.4799 26.5382 18.8493 26.5382ZM27.6912 27.5574H18.8493C18.671 27.5574 18.5181 27.6975 18.5181 27.8886V28.7168C18.5181 28.8951 18.6582 29.048 18.8493 29.048H27.6912C27.7804 29.048 27.8568 29.0098 27.9205 28.9461C27.9842 28.8824 28.0224 28.806 28.0224 28.7168V27.8886C28.0224 27.6975 27.8695 27.5574 27.6912 27.5574ZM21.1553 36.5394H25.3979C25.6782 36.5394 25.9075 36.7687 25.9075 37.049V42.4892H27.3217V30.0545H19.2315V42.4892H20.6457V37.049C20.6457 36.7687 20.875 36.5394 21.1553 36.5394ZM24.8755 37.5586H21.6522V42.4892H24.8755V37.5586ZM29.8443 33.9403C29.1691 33.9403 29.1691 32.9211 29.8443 32.9211H31.1566C31.8318 32.9211 31.8318 33.9403 31.1566 33.9403H29.8443ZM29.8443 37.7752C29.1691 37.7752 29.1691 36.756 29.8443 36.756H31.1566C31.8318 36.756 31.8318 37.7752 31.1566 37.7752H29.8443ZM29.8443 35.8641C29.1691 35.8641 29.1691 34.8449 29.8443 34.8449H31.1566C31.8318 34.8449 31.8318 35.8641 31.1566 35.8641H29.8443ZM25.6272 24.9329C23.7289 23.2002 20.5056 24.1302 19.9705 26.5382H26.57C26.4426 25.9139 26.0986 25.3533 25.6272 24.9329ZM28.3409 32.5134V42.4892H32.6727V32.5262C32.6727 31.9146 32.1631 31.405 31.5515 31.405H29.4621C28.8505 31.3923 28.3409 31.9019 28.3409 32.5134ZM34.278 43.5084H17.6517V45.5596H34.278V43.5084ZM26.9904 15.6833C28.4301 15.7598 29.8316 16.0018 31.1566 16.384V13.4028C31.1566 12.7276 32.1758 12.7276 32.1758 13.4028V16.7153C33.1823 17.072 34.1633 17.5179 35.0806 18.0276V12.1288C35.0806 11.4535 36.0998 11.4535 36.0998 12.1288V18.6391C36.2527 18.741 36.4184 18.843 36.5712 18.9576L37.5013 19.0595L38.0491 16.0273V11.0968V11.0331C38.1128 10.4598 37.8071 9.9374 37.3102 9.54245C36.7751 9.12201 36.0361 8.82898 35.2335 8.71432C34.6474 9.03283 33.9849 9.2112 33.2715 9.2112C32.9912 9.2112 32.6982 9.18572 32.4306 9.12201L31.8191 9.52971L30.252 13.6321C30.201 13.7723 30.0736 13.8869 29.9207 13.9379L26.6082 14.9316C26.7866 15.1737 26.914 15.4285 26.9904 15.6833ZM38.0619 20.1043L39.2212 21.1744C39.6162 20.6266 40.0366 19.9131 40.3934 19.2506C40.6482 18.792 41.3489 18.9704 41.3489 19.4927V23.7353C42.3554 25.2004 43.158 26.8057 43.7186 28.5257V24.7418C43.7186 24.0665 44.7378 24.0665 44.7378 24.7418V34.9341H45.7189C46.4833 34.9341 47.1076 34.3098 47.1076 33.5454V18.1422C47.1076 17.467 48.1268 17.467 48.1268 18.1422V24.1302C48.1268 25.3915 49.8977 25.3915 49.8977 24.1302V17.4288C49.7448 16.8554 49.3371 16.384 48.7893 15.9891C48.1523 15.5304 47.3114 15.1992 46.3941 14.9826C44.9162 15.9509 43.0051 15.8999 41.5782 14.8679C40.9285 14.9953 40.3424 15.1992 39.8837 15.454C39.4888 15.6833 39.1958 15.9509 39.0429 16.2566L38.4313 19.722C38.3931 19.9004 38.2402 20.0533 38.0619 20.1043ZM39.9347 21.9261C40.0749 22.079 40.2023 22.2319 40.3297 22.3975V21.3528C40.1895 21.5694 40.0494 21.7732 39.9347 21.9261ZM44.5722 35.9406C43.7441 45.5341 35.7049 53 25.9712 53C16.2375 53 8.18559 45.5341 7.37021 35.9406C6.26179 35.9406 5.35722 36.0807 4.51635 35.2399C4.0577 34.8067 3.79015 34.2079 3.79015 33.5326V25.8884C2.60529 26.4872 1 25.7737 1 24.1302V17.3651C1 17.3014 1.01274 17.2504 1.02548 17.1994C1.24207 16.3713 1.78991 15.6833 2.52885 15.1482C3.11491 14.7278 3.82837 14.3965 4.60554 14.1545C2.2613 11.4025 4.22333 7.14725 7.8416 7.14725C11.3707 7.14725 13.3582 11.2242 11.2051 14.0016C11.8039 14.1672 12.3772 14.4093 12.8613 14.7405V10.2177C12.7849 9.42778 13.0397 8.77802 13.5238 8.29389C13.8296 7.98812 14.2246 7.74605 14.6832 7.58042C12.632 4.90494 14.5431 1.00637 17.932 1.00637C20.1871 1.00637 22.0217 2.84099 22.0217 5.09604C22.0217 6.59941 21.2063 7.9499 19.945 8.66336C20.0724 8.76528 20.2253 8.87995 20.2762 9.02009L21.8051 13.0206L25.2323 14.0526C25.7674 14.2054 25.4234 14.2309 25.9457 14.0526L29.3729 13.0206L30.9018 9.02009C30.9655 8.86721 31.1056 8.76528 31.233 8.66336C28.8888 7.33836 28.4301 4.12777 30.3539 2.20397C31.9592 0.598677 34.5455 0.598677 36.1381 2.20397C37.6924 3.7583 37.7434 6.26816 36.2527 7.87345C36.8897 8.06456 37.4631 8.34485 37.9217 8.71432C38.6861 9.31312 39.1448 10.1285 39.0429 11.084V14.7278C39.5143 14.3965 40.0876 14.1672 40.6864 13.9889C38.5333 11.2114 40.508 7.13451 44.0499 7.13451C47.6681 7.13451 49.6302 11.3898 47.2859 14.1417C48.0631 14.3838 48.7766 14.7151 49.3626 15.1355C50.1143 15.6706 50.6494 16.3586 50.866 17.1867C50.8787 17.2377 50.8915 17.3014 50.8915 17.3523V24.1175C50.8915 25.761 49.2862 26.4745 48.1013 25.8757V33.5326C48.1013 34.8576 47.0184 35.9406 45.6934 35.9406H44.5722ZM8.19833 28.5384C8.75891 26.8184 9.56156 25.2132 10.5681 23.748V19.5055C10.5681 18.9831 11.2688 18.8047 11.5236 19.2634C11.8803 19.9259 12.3135 20.6393 12.6957 21.1872L13.8551 20.117C13.6767 20.066 13.5238 19.9131 13.4983 19.722L12.8868 16.2566C12.7339 15.9509 12.4409 15.6833 12.0459 15.454C11.5873 15.1992 11.0012 15.0081 10.3515 14.8679C8.92454 15.8999 7.01348 15.9509 5.53559 14.9826C4.61828 15.1992 3.77741 15.5432 3.14039 15.9891C2.59255 16.384 2.18486 16.8682 2.03197 17.4288V24.1302C2.03197 25.3915 3.80289 25.3915 3.80289 24.1302V18.1422C3.80289 17.467 4.82212 17.467 4.82212 18.1422V33.5326C4.82212 34.2971 5.4464 34.9214 6.21083 34.9214H7.19184V24.7418C7.19184 24.0665 8.21107 24.0665 8.21107 24.7418V28.5384H8.19833ZM11.6 22.3975C11.7274 22.2446 11.8676 22.079 11.995 21.9261C11.8676 21.7605 11.7402 21.5694 11.6 21.3528V22.3975ZM15.3584 18.9576C16.5178 18.155 17.7664 17.4797 19.0914 16.9574C19.0914 16.9446 19.0786 16.9446 19.0786 16.9319L16.7726 12.1415C16.4796 11.5427 17.3969 11.0968 17.6899 11.7083C17.9448 12.2307 19.996 16.4478 20.0342 16.6134C21.8688 16.0018 23.8436 15.6578 25.882 15.6451C25.6782 15.3393 25.3215 15.1482 24.9647 15.0336L21.2827 13.9251C21.1299 13.8742 21.0025 13.7595 20.9515 13.6194L19.3844 9.51697L18.8111 9.09653C18.7856 9.08379 17.1294 9.56793 15.5241 8.40855C14.5813 8.57418 13.7532 9.09653 13.8678 10.1285C13.8678 10.1412 13.8678 10.1667 13.8678 10.1795V16.0146L14.4029 19.0341L15.3584 18.9576ZM38.4441 21.8497C31.5515 14.9571 20.3782 14.9571 13.4729 21.8497C6.5803 28.7423 6.5803 39.9283 13.4729 46.8209C20.3654 53.7135 31.5388 53.7135 38.4441 46.8209C45.3366 39.9156 45.3366 28.7423 38.4441 21.8497ZM7.85434 8.17922C4.98775 8.17922 3.53534 11.6701 5.57381 13.6958C7.61228 15.7215 11.0904 14.2819 11.0904 11.4153C11.0904 9.63163 9.638 8.17922 7.85434 8.17922ZM46.3559 9.12201C44.3302 7.08355 40.8393 8.53595 40.8393 11.4025C40.8393 14.2691 44.3302 15.7215 46.3559 13.6831C47.6172 12.4345 47.6172 10.3833 46.3559 9.12201ZM33.2587 2.03834C30.5323 2.03834 29.1563 5.35085 31.0929 7.28739C33.0167 9.2112 36.3419 7.84797 36.3419 5.10878C36.3292 3.41431 34.9532 2.03834 33.2587 2.03834ZM20.1106 2.94291C18.1868 1.00637 14.8616 2.38234 14.8616 5.12152C14.8616 7.84797 18.1741 9.22394 20.1106 7.30013C21.3082 6.0898 21.3082 4.14051 20.1106 2.94291Z" stroke="#021827" stroke-width="0.4" mask="url(#path-1-outside-1_274_1473)"/>
</svg>
