<svg width="64" height="64" viewBox="0 0 64 64" fill="none" xmlns="http://www.w3.org/2000/svg">
<path d="M63.3748 42.2801C62.8648 41.5776 62.0948 41.1101 61.2373 40.9826C60.9673 40.9426 60.6973 40.9401 60.4274 40.9701C60.1274 38.1901 59.3949 32.2879 58.3974 30.7302C58.0199 30.1402 56.9773 29.1877 52.7649 27.6627C53.2399 26.0252 53.5199 24.3377 53.5974 22.6352H53.6349V21.6327C53.6274 15.8977 51.3449 10.4001 47.2899 6.3425C43.2349 2.28754 37.7373 0.00755197 32.0023 0H31.0023V0.0499998C25.4498 0.309999 20.21 2.69498 16.37 6.71237C12.5275 10.7323 10.38 16.0723 10.37 21.632V22.632H16.625V21.632C16.625 19.737 18.1599 18.202 20.0525 18.202C21.9474 18.202 23.4825 19.737 23.4825 21.632V22.632H31.0024V30.152H32.0024C33.8949 30.152 35.43 31.6869 35.43 33.582C35.43 35.4744 33.895 37.0095 32.0024 37.0095H31.0024V43.2644H32.0024C36.8924 43.2619 41.6376 41.5994 45.4597 38.5469C46.5272 43.7169 49.1571 46.4816 50.8047 47.7616C50.2197 48.7491 50.1972 49.9666 50.7472 50.9741C51.2947 51.9791 52.3297 52.6216 53.4747 52.6666H53.6072C54.2971 52.6666 54.9696 52.4466 55.5272 52.0416L62.6644 46.8341C64.1144 45.7691 64.4344 43.7341 63.3744 42.2791L63.3748 42.2801ZM31.0025 20.6328H25.39C24.9075 18.0654 22.665 16.2028 20.0525 16.2028C17.4401 16.2028 15.1976 18.0654 14.7151 20.6328H12.3951C12.6526 15.7829 14.6951 11.2006 18.1301 7.76761C21.5675 4.3376 26.1524 2.29761 31.0023 2.04763V4.34765C28.4348 4.83015 26.5748 7.07014 26.5748 9.68261C26.5748 12.2951 28.4348 14.5376 31.0023 15.0176L31.0025 20.6328ZM28.5749 9.68312C28.5774 7.79065 30.1099 6.25811 32.0025 6.25561H33.0024V2.04814C33.1799 2.05814 33.3599 2.06064 33.5349 2.07564C33.8299 2.09814 34.1249 2.12564 34.4149 2.16314C34.7599 2.20564 35.1024 2.26064 35.4425 2.32064C35.7275 2.37064 36.015 2.42314 36.2949 2.48564C36.6299 2.56064 36.96 2.65063 37.2899 2.74064C37.5649 2.81813 37.8399 2.89313 38.1099 2.98314C38.4349 3.09064 38.7524 3.21314 39.0699 3.33564C39.3299 3.43564 39.5924 3.53313 39.8499 3.64563C40.1674 3.78563 40.4749 3.94063 40.7824 4.09313C41.0249 4.21563 41.2699 4.33063 41.5049 4.46063C41.8174 4.63313 42.1149 4.82563 42.4174 5.01563C42.6349 5.15313 42.8574 5.28063 43.0699 5.42562C43.3849 5.64312 43.6849 5.87812 43.9874 6.11061C44.1674 6.25061 44.3574 6.38062 44.5349 6.52811C44.9424 6.86561 45.3299 7.22558 45.7099 7.59563C45.8224 7.70562 45.9324 7.81563 46.0424 7.92812C46.4099 8.30562 46.7698 8.69561 47.1074 9.0981C47.2549 9.2756 47.3849 9.4656 47.5274 9.6506C47.7599 9.9506 47.9949 10.2481 48.2099 10.5631C48.3574 10.7756 48.4849 11.0006 48.6249 11.2206C48.8124 11.5206 49.0024 11.8156 49.1749 12.1256C49.3074 12.3631 49.4224 12.6106 49.5449 12.8556C49.6974 13.1606 49.8524 13.4656 49.9924 13.7806C50.1049 14.0356 50.2024 14.3006 50.3024 14.5606C50.4249 14.8806 50.5474 15.1956 50.6549 15.5206C50.7449 15.7906 50.8199 16.0656 50.8974 16.3406C50.9899 16.6681 51.0774 16.998 51.1524 17.3356C51.2174 17.6181 51.2674 17.9031 51.3199 18.188C51.3799 18.528 51.4349 18.8705 51.4774 19.2156C51.5124 19.5056 51.5424 19.8006 51.5649 20.0931C51.5799 20.2706 51.5824 20.4481 51.5924 20.6256L47.3824 20.6281V21.633C47.3549 23.508 45.8274 25.0156 43.9524 25.0156C42.0774 25.0156 40.5499 23.508 40.5249 21.633V20.633H33.0023V13.1105H32.0024C30.1099 13.1105 28.5774 11.5757 28.5749 9.68312ZM33.0024 41.2408V38.9183C35.5699 38.4358 37.43 36.1933 37.43 33.5833C37.43 30.9708 35.57 28.7309 33.0024 28.2484V22.6334H38.6174C39.0974 25.2009 41.3399 27.0634 43.9524 27.0634C46.5648 27.0634 48.8073 25.2009 49.2898 22.6334H51.5948H51.5923C51.5123 24.2959 51.2173 25.9434 50.7173 27.5309L50.5723 27.9534C50.1398 29.2159 49.5773 30.4259 48.8923 31.5683L45.6824 28.3608C44.3949 27.1283 42.3649 27.1283 41.0749 28.3608C40.4624 28.9708 40.1199 29.8008 40.1199 30.6659C40.1199 31.5309 40.4624 32.3583 41.0749 32.9684L43.9748 35.8683C44.2098 36.1108 44.4248 36.3708 44.6148 36.6509C41.3498 39.4084 37.2725 41.0207 33.0024 41.2408ZM47.4024 38.0883C47.2874 37.5608 47.1099 37.0483 46.8724 36.5633C46.8549 36.5208 46.8349 36.4808 46.8149 36.4408C46.4499 35.7058 45.9699 35.0358 45.3924 34.4558L42.4924 31.5532C42.0024 31.0607 42.0024 30.2658 42.4924 29.7758C42.9824 29.2833 43.7799 29.2833 44.2699 29.7733L49.2199 34.7208L49.8974 33.7183C50.7849 32.4108 51.5299 31.0133 52.1199 29.5458C56.0924 30.9833 56.6599 31.7208 56.7149 31.8058C57.3599 32.8158 58.1224 38.0783 58.5074 41.8057L52.2724 46.3582C50.9624 45.4283 48.4125 43.0457 47.4049 38.0882L47.4024 38.0883ZM61.4823 45.2185L54.3476 50.4284C54.1201 50.5959 53.8402 50.6809 53.5576 50.6684C53.1226 50.6534 52.7276 50.4134 52.5126 50.0334C52.3001 49.6559 52.3001 49.1934 52.5126 48.8135L52.7726 48.936L59.9649 43.2185L60.0074 43.1885C60.2174 43.031 60.4749 42.946 60.7374 42.946C60.8024 42.946 60.8674 42.951 60.9299 42.9585C61.4349 43.036 61.8424 43.411 61.9624 43.906C62.0824 44.401 61.8924 44.921 61.4824 45.221L61.4823 45.2185ZM27.7077 39.4735L29.6503 32.1135L22.2852 30.171C22.4702 27.566 20.7777 25.1985 18.2552 24.5285C15.7277 23.861 13.0852 25.0885 11.9627 27.4485L7.76273 26.341L7.50773 27.3085H7.50523C6.36777 31.5884 6.58524 36.1161 8.12773 40.2684C6.79027 40.9084 5.97523 41.4784 5.60525 42.0609C4.60775 43.6209 3.87776 49.5233 3.57524 52.3009H3.57774C3.30774 52.2709 3.03524 52.2734 2.76776 52.3109C1.46274 52.5084 0.407766 53.4759 0.0927595 54.7584C-0.219739 56.0409 0.272759 57.3859 1.33775 58.1633L8.47244 63.3708C9.02994 63.7783 9.70245 63.9958 10.3924 63.9983H10.5249C11.6749 63.9533 12.7149 63.3033 13.2599 62.2933C13.8049 61.2808 13.7774 60.0558 13.1849 59.0708C15.3074 57.3282 16.8924 55.0233 17.7574 52.4161L17.9999 51.7661L17.9974 51.7686C19.5474 52.6236 21.1973 53.2861 22.9074 53.7386L23.8773 53.9936L24.9849 49.7936C27.5898 49.9836 29.9623 48.2886 30.6273 45.7636C31.2948 43.2361 30.0677 40.5935 27.7077 39.4735ZM11.4204 61.4811C11.1904 61.7936 10.8329 61.9836 10.448 61.9986C10.1655 62.0186 9.88297 61.9311 9.65796 61.7586L2.5207 56.5511C2.10821 56.2511 1.9182 55.7311 2.04071 55.2336C2.16071 54.7386 2.5707 54.3661 3.07571 54.2886C3.13821 54.2786 3.20321 54.2736 3.26821 54.2736C3.53321 54.2736 3.79071 54.3611 4.00318 54.5186L4.05068 54.5536L11.2481 60.2736L11.4981 60.151C11.7306 60.571 11.7004 61.0886 11.4204 61.4811ZM15.923 51.6334C15.1429 54.0159 13.6805 56.1159 11.7155 57.6734L5.50303 53.1384C5.88303 49.4085 6.64555 44.1484 7.29304 43.1359C7.32054 43.0934 7.56804 42.7509 8.9105 42.1009V42.1034C9.97802 44.2959 11.403 46.2984 13.1255 48.0234L14.2204 49.1359L16.8055 42.2834V42.2809C16.913 41.9784 17.1354 41.7285 17.4229 41.5885C17.7129 41.451 18.0479 41.431 18.3504 41.536C18.6554 41.6435 18.9054 41.866 19.0429 42.156C19.1829 42.4435 19.2029 42.771 19.0979 43.0735L15.923 51.6334ZM28.6954 45.2534C28.2104 47.0834 26.3354 48.1759 24.5029 47.6934L23.5354 47.4384L22.4579 51.5259H22.4604C21.1554 51.1009 19.8979 50.5384 18.7129 49.8509L20.9854 43.7484H20.9829C21.5254 42.0909 20.6454 40.3059 19.0029 39.7234C17.3604 39.1384 15.5504 39.9734 14.9279 41.6009L13.4754 45.4533H13.4729C12.173 43.9383 11.1129 42.2334 10.333 40.3959L10.213 40.1109C8.75799 36.5234 8.41047 32.5832 9.21296 28.7983L13.3029 29.8758L13.5579 28.9083C14.0404 27.0783 15.9154 25.9858 17.7479 26.4683C19.5779 26.9508 20.6729 28.8258 20.1879 30.6558L19.9329 31.6233L27.2052 33.5433L25.2852 40.8156L26.2527 41.0706V41.0731C28.0777 41.5581 29.1679 43.426 28.6954 45.2534Z" fill="#021827"/>
</svg>
