<svg width="54" height="54" viewBox="0 0 54 54" fill="none" xmlns="http://www.w3.org/2000/svg">
<path d="M15.0588 5.72463L15.0588 5.72437C15.0542 3.0367 12.8679 0.85 10.1842 0.85C7.49616 0.85 5.30955 3.03661 5.30955 5.72463C5.30955 8.41265 7.49616 10.5993 10.1842 10.5993C11.1459 10.5993 12.037 10.3179 12.7959 9.83878L19.535 17.7525C17.2839 19.9103 15.867 22.9371 15.867 26.2922C15.867 26.7715 15.9037 27.2389 15.962 27.6953L10.3563 28.6978C9.7155 26.7526 7.88294 25.3452 5.72463 25.3452C3.0367 25.3452 0.85 27.5317 0.85 30.2154C0.85 32.9034 3.03661 35.09 5.72463 35.09C8.41265 35.09 10.5993 32.9034 10.5993 30.2154C10.5993 30.1564 10.5957 30.0961 10.5915 30.0389L16.1946 29.037C17.2994 33.6637 21.12 37.2322 25.8659 37.9728L25.3341 43.4091C22.7427 43.5195 20.6687 45.655 20.6687 48.2754C20.6687 50.9634 22.8553 53.15 25.5434 53.15C28.2314 53.15 30.418 50.9634 30.418 48.2754C30.418 45.9819 28.827 44.0616 26.6946 43.5401L27.2262 38.1062C27.2418 38.1073 27.2576 38.1085 27.2734 38.1096C27.4133 38.1197 27.5609 38.1303 27.7069 38.1303C31.8177 38.1303 35.4436 36.0183 37.5654 32.8234L43.7637 36.4445C43.5286 37.0135 43.402 37.6359 43.402 38.2871C43.402 40.9752 45.5886 43.1618 48.2766 43.1618C50.9647 43.1618 53.1513 40.9752 53.1513 38.2871V38.2869C53.1467 35.597 50.9609 33.4104 48.2727 33.4104C46.7236 33.4104 45.342 34.1392 44.4521 35.2695L38.2477 31.6548C39.0719 30.0429 39.5389 28.2272 39.5389 26.2991C39.5389 23.2819 38.3928 20.5313 36.5269 18.4359L45.3469 9.61595C46.1628 10.2314 47.1769 10.5996 48.2728 10.5996C50.9609 10.5996 53.1475 8.41299 53.1475 5.72497C53.1475 3.03695 50.9609 0.850339 48.2728 0.850339C45.5848 0.850339 43.3982 3.03695 43.3982 5.72497C43.3982 6.82541 43.7686 7.83553 44.382 8.65081L35.5681 17.4663C33.4751 15.6004 30.7242 14.4543 27.7049 14.4543C25.0257 14.4543 22.5554 15.3587 20.5712 16.8688L13.8261 8.94925C14.588 8.09256 15.0588 6.95952 15.0588 5.72463ZM6.67176 5.72491C6.67176 3.78987 8.24941 2.21221 10.1845 2.21221C12.1195 2.21221 13.6972 3.78987 13.6972 5.72491C13.6972 7.65996 12.1195 9.23761 10.1845 9.23761C8.24941 9.23761 6.67176 7.65996 6.67176 5.72491ZM5.72473 33.728C3.78968 33.728 2.21203 32.1504 2.21203 30.2153C2.21203 28.2803 3.78968 26.7026 5.72473 26.7026C7.65978 26.7026 9.23743 28.2803 9.23743 30.2153C9.23743 32.1547 7.6599 33.728 5.72473 33.728ZM29.0521 48.2728C29.0521 50.2078 27.4744 51.7855 25.5394 51.7855C23.6043 51.7855 22.0267 50.2078 22.0267 48.2728C22.0267 46.3377 23.6043 44.7601 25.5394 44.7601C27.4744 44.7601 29.0521 46.3377 29.0521 48.2728ZM48.2726 2.21193C50.2077 2.21193 51.7853 3.78958 51.7853 5.72463C51.7853 7.65968 50.2077 9.23733 48.2726 9.23733C46.3376 9.23733 44.7599 7.65968 44.7599 5.72463C44.7599 3.78529 46.3375 2.21193 48.2726 2.21193ZM27.7049 36.7727C21.9262 36.7727 17.2288 32.0689 17.2288 26.2966C17.2288 20.5246 21.9261 15.8205 27.7049 15.8205C33.4837 15.8205 38.181 20.5243 38.181 26.2966C38.181 32.0708 33.4837 36.7727 27.7049 36.7727ZM48.2726 41.7932C46.3376 41.7932 44.7599 40.2155 44.7599 38.2804C44.7599 36.3454 46.3376 34.7678 48.2726 34.7678C50.2077 34.7678 51.7853 36.3454 51.7853 38.2804C51.7853 40.2199 50.2121 41.7932 48.2726 41.7932Z" fill="#021827" stroke="#021827" stroke-width="0.3"/>
</svg>
