<svg width="64" height="64" viewBox="0 0 64 64" fill="none" xmlns="http://www.w3.org/2000/svg">
<path d="M17.8336 6.63321V6.63279C17.8281 3.38911 15.1896 0.75 11.9504 0.75C8.70612 0.75 6.06715 3.38897 6.06715 6.63321C6.06715 9.87745 8.70612 12.5164 11.9504 12.5164C13.0892 12.5164 14.1458 12.1895 15.05 11.6314L23.0019 20.9693C20.3327 23.5516 18.6548 27.1593 18.6548 31.1561C18.6548 31.7077 18.6954 32.2456 18.7603 32.7709L12.2035 33.9434C11.4129 31.6263 9.21654 29.9558 6.63321 29.9558C3.38912 29.9558 0.75 32.5946 0.75 35.8337C0.75 39.078 3.38897 41.7169 6.63321 41.7169C9.87745 41.7169 12.5164 39.078 12.5164 35.8337C12.5164 35.7835 12.5143 35.7321 12.5113 35.6821L19.0631 34.5105C20.4021 40.0016 24.9362 44.2361 30.5705 45.1428L29.9489 51.4965C26.8502 51.6608 24.38 54.2249 24.38 57.3668C24.38 60.611 27.019 63.25 30.2632 63.25C33.5075 63.25 36.1465 60.611 36.1465 57.3668C36.1465 54.62 34.2558 52.3171 31.7126 51.6667L32.3337 45.318C32.4972 45.3297 32.6719 45.3419 32.8429 45.3419C37.7451 45.3419 42.0717 42.8354 44.6192 39.0386L51.8983 43.291C51.6294 43.9625 51.4851 44.6938 51.4851 45.4577C51.4851 48.702 54.1241 51.341 57.3683 51.341C60.6125 51.341 63.2515 48.702 63.2515 45.4577V45.4573C63.246 42.211 60.6081 39.572 57.3636 39.572C55.5161 39.572 53.866 40.431 52.7909 41.7674L45.5047 37.5223C46.4733 35.6057 47.0214 33.4509 47.0214 31.1643C47.0214 27.5725 45.666 24.2962 43.4567 21.7919L53.8819 11.3667C54.8578 12.0871 56.063 12.5168 57.3638 12.5168C60.608 12.5168 63.247 9.87786 63.247 6.63362C63.247 3.38937 60.608 0.750404 57.3638 0.750404C54.1195 0.750404 51.4806 3.38937 51.4806 6.63362C51.4806 7.93977 51.9129 9.14036 52.6309 10.1153L42.2129 20.5352C39.7113 18.3259 36.4347 16.9706 32.8405 16.9706C29.6539 16.9706 26.7138 18.0382 24.3455 19.8232L16.3868 10.4787C17.2821 9.4506 17.8336 8.10168 17.8336 6.63321ZM7.83364 6.63355C7.83364 4.36567 9.68282 2.51649 11.9507 2.51649C14.2186 2.51649 16.0678 4.36567 16.0678 6.63355C16.0678 8.90142 14.2186 10.7506 11.9507 10.7506C9.68282 10.7506 7.83364 8.90142 7.83364 6.63355ZM6.63333 39.9507C4.36546 39.9507 2.51627 38.1015 2.51627 35.8337C2.51627 33.5658 4.36546 31.7166 6.63333 31.7166C8.90121 31.7166 10.7504 33.5658 10.7504 35.8337C10.7504 38.1066 8.9014 39.9507 6.63333 39.9507ZM34.3755 57.3637C34.3755 59.6316 32.5263 61.4808 30.2585 61.4808C27.9906 61.4808 26.1414 59.6316 26.1414 57.3637C26.1414 55.0958 27.9906 53.2467 30.2585 53.2467C32.5263 53.2467 34.3755 55.0958 34.3755 57.3637ZM57.3635 2.51615C59.6314 2.51615 61.4806 4.36534 61.4806 6.63321C61.4806 8.90108 59.6314 10.7503 57.3635 10.7503C55.0956 10.7503 53.2464 8.90108 53.2464 6.63321C53.2464 4.36028 55.0954 2.51615 57.3635 2.51615ZM32.8404 43.5809C25.9898 43.5809 20.4209 38.0045 20.4209 31.1613C20.4209 24.3186 25.9896 18.7418 32.8404 18.7418C39.6912 18.7418 45.26 24.3182 45.26 31.1613C45.26 38.0067 39.6913 43.5809 32.8404 43.5809ZM57.3635 49.5668C55.0956 49.5668 53.2464 47.7176 53.2464 45.4498C53.2464 43.1819 55.0956 41.3327 57.3635 41.3327C59.6314 41.3327 61.4806 43.1819 61.4806 45.4498C61.4806 47.7229 59.6367 49.5668 57.3635 49.5668Z" fill="#021827" stroke="#021827" stroke-width="0.5"/>
</svg>
