<svg width="62" height="62" viewBox="0 0 62 62" fill="none" xmlns="http://www.w3.org/2000/svg">
<path d="M42.1098 50.601L42.1099 50.6039H6.17287C4.48974 50.6039 3.11858 49.2356 3.11858 47.5497V6.1728C3.11858 4.48967 4.4869 3.11851 6.17287 3.11851H47.5497C49.2329 3.11851 50.604 4.48683 50.604 6.1728V27.0269C50.604 27.6277 51.089 28.1126 51.6897 28.1126C52.2905 28.1126 52.7754 27.6277 52.7754 27.0269V6.1728C52.7754 3.29405 50.4314 0.95 47.5526 0.95H6.1728C3.29405 0.95 0.95 3.29405 0.95 6.1728V47.5497C0.95 50.4284 3.29405 52.7725 6.1728 52.7725H42.1611C42.7619 52.7725 43.2468 52.2875 43.2468 51.6867C43.2468 51.086 42.7618 50.601 42.1611 50.601H42.1098Z" fill="#021827" stroke="#021827" stroke-width="0.1"/>
<path d="M8.24085 7.25593C8.8416 7.25593 9.32655 6.77096 9.32655 6.17023C9.32655 5.56949 8.84158 5.08452 8.24085 5.08452H7.20514C6.60439 5.08452 6.11943 5.56949 6.11943 6.17023C6.11943 6.77096 6.6044 7.25593 7.20514 7.25593H8.24085Z" fill="#021827" stroke="#021827" stroke-width="0.1"/>
<path d="M13.4132 7.25593C14.014 7.25593 14.4989 6.77096 14.4989 6.17023C14.4989 5.56949 14.0139 5.08452 13.4132 5.08452H12.3775C11.7767 5.08452 11.2918 5.56949 11.2918 6.17023C11.2918 6.77096 11.7768 7.25593 12.3775 7.25593H13.4132Z" fill="#021827" stroke="#021827" stroke-width="0.1"/>
<path d="M18.587 7.25593C19.1878 7.25593 19.6727 6.77096 19.6727 6.17023C19.6727 5.56949 19.1878 5.08452 18.587 5.08452H17.5513C16.9506 5.08452 16.4656 5.56949 16.4656 6.17023C16.4656 6.77096 16.9506 7.25593 17.5513 7.25593H18.587Z" fill="#021827" stroke="#021827" stroke-width="0.1"/>
<path d="M57.2372 31.795L57.2382 31.7936C54.8185 29.6282 51.5663 28.5969 48.314 28.9533L48.314 28.9533C43.2583 29.5144 39.0536 33.5641 38.3144 38.5849L38.3144 38.5849C37.7096 42.7075 39.2876 46.6997 42.5339 49.2677L42.534 49.2678C43.723 50.2051 44.572 51.361 45.0108 52.686L45.0108 52.6861C45.4395 53.975 46.6427 54.8412 48.0025 54.8412H51.226C52.5867 54.8412 53.7864 53.9742 54.2439 52.6018C54.6683 51.3316 55.4826 50.205 56.6011 49.3379C59.4237 47.1552 61.0398 43.8647 61.0398 40.3088C61.0398 37.0645 59.6536 33.9632 57.2372 31.795ZM55.2337 47.6549L55.2366 47.658C53.7995 48.7826 52.7442 50.2539 52.1649 52.0003C52.0291 52.4019 51.6553 52.673 51.229 52.673H48.0055C47.584 52.673 47.206 52.4038 47.0463 51.9246C46.4959 50.2706 45.4015 48.7644 43.879 47.5663C41.2456 45.4856 39.9695 42.245 40.4586 38.9024C41.0575 34.8432 44.4608 31.5643 48.5522 31.1097L48.5523 31.1097C48.9142 31.0691 49.2702 31.0489 49.6261 31.0489C51.9121 31.0489 54.0677 31.8677 55.7896 33.4072C57.7515 35.1637 58.8743 37.6784 58.8743 40.3088C58.8743 43.188 57.5637 45.8529 55.2774 47.6211L55.2337 47.6549Z" fill="#021827" stroke="#021827" stroke-width="0.1"/>
<path d="M51.686 55.7774H47.5489C46.9481 55.7774 46.4632 56.2624 46.4632 56.8631C46.4632 57.4638 46.9481 57.9488 47.5489 57.9488H51.686C52.2867 57.9488 52.7717 57.4638 52.7717 56.8631C52.7717 56.2624 52.2867 55.7774 51.686 55.7774Z" fill="#021827" stroke="#021827" stroke-width="0.1"/>
<path d="M51.686 40.2588H47.5489C46.9481 40.2588 46.4632 40.7438 46.4632 41.3445C46.4632 41.9453 46.9481 42.4302 47.5489 42.4302H51.686C52.2867 42.4302 52.7717 41.9453 52.7717 41.3445C52.7717 40.7438 52.2867 40.2588 51.686 40.2588Z" fill="#021827" stroke="#021827" stroke-width="0.1"/>
<path d="M50.653 43.3631H48.5845C47.9838 43.3631 47.4988 43.8481 47.4988 44.4488C47.4988 45.0495 47.9838 45.5345 48.5845 45.5345H50.653C51.2538 45.5345 51.7388 45.0495 51.7388 44.4488C51.7388 43.8481 51.2538 43.3631 50.653 43.3631Z" fill="#021827" stroke="#021827" stroke-width="0.1"/>
<path d="M50.653 58.8787H48.5845C47.9838 58.8787 47.4988 59.3637 47.4988 59.9644C47.4988 60.5652 47.9838 61.0501 48.5845 61.0501H50.653C51.2538 61.0501 51.7388 60.5652 51.7388 59.9644C51.7388 59.3637 51.2538 58.8787 50.653 58.8787Z" fill="#021827" stroke="#021827" stroke-width="0.1"/>
<path d="M32.0834 26.8617V14.4476C32.0834 12.7093 30.6704 11.2933 28.9291 11.2933H10.3094C8.57107 11.2933 7.15508 12.7063 7.15508 14.4476V26.8617C7.15508 28.6 8.56811 30.016 10.3094 30.016H28.9291C30.6674 30.016 32.0834 28.603 32.0834 26.8617ZM9.32634 26.8617V14.4476C9.32634 13.9048 9.76663 13.4618 10.312 13.4618H28.9318C29.4745 13.4618 29.9175 13.9021 29.9175 14.4476V26.8617C29.9175 27.4044 29.4772 27.8474 28.9318 27.8474H10.312C9.76934 27.8474 9.32634 27.4071 9.32634 26.8617Z" fill="#021827" stroke="#021827" stroke-width="0.1"/>
<path d="M22.5672 18.1524C23.3475 18.7446 23.8095 19.6799 23.8095 20.6589C23.8095 21.6465 23.3366 22.5893 22.5472 23.1806L19.6524 25.3539L19.6523 25.354C19.1958 25.6949 18.6354 25.8818 18.0689 25.8818C16.6156 25.8818 15.4324 24.6985 15.4324 23.2453V18.0725C15.4324 16.6193 16.6156 15.4361 18.0689 15.4361C18.6352 15.4361 19.1956 15.6199 19.6495 15.961L22.5672 18.1524ZM22.5672 18.1524V18.1493L22.5472 18.1343L19.6496 15.9611L22.5672 18.1524ZM21.2451 21.4393L21.2247 21.4544L21.2248 21.4574L18.3502 23.6155C18.3502 23.6155 18.3502 23.6155 18.3501 23.6155C18.2084 23.7211 18.022 23.7192 17.8679 23.6421C17.7136 23.565 17.6009 23.4173 17.6009 23.2424V18.0696C17.6009 17.8121 17.8113 17.6018 18.0688 17.6018C18.168 17.6018 18.2683 17.6358 18.3506 17.694L21.2448 19.8668C21.2448 19.8669 21.2448 19.8669 21.2448 19.8669C21.4913 20.0524 21.638 20.346 21.638 20.6532C21.638 20.9605 21.4911 21.2568 21.2451 21.4393Z" fill="#021827" stroke="#021827" stroke-width="0.1"/>
<path d="M45.4805 13.3646H37.2066C36.6058 13.3646 36.1209 13.8495 36.1209 14.4503C36.1209 15.051 36.6059 15.536 37.2066 15.536H45.4805C46.0812 15.536 46.5662 15.051 46.5662 14.4503C46.5662 13.8495 46.0812 13.3646 45.4805 13.3646Z" fill="#021827" stroke="#021827" stroke-width="0.1"/>
<path d="M45.4805 16.4656H37.2066C36.6058 16.4656 36.1209 16.9506 36.1209 17.5513C36.1209 18.1521 36.6059 18.637 37.2066 18.637H45.4805C46.0812 18.637 46.5662 18.1521 46.5662 17.5513C46.5662 16.9506 46.0812 16.4656 45.4805 16.4656Z" fill="#021827" stroke="#021827" stroke-width="0.1"/>
<path d="M45.4805 21.639H37.2066C36.6058 21.639 36.1209 22.1239 36.1209 22.7247C36.1209 23.3254 36.6059 23.8104 37.2066 23.8104H45.4805C46.0812 23.8104 46.5662 23.3254 46.5662 22.7247C46.5662 22.1239 46.0812 21.639 45.4805 21.639Z" fill="#021827" stroke="#021827" stroke-width="0.1"/>
<path d="M45.4805 24.7432H37.2066C36.6058 24.7432 36.1209 25.2282 36.1209 25.8289C36.1209 26.4297 36.6059 26.9146 37.2066 26.9146H45.4805C46.0812 26.9146 46.5662 26.4297 46.5662 25.8289C46.5662 25.2282 46.0812 24.7432 45.4805 24.7432Z" fill="#021827" stroke="#021827" stroke-width="0.1"/>
<path d="M16.5147 33.0174H10.3091C9.70839 33.0174 9.22344 33.5023 9.22344 34.1031C9.22344 34.7038 9.70841 35.1888 10.3091 35.1888H16.5147C17.1155 35.1888 17.6004 34.7038 17.6004 34.1031C17.6004 33.5023 17.1155 33.0174 16.5147 33.0174Z" fill="#021827" stroke="#021827" stroke-width="0.1"/>
<path d="M16.5147 36.1216H10.3091C9.70839 36.1216 9.22344 36.6066 9.22344 37.2073C9.22344 37.8081 9.70841 38.293 10.3091 38.293H16.5147C17.1155 38.293 17.6004 37.8081 17.6004 37.2073C17.6004 36.6066 17.1155 36.1216 16.5147 36.1216Z" fill="#021827" stroke="#021827" stroke-width="0.1"/>
<path d="M21.6882 33.0174H19.6197C19.0189 33.0174 18.534 33.5024 18.534 34.1031C18.534 34.7038 19.019 35.1888 19.6197 35.1888H21.6882C22.289 35.1888 22.7739 34.7038 22.7739 34.1031C22.7739 33.5023 22.2889 33.0174 21.6882 33.0174Z" fill="#021827" stroke="#021827" stroke-width="0.1"/>
<path d="M19.6192 38.2899H20.6549C21.2557 38.2899 21.7406 37.8049 21.7406 37.2042C21.7406 36.6034 21.2556 36.1185 20.6549 36.1185H19.6192C19.0185 36.1185 18.5335 36.6034 18.5335 37.2042C18.5335 37.8049 19.0185 38.2899 19.6192 38.2899Z" fill="#021827" stroke="#021827" stroke-width="0.1"/>
<path d="M16.5147 41.2942H10.3091C9.70839 41.2942 9.22344 41.7792 9.22344 42.3799C9.22344 42.9807 9.70841 43.4656 10.3091 43.4656H16.5147C17.1155 43.4656 17.6004 42.9807 17.6004 42.3799C17.6004 41.7792 17.1155 41.2942 16.5147 41.2942Z" fill="#021827" stroke="#021827" stroke-width="0.1"/>
<path d="M16.5147 44.3953H10.3091C9.70839 44.3953 9.22344 44.8803 9.22344 45.481C9.22344 46.0818 9.70841 46.5667 10.3091 46.5667H16.5147C17.1155 46.5667 17.6004 46.0818 17.6004 45.481C17.6004 44.8803 17.1155 44.3953 16.5147 44.3953Z" fill="#021827" stroke="#021827" stroke-width="0.1"/>
<path d="M22.7734 42.3773C22.7734 41.7765 22.2884 41.2916 21.6877 41.2916H19.6192C19.0184 41.2916 18.5335 41.7765 18.5335 42.3773C18.5335 42.978 19.0185 43.463 19.6192 43.463H21.6877C22.2885 43.463 22.7734 42.978 22.7734 42.3773Z" fill="#021827" stroke="#021827" stroke-width="0.1"/>
<path d="M19.6192 44.3953C19.0185 44.3953 18.5335 44.8803 18.5335 45.481C18.5335 46.0818 19.0185 46.5667 19.6192 46.5667H20.6549C21.2557 46.5667 21.7406 46.0818 21.7406 45.481C21.7406 44.8803 21.2556 44.3953 20.6549 44.3953H19.6192Z" fill="#021827" stroke="#021827" stroke-width="0.1"/>
</svg>
