<svg width="54" height="54" viewBox="0 0 54 54" fill="none" xmlns="http://www.w3.org/2000/svg">
<mask id="path-1-outside-1_264_1414" maskUnits="userSpaceOnUse" x="0" y="0" width="54" height="54" fill="black">
<rect fill="white" width="54" height="54"/>
<path d="M18.859 11.1122C18.859 10.7593 19.1457 10.4726 19.4986 10.4726H23.9371C24.29 10.4726 24.5767 10.7593 24.5767 11.1122C24.5767 11.4651 24.29 11.7518 23.9371 11.7518H19.4931C19.1457 11.7463 18.859 11.4595 18.859 11.1122ZM39.3811 6.42551V3.88368C39.3811 3.5308 39.6678 3.24409 40.0207 3.24409H42.568C42.9209 3.24409 43.2076 3.5308 43.2076 3.88368V6.43102C43.2076 6.7839 42.9209 7.07062 42.568 7.07062H40.0207C39.6678 7.0651 39.3811 6.77839 39.3811 6.42551ZM40.6548 5.79143H41.9229V4.52327H40.6548V5.79143ZM43.7645 6.42551V3.88368C43.7645 3.5308 44.0512 3.24409 44.4041 3.24409H46.9514C47.3043 3.24409 47.591 3.5308 47.591 3.88368V6.43102C47.591 6.7839 47.3043 7.07062 46.9514 7.07062H44.4041C44.0512 7.0651 43.7645 6.77839 43.7645 6.42551ZM45.0437 5.79143H46.3118V4.52327H45.0437V5.79143ZM39.3811 11.4375V8.89015C39.3811 8.53727 39.6678 8.25056 40.0207 8.25056H42.568C42.9209 8.25056 43.2076 8.53727 43.2076 8.89015V11.4375C43.2076 11.7904 42.9209 12.0771 42.568 12.0771H40.0207C39.6678 12.0771 39.3811 11.7904 39.3811 11.4375ZM40.6548 10.7979H41.9229V9.52974H40.6548V10.7979ZM43.7645 11.4375V8.89015C43.7645 8.53727 44.0512 8.25056 44.4041 8.25056H46.9514C47.3043 8.25056 47.591 8.53727 47.591 8.89015V11.4375C47.591 11.7904 47.3043 12.0771 46.9514 12.0771H44.4041C44.0512 12.0771 43.7645 11.7904 43.7645 11.4375ZM45.0437 10.7979H46.3118V9.52974H45.0437V10.7979ZM39.3811 16.4495V13.9021C39.3811 13.5493 39.6678 13.2625 40.0207 13.2625H42.568C42.9209 13.2625 43.2076 13.5493 43.2076 13.9021V16.4495C43.2076 16.8024 42.9209 17.0891 42.568 17.0891H40.0207C39.6678 17.0891 39.3811 16.8024 39.3811 16.4495ZM40.6548 15.8099H41.9229V14.5417H40.6548V15.8099ZM43.7645 16.4495V13.9021C43.7645 13.5493 44.0512 13.2625 44.4041 13.2625H46.9514C47.3043 13.2625 47.591 13.5493 47.591 13.9021V16.4495C47.591 16.8024 47.3043 17.0891 46.9514 17.0891H44.4041C44.0512 17.0891 43.7645 16.8024 43.7645 16.4495ZM45.0437 15.8099H46.3118V14.5417H45.0437V15.8099ZM39.3811 21.4615V18.9141C39.3811 18.5612 39.6678 18.2745 40.0207 18.2745H42.568C42.9209 18.2745 43.2076 18.5612 43.2076 18.9141V21.4615C43.2076 21.8143 42.9209 22.101 42.568 22.101H40.0207C39.6678 22.101 39.3811 21.8143 39.3811 21.4615ZM40.6548 20.8219H41.9229V19.5537H40.6548V20.8219ZM43.7645 21.4615V18.9141C43.7645 18.5612 44.0512 18.2745 44.4041 18.2745H46.9514C47.3043 18.2745 47.591 18.5612 47.591 18.9141V21.4615C47.591 21.8143 47.3043 22.101 46.9514 22.101H44.4041C44.0512 22.101 43.7645 21.8143 43.7645 21.4615ZM45.0437 20.8219H46.3118V19.5537H45.0437V20.8219ZM53.3143 28.4253C53.3143 30.1952 51.8752 31.6343 50.1053 31.6343H49.5649V34.2257C49.5649 34.7661 49.1404 35.2017 48.6 35.2182L44.8342 35.334C44.4206 36.8778 43.8086 38.3555 43.0091 39.7395L45.5895 42.4853C45.959 42.8768 45.9479 43.4888 45.5675 43.8693L40.4342 49.0025C40.0538 49.383 39.4472 49.394 39.0503 49.0246L36.3044 46.4442C34.9205 47.2437 33.4373 47.8612 31.8934 48.2692L31.7832 52.0351C31.7666 52.5754 31.331 53 30.7907 53H23.5291C22.9888 53 22.5532 52.5754 22.5366 52.0351L22.4264 48.2692C20.8825 47.8557 19.3993 47.2437 18.0154 46.4387L15.275 49.0191C14.8836 49.3885 14.2716 49.383 13.8911 48.997L8.75782 43.8637C8.37737 43.4833 8.36634 42.8713 8.73576 42.4798L11.3162 39.7395C10.5167 38.3555 9.89916 36.8723 9.48563 35.3285L5.71975 35.2182C5.17941 35.2017 4.75485 34.7661 4.75485 34.2257V31.6343H4.20899C2.43908 31.6343 1 30.1952 1 28.4253C1 26.6554 2.43908 25.2163 4.20899 25.2163H4.74934V17.7728C4.74934 17.4199 5.03605 17.1332 5.38893 17.1332H15.6334V9.12724C15.6334 8.97837 15.6886 8.8295 15.7823 8.71371L21.2244 2.26816C21.3457 2.1248 21.5221 2.0421 21.7096 2.0421C21.897 2.0421 22.0735 2.1248 22.1948 2.26816L27.6368 8.71371C27.7361 8.8295 27.7857 8.97286 27.7857 9.12724V12.8214H37.3961V1.63959C37.3961 1.28671 37.6829 1 38.0357 1H48.9198C49.2727 1 49.5594 1.28671 49.5594 1.63959V25.2218H50.0998C51.8752 25.2163 53.3143 26.6609 53.3143 28.4253ZM38.6808 2.27367V25.2163H48.2913V2.27367H38.6808ZM27.7967 14.0951V25.2218H37.4072V14.0951H27.7967ZM16.9126 9.35882V25.2163H26.5231V9.35882L21.7151 3.66865L16.9126 9.35882ZM6.02852 25.2163H15.6334V18.4124H6.02852V25.2163ZM48.2858 31.6398H40.7485C40.5004 34.9591 39.0613 38.0412 36.6573 40.3791C34.0989 42.8658 30.7245 44.2332 27.1571 44.2332C23.5898 44.2332 20.2154 42.8658 17.657 40.3791C15.253 38.0412 13.8139 34.9591 13.5658 31.6398H6.02852V33.9556L9.72824 34.0658C10.1748 34.0769 10.5498 34.3801 10.6601 34.8157C11.057 36.3871 11.6801 37.8869 12.5127 39.2818C12.7387 39.6678 12.6891 40.142 12.3803 40.4728L9.83851 43.169L14.5858 47.9163L17.282 45.3745C17.6074 45.0657 18.0871 45.0161 18.473 45.2422C19.868 46.0692 21.3677 46.6923 22.9391 47.0948C23.3747 47.2051 23.6725 47.58 23.689 48.0266L23.7993 51.7263H30.5095L30.6198 48.0266C30.6308 47.58 30.934 47.2051 31.3696 47.0948C32.9355 46.6978 34.4408 46.0748 35.8357 45.2477C36.2217 45.0216 36.6959 45.0713 37.0212 45.38L39.7229 47.9219L44.4703 43.1745L41.9284 40.4728C41.6197 40.1475 41.57 39.6678 41.7961 39.2874C42.6232 37.8979 43.2462 36.3926 43.6432 34.8267C43.7535 34.3912 44.1284 34.0934 44.575 34.0769L48.2802 33.9611V31.6398H48.2858ZM27.1571 42.954C33.6578 42.954 38.9455 38.0357 39.4693 31.6343H14.845C15.3688 38.0357 20.6564 42.954 27.1571 42.954ZM52.0406 28.4253C52.0406 27.3612 51.175 26.49 50.1053 26.49H4.20899C3.14484 26.49 2.27367 27.3556 2.27367 28.4253C2.27367 29.4895 3.13933 30.3606 4.20899 30.3606H50.1053C51.175 30.3606 52.0406 29.495 52.0406 28.4253ZM19.4931 15.639H23.9316C24.2845 15.639 24.5712 15.3522 24.5712 14.9994C24.5712 14.6465 24.2845 14.3598 23.9316 14.3598H19.4931C19.1402 14.3598 18.8535 14.6465 18.8535 14.9994C18.8535 15.3522 19.1457 15.639 19.4931 15.639ZM19.4931 19.5317H23.9316C24.2845 19.5317 24.5712 19.2449 24.5712 18.8921C24.5712 18.5392 24.2845 18.2525 23.9316 18.2525H19.4931C19.1402 18.2525 18.8535 18.5392 18.8535 18.8921C18.8535 19.2449 19.1457 19.5317 19.4931 19.5317ZM19.4931 23.4243H23.9316C24.2845 23.4243 24.5712 23.1376 24.5712 22.7848C24.5712 22.4319 24.2845 22.1452 23.9316 22.1452H19.4931C19.1402 22.1452 18.8535 22.4319 18.8535 22.7848C18.8535 23.1376 19.1457 23.4243 19.4931 23.4243Z"/>
</mask>
<path d="M18.859 11.1122C18.859 10.7593 19.1457 10.4726 19.4986 10.4726H23.9371C24.29 10.4726 24.5767 10.7593 24.5767 11.1122C24.5767 11.4651 24.29 11.7518 23.9371 11.7518H19.4931C19.1457 11.7463 18.859 11.4595 18.859 11.1122ZM39.3811 6.42551V3.88368C39.3811 3.5308 39.6678 3.24409 40.0207 3.24409H42.568C42.9209 3.24409 43.2076 3.5308 43.2076 3.88368V6.43102C43.2076 6.7839 42.9209 7.07062 42.568 7.07062H40.0207C39.6678 7.0651 39.3811 6.77839 39.3811 6.42551ZM40.6548 5.79143H41.9229V4.52327H40.6548V5.79143ZM43.7645 6.42551V3.88368C43.7645 3.5308 44.0512 3.24409 44.4041 3.24409H46.9514C47.3043 3.24409 47.591 3.5308 47.591 3.88368V6.43102C47.591 6.7839 47.3043 7.07062 46.9514 7.07062H44.4041C44.0512 7.0651 43.7645 6.77839 43.7645 6.42551ZM45.0437 5.79143H46.3118V4.52327H45.0437V5.79143ZM39.3811 11.4375V8.89015C39.3811 8.53727 39.6678 8.25056 40.0207 8.25056H42.568C42.9209 8.25056 43.2076 8.53727 43.2076 8.89015V11.4375C43.2076 11.7904 42.9209 12.0771 42.568 12.0771H40.0207C39.6678 12.0771 39.3811 11.7904 39.3811 11.4375ZM40.6548 10.7979H41.9229V9.52974H40.6548V10.7979ZM43.7645 11.4375V8.89015C43.7645 8.53727 44.0512 8.25056 44.4041 8.25056H46.9514C47.3043 8.25056 47.591 8.53727 47.591 8.89015V11.4375C47.591 11.7904 47.3043 12.0771 46.9514 12.0771H44.4041C44.0512 12.0771 43.7645 11.7904 43.7645 11.4375ZM45.0437 10.7979H46.3118V9.52974H45.0437V10.7979ZM39.3811 16.4495V13.9021C39.3811 13.5493 39.6678 13.2625 40.0207 13.2625H42.568C42.9209 13.2625 43.2076 13.5493 43.2076 13.9021V16.4495C43.2076 16.8024 42.9209 17.0891 42.568 17.0891H40.0207C39.6678 17.0891 39.3811 16.8024 39.3811 16.4495ZM40.6548 15.8099H41.9229V14.5417H40.6548V15.8099ZM43.7645 16.4495V13.9021C43.7645 13.5493 44.0512 13.2625 44.4041 13.2625H46.9514C47.3043 13.2625 47.591 13.5493 47.591 13.9021V16.4495C47.591 16.8024 47.3043 17.0891 46.9514 17.0891H44.4041C44.0512 17.0891 43.7645 16.8024 43.7645 16.4495ZM45.0437 15.8099H46.3118V14.5417H45.0437V15.8099ZM39.3811 21.4615V18.9141C39.3811 18.5612 39.6678 18.2745 40.0207 18.2745H42.568C42.9209 18.2745 43.2076 18.5612 43.2076 18.9141V21.4615C43.2076 21.8143 42.9209 22.101 42.568 22.101H40.0207C39.6678 22.101 39.3811 21.8143 39.3811 21.4615ZM40.6548 20.8219H41.9229V19.5537H40.6548V20.8219ZM43.7645 21.4615V18.9141C43.7645 18.5612 44.0512 18.2745 44.4041 18.2745H46.9514C47.3043 18.2745 47.591 18.5612 47.591 18.9141V21.4615C47.591 21.8143 47.3043 22.101 46.9514 22.101H44.4041C44.0512 22.101 43.7645 21.8143 43.7645 21.4615ZM45.0437 20.8219H46.3118V19.5537H45.0437V20.8219ZM53.3143 28.4253C53.3143 30.1952 51.8752 31.6343 50.1053 31.6343H49.5649V34.2257C49.5649 34.7661 49.1404 35.2017 48.6 35.2182L44.8342 35.334C44.4206 36.8778 43.8086 38.3555 43.0091 39.7395L45.5895 42.4853C45.959 42.8768 45.9479 43.4888 45.5675 43.8693L40.4342 49.0025C40.0538 49.383 39.4472 49.394 39.0503 49.0246L36.3044 46.4442C34.9205 47.2437 33.4373 47.8612 31.8934 48.2692L31.7832 52.0351C31.7666 52.5754 31.331 53 30.7907 53H23.5291C22.9888 53 22.5532 52.5754 22.5366 52.0351L22.4264 48.2692C20.8825 47.8557 19.3993 47.2437 18.0154 46.4387L15.275 49.0191C14.8836 49.3885 14.2716 49.383 13.8911 48.997L8.75782 43.8637C8.37737 43.4833 8.36634 42.8713 8.73576 42.4798L11.3162 39.7395C10.5167 38.3555 9.89916 36.8723 9.48563 35.3285L5.71975 35.2182C5.17941 35.2017 4.75485 34.7661 4.75485 34.2257V31.6343H4.20899C2.43908 31.6343 1 30.1952 1 28.4253C1 26.6554 2.43908 25.2163 4.20899 25.2163H4.74934V17.7728C4.74934 17.4199 5.03605 17.1332 5.38893 17.1332H15.6334V9.12724C15.6334 8.97837 15.6886 8.8295 15.7823 8.71371L21.2244 2.26816C21.3457 2.1248 21.5221 2.0421 21.7096 2.0421C21.897 2.0421 22.0735 2.1248 22.1948 2.26816L27.6368 8.71371C27.7361 8.8295 27.7857 8.97286 27.7857 9.12724V12.8214H37.3961V1.63959C37.3961 1.28671 37.6829 1 38.0357 1H48.9198C49.2727 1 49.5594 1.28671 49.5594 1.63959V25.2218H50.0998C51.8752 25.2163 53.3143 26.6609 53.3143 28.4253ZM38.6808 2.27367V25.2163H48.2913V2.27367H38.6808ZM27.7967 14.0951V25.2218H37.4072V14.0951H27.7967ZM16.9126 9.35882V25.2163H26.5231V9.35882L21.7151 3.66865L16.9126 9.35882ZM6.02852 25.2163H15.6334V18.4124H6.02852V25.2163ZM48.2858 31.6398H40.7485C40.5004 34.9591 39.0613 38.0412 36.6573 40.3791C34.0989 42.8658 30.7245 44.2332 27.1571 44.2332C23.5898 44.2332 20.2154 42.8658 17.657 40.3791C15.253 38.0412 13.8139 34.9591 13.5658 31.6398H6.02852V33.9556L9.72824 34.0658C10.1748 34.0769 10.5498 34.3801 10.6601 34.8157C11.057 36.3871 11.6801 37.8869 12.5127 39.2818C12.7387 39.6678 12.6891 40.142 12.3803 40.4728L9.83851 43.169L14.5858 47.9163L17.282 45.3745C17.6074 45.0657 18.0871 45.0161 18.473 45.2422C19.868 46.0692 21.3677 46.6923 22.9391 47.0948C23.3747 47.2051 23.6725 47.58 23.689 48.0266L23.7993 51.7263H30.5095L30.6198 48.0266C30.6308 47.58 30.934 47.2051 31.3696 47.0948C32.9355 46.6978 34.4408 46.0748 35.8357 45.2477C36.2217 45.0216 36.6959 45.0713 37.0212 45.38L39.7229 47.9219L44.4703 43.1745L41.9284 40.4728C41.6197 40.1475 41.57 39.6678 41.7961 39.2874C42.6232 37.8979 43.2462 36.3926 43.6432 34.8267C43.7535 34.3912 44.1284 34.0934 44.575 34.0769L48.2802 33.9611V31.6398H48.2858ZM27.1571 42.954C33.6578 42.954 38.9455 38.0357 39.4693 31.6343H14.845C15.3688 38.0357 20.6564 42.954 27.1571 42.954ZM52.0406 28.4253C52.0406 27.3612 51.175 26.49 50.1053 26.49H4.20899C3.14484 26.49 2.27367 27.3556 2.27367 28.4253C2.27367 29.4895 3.13933 30.3606 4.20899 30.3606H50.1053C51.175 30.3606 52.0406 29.495 52.0406 28.4253ZM19.4931 15.639H23.9316C24.2845 15.639 24.5712 15.3522 24.5712 14.9994C24.5712 14.6465 24.2845 14.3598 23.9316 14.3598H19.4931C19.1402 14.3598 18.8535 14.6465 18.8535 14.9994C18.8535 15.3522 19.1457 15.639 19.4931 15.639ZM19.4931 19.5317H23.9316C24.2845 19.5317 24.5712 19.2449 24.5712 18.8921C24.5712 18.5392 24.2845 18.2525 23.9316 18.2525H19.4931C19.1402 18.2525 18.8535 18.5392 18.8535 18.8921C18.8535 19.2449 19.1457 19.5317 19.4931 19.5317ZM19.4931 23.4243H23.9316C24.2845 23.4243 24.5712 23.1376 24.5712 22.7848C24.5712 22.4319 24.2845 22.1452 23.9316 22.1452H19.4931C19.1402 22.1452 18.8535 22.4319 18.8535 22.7848C18.8535 23.1376 19.1457 23.4243 19.4931 23.4243Z" fill="#021827"/>
<path d="M18.859 11.1122C18.859 10.7593 19.1457 10.4726 19.4986 10.4726H23.9371C24.29 10.4726 24.5767 10.7593 24.5767 11.1122C24.5767 11.4651 24.29 11.7518 23.9371 11.7518H19.4931C19.1457 11.7463 18.859 11.4595 18.859 11.1122ZM39.3811 6.42551V3.88368C39.3811 3.5308 39.6678 3.24409 40.0207 3.24409H42.568C42.9209 3.24409 43.2076 3.5308 43.2076 3.88368V6.43102C43.2076 6.7839 42.9209 7.07062 42.568 7.07062H40.0207C39.6678 7.0651 39.3811 6.77839 39.3811 6.42551ZM40.6548 5.79143H41.9229V4.52327H40.6548V5.79143ZM43.7645 6.42551V3.88368C43.7645 3.5308 44.0512 3.24409 44.4041 3.24409H46.9514C47.3043 3.24409 47.591 3.5308 47.591 3.88368V6.43102C47.591 6.7839 47.3043 7.07062 46.9514 7.07062H44.4041C44.0512 7.0651 43.7645 6.77839 43.7645 6.42551ZM45.0437 5.79143H46.3118V4.52327H45.0437V5.79143ZM39.3811 11.4375V8.89015C39.3811 8.53727 39.6678 8.25056 40.0207 8.25056H42.568C42.9209 8.25056 43.2076 8.53727 43.2076 8.89015V11.4375C43.2076 11.7904 42.9209 12.0771 42.568 12.0771H40.0207C39.6678 12.0771 39.3811 11.7904 39.3811 11.4375ZM40.6548 10.7979H41.9229V9.52974H40.6548V10.7979ZM43.7645 11.4375V8.89015C43.7645 8.53727 44.0512 8.25056 44.4041 8.25056H46.9514C47.3043 8.25056 47.591 8.53727 47.591 8.89015V11.4375C47.591 11.7904 47.3043 12.0771 46.9514 12.0771H44.4041C44.0512 12.0771 43.7645 11.7904 43.7645 11.4375ZM45.0437 10.7979H46.3118V9.52974H45.0437V10.7979ZM39.3811 16.4495V13.9021C39.3811 13.5493 39.6678 13.2625 40.0207 13.2625H42.568C42.9209 13.2625 43.2076 13.5493 43.2076 13.9021V16.4495C43.2076 16.8024 42.9209 17.0891 42.568 17.0891H40.0207C39.6678 17.0891 39.3811 16.8024 39.3811 16.4495ZM40.6548 15.8099H41.9229V14.5417H40.6548V15.8099ZM43.7645 16.4495V13.9021C43.7645 13.5493 44.0512 13.2625 44.4041 13.2625H46.9514C47.3043 13.2625 47.591 13.5493 47.591 13.9021V16.4495C47.591 16.8024 47.3043 17.0891 46.9514 17.0891H44.4041C44.0512 17.0891 43.7645 16.8024 43.7645 16.4495ZM45.0437 15.8099H46.3118V14.5417H45.0437V15.8099ZM39.3811 21.4615V18.9141C39.3811 18.5612 39.6678 18.2745 40.0207 18.2745H42.568C42.9209 18.2745 43.2076 18.5612 43.2076 18.9141V21.4615C43.2076 21.8143 42.9209 22.101 42.568 22.101H40.0207C39.6678 22.101 39.3811 21.8143 39.3811 21.4615ZM40.6548 20.8219H41.9229V19.5537H40.6548V20.8219ZM43.7645 21.4615V18.9141C43.7645 18.5612 44.0512 18.2745 44.4041 18.2745H46.9514C47.3043 18.2745 47.591 18.5612 47.591 18.9141V21.4615C47.591 21.8143 47.3043 22.101 46.9514 22.101H44.4041C44.0512 22.101 43.7645 21.8143 43.7645 21.4615ZM45.0437 20.8219H46.3118V19.5537H45.0437V20.8219ZM53.3143 28.4253C53.3143 30.1952 51.8752 31.6343 50.1053 31.6343H49.5649V34.2257C49.5649 34.7661 49.1404 35.2017 48.6 35.2182L44.8342 35.334C44.4206 36.8778 43.8086 38.3555 43.0091 39.7395L45.5895 42.4853C45.959 42.8768 45.9479 43.4888 45.5675 43.8693L40.4342 49.0025C40.0538 49.383 39.4472 49.394 39.0503 49.0246L36.3044 46.4442C34.9205 47.2437 33.4373 47.8612 31.8934 48.2692L31.7832 52.0351C31.7666 52.5754 31.331 53 30.7907 53H23.5291C22.9888 53 22.5532 52.5754 22.5366 52.0351L22.4264 48.2692C20.8825 47.8557 19.3993 47.2437 18.0154 46.4387L15.275 49.0191C14.8836 49.3885 14.2716 49.383 13.8911 48.997L8.75782 43.8637C8.37737 43.4833 8.36634 42.8713 8.73576 42.4798L11.3162 39.7395C10.5167 38.3555 9.89916 36.8723 9.48563 35.3285L5.71975 35.2182C5.17941 35.2017 4.75485 34.7661 4.75485 34.2257V31.6343H4.20899C2.43908 31.6343 1 30.1952 1 28.4253C1 26.6554 2.43908 25.2163 4.20899 25.2163H4.74934V17.7728C4.74934 17.4199 5.03605 17.1332 5.38893 17.1332H15.6334V9.12724C15.6334 8.97837 15.6886 8.8295 15.7823 8.71371L21.2244 2.26816C21.3457 2.1248 21.5221 2.0421 21.7096 2.0421C21.897 2.0421 22.0735 2.1248 22.1948 2.26816L27.6368 8.71371C27.7361 8.8295 27.7857 8.97286 27.7857 9.12724V12.8214H37.3961V1.63959C37.3961 1.28671 37.6829 1 38.0357 1H48.9198C49.2727 1 49.5594 1.28671 49.5594 1.63959V25.2218H50.0998C51.8752 25.2163 53.3143 26.6609 53.3143 28.4253ZM38.6808 2.27367V25.2163H48.2913V2.27367H38.6808ZM27.7967 14.0951V25.2218H37.4072V14.0951H27.7967ZM16.9126 9.35882V25.2163H26.5231V9.35882L21.7151 3.66865L16.9126 9.35882ZM6.02852 25.2163H15.6334V18.4124H6.02852V25.2163ZM48.2858 31.6398H40.7485C40.5004 34.9591 39.0613 38.0412 36.6573 40.3791C34.0989 42.8658 30.7245 44.2332 27.1571 44.2332C23.5898 44.2332 20.2154 42.8658 17.657 40.3791C15.253 38.0412 13.8139 34.9591 13.5658 31.6398H6.02852V33.9556L9.72824 34.0658C10.1748 34.0769 10.5498 34.3801 10.6601 34.8157C11.057 36.3871 11.6801 37.8869 12.5127 39.2818C12.7387 39.6678 12.6891 40.142 12.3803 40.4728L9.83851 43.169L14.5858 47.9163L17.282 45.3745C17.6074 45.0657 18.0871 45.0161 18.473 45.2422C19.868 46.0692 21.3677 46.6923 22.9391 47.0948C23.3747 47.2051 23.6725 47.58 23.689 48.0266L23.7993 51.7263H30.5095L30.6198 48.0266C30.6308 47.58 30.934 47.2051 31.3696 47.0948C32.9355 46.6978 34.4408 46.0748 35.8357 45.2477C36.2217 45.0216 36.6959 45.0713 37.0212 45.38L39.7229 47.9219L44.4703 43.1745L41.9284 40.4728C41.6197 40.1475 41.57 39.6678 41.7961 39.2874C42.6232 37.8979 43.2462 36.3926 43.6432 34.8267C43.7535 34.3912 44.1284 34.0934 44.575 34.0769L48.2802 33.9611V31.6398H48.2858ZM27.1571 42.954C33.6578 42.954 38.9455 38.0357 39.4693 31.6343H14.845C15.3688 38.0357 20.6564 42.954 27.1571 42.954ZM52.0406 28.4253C52.0406 27.3612 51.175 26.49 50.1053 26.49H4.20899C3.14484 26.49 2.27367 27.3556 2.27367 28.4253C2.27367 29.4895 3.13933 30.3606 4.20899 30.3606H50.1053C51.175 30.3606 52.0406 29.495 52.0406 28.4253ZM19.4931 15.639H23.9316C24.2845 15.639 24.5712 15.3522 24.5712 14.9994C24.5712 14.6465 24.2845 14.3598 23.9316 14.3598H19.4931C19.1402 14.3598 18.8535 14.6465 18.8535 14.9994C18.8535 15.3522 19.1457 15.639 19.4931 15.639ZM19.4931 19.5317H23.9316C24.2845 19.5317 24.5712 19.2449 24.5712 18.8921C24.5712 18.5392 24.2845 18.2525 23.9316 18.2525H19.4931C19.1402 18.2525 18.8535 18.5392 18.8535 18.8921C18.8535 19.2449 19.1457 19.5317 19.4931 19.5317ZM19.4931 23.4243H23.9316C24.2845 23.4243 24.5712 23.1376 24.5712 22.7848C24.5712 22.4319 24.2845 22.1452 23.9316 22.1452H19.4931C19.1402 22.1452 18.8535 22.4319 18.8535 22.7848C18.8535 23.1376 19.1457 23.4243 19.4931 23.4243Z" stroke="#021827" stroke-width="0.4" mask="url(#path-1-outside-1_264_1414)"/>
</svg>
