<svg width="57" height="56" viewBox="0 0 57 56" fill="none" xmlns="http://www.w3.org/2000/svg">
<path d="M47.6857 19.3811C47.1307 18.5185 46.1882 18.0011 45.1606 18.0011H42.253V3.00012C42.253 1.34508 40.9079 0 39.2529 0H17.2519C15.5969 0 14.2518 1.34508 14.2518 3.00012V18.0011H11.3442C10.3166 18.0011 9.37412 18.5161 8.82158 19.3786L1.36656 30.9765C0.654014 32.1115 0.25899 33.4191 0.253998 34.7617V50.9998C0.253998 53.7574 2.49659 56 5.2542 56H51.2561C54.0137 56 56.2563 53.7574 56.2563 50.9998V34.7617C56.2563 33.4166 55.8713 32.1066 55.1438 30.9765L47.6887 19.3786L47.6857 19.3811ZM37.1925 25.0013C35.7325 14.3884 20.7643 14.4012 19.3095 25.0013H16.2494V9.94083C20.4146 9.4783 23.7275 6.1632 24.1896 2.00066H32.3077C32.7702 6.16582 36.0853 9.47873 40.2478 9.94083V25.0013H37.1877H37.1925ZM35.1724 25.0013H21.3319C22.6369 17.0509 33.87 17.056 35.1724 25.0013ZM40.2526 3.00038V7.92058C37.195 7.48056 34.7724 5.05794 34.3324 2.00034H39.2526C39.8051 2.00034 40.2526 2.44786 40.2526 3.00038ZM17.2514 2.00034H22.1716C21.7316 5.05794 19.3089 7.48056 16.2513 7.92058V3.00038C16.2513 2.44786 16.6988 2.00034 17.2514 2.00034ZM54.2526 51.002C54.2526 52.6571 52.9075 54.0022 51.2525 54.0022H5.25056C3.59551 54.0022 2.25043 52.6571 2.25043 51.002V34.7639C2.25043 34.5064 2.27293 34.2514 2.31293 34.0014H49.3126C49.8652 34.0014 50.3127 33.5539 50.3127 33.0014C50.3127 32.4488 49.8652 32.0013 49.3126 32.0013H3.08353L10.504 20.461C10.689 20.1735 11.004 20.001 11.344 20.001H14.2517V25.0012H12.2516C10.949 25.0212 10.9265 26.9762 12.2516 27.0013H44.2529C45.558 26.9863 45.5755 25.0212 44.2529 25.0012H42.2528V20.001H45.1605C45.503 20.001 45.8155 20.1735 46.003 20.461L53.458 32.0589C53.978 32.8664 54.2531 33.8015 54.2531 34.7641L54.2526 51.002Z" fill="#021827"/>
<path d="M34.0781 42.1972L26.833 37.367C25.4654 36.3919 23.4053 37.492 23.4604 39.172V48.83C23.4079 50.5076 25.4629 51.6102 26.833 50.6351L34.0781 45.8049C35.3482 45.0073 35.3507 42.9923 34.0781 42.1947V42.1972ZM32.968 44.1423L25.7229 48.9725C25.7004 48.985 25.6379 49.0275 25.5479 48.98C25.4579 48.9325 25.4579 48.8575 25.4579 48.8325V39.1745C25.4579 39.1495 25.4579 39.0745 25.5479 39.027C25.6029 38.987 25.6904 39.007 25.7229 39.0345L32.9655 43.8647C33.068 43.9247 33.0655 44.0847 32.9655 44.1447L32.968 44.1423Z" fill="#021827"/>
</svg>
