<svg width="66" height="66" viewBox="0 0 66 66" fill="none" xmlns="http://www.w3.org/2000/svg">
<path d="M30.1996 9.39397L30.1998 9.39435C30.4174 9.72071 30.7448 9.82674 31.0588 9.82674H61.6993C61.997 9.82674 62.2872 10.0203 62.5099 10.2665C62.6197 10.3879 62.7088 10.5175 62.77 10.6327C62.8333 10.7518 62.8598 10.8429 62.8598 10.8903V17.0929H3.03927V3.03927H23.6895C25.0177 3.03927 26.247 3.60789 27.0023 4.54963L30.1996 9.39397ZM61.7963 7.68746H31.6947L28.8281 3.29206C28.8253 3.27667 28.8199 3.25582 28.809 3.23393C28.797 3.20994 28.7774 3.18292 28.7462 3.16211C28.7277 3.1498 28.7072 3.14103 28.6851 3.13583C27.407 1.67738 25.644 0.9 23.6895 0.9H3.03624C1.81745 0.9 0.9 1.81745 0.9 3.03624V47.0578C0.9 48.8623 2.40328 50.2606 4.1998 50.2606H22.7199C23.0335 50.2606 23.3026 50.1556 23.4936 49.9647C23.6845 49.7737 23.7895 49.5046 23.7895 49.191C23.7895 48.8774 23.6845 48.6082 23.4936 48.4173C23.3026 48.2263 23.0335 48.1213 22.7199 48.1213H4.1998C3.56554 48.1213 3.03927 47.6711 3.03927 47.0578V19.2322H62.9568V47.0578C62.9568 47.6711 62.4305 48.1213 61.7963 48.1213H60.0509C59.7373 48.1213 59.4682 48.2263 59.2772 48.4173C59.0863 48.6082 58.9813 48.8774 58.9813 49.191C58.9813 49.5046 59.0863 49.7737 59.2772 49.9647C59.4682 50.1556 59.7373 50.2606 60.0509 50.2606H61.7963C63.5928 50.2606 65.0961 48.8623 65.0961 47.0578V10.9873C65.0961 10.3262 64.743 9.50364 64.1619 8.84832C63.5792 8.19129 62.754 7.68746 61.7963 7.68746Z" fill="#021827" stroke="#021827" stroke-width="0.2"/>
<path d="M48.4173 28.1978L42.2133 33.8292L31.4207 22.8439L31.4201 22.8432C30.9933 22.4164 30.3484 22.4163 29.9215 22.8429C29.9214 22.843 29.9213 22.8431 29.9212 22.8432L19.8376 32.7328L19.837 32.7335C19.7341 32.8364 19.653 32.9432 19.5981 33.0666C19.5431 33.1905 19.5168 33.3259 19.5168 33.483C19.5168 33.6401 19.5431 33.7755 19.5981 33.8993C19.6529 34.0226 19.734 34.1294 19.8367 34.2322C19.8368 34.2323 19.8369 34.2324 19.837 34.2324L30.2356 44.7274L23.1368 51.2507L23.1367 51.2506L23.1337 51.2536L22.9398 51.4475L22.9301 51.4572L22.9234 51.4691L16.136 63.4926L16.1359 63.4925L16.1336 63.497C16.0307 63.7029 15.9765 63.9144 15.9899 64.1298C16.0034 64.3458 16.0845 64.558 16.24 64.7653L16.2443 64.771L16.2493 64.776C16.4098 64.9365 16.6223 65.0425 16.8349 65.0824C17.0435 65.1215 17.2626 65.0985 17.4346 64.9874L29.9185 59.4712C29.9865 59.4652 30.0658 59.435 30.1336 59.4011C30.2117 59.3621 30.2935 59.3085 30.3518 59.2508L37.8425 52.4323C38.4038 52.9978 41.2604 55.9006 44.041 58.7273C45.5015 60.2121 46.9408 61.6756 48.0149 62.768L49.3094 64.0844L49.6706 64.4517L49.7656 64.5484L49.7899 64.5731L49.7961 64.5794L49.7976 64.581L49.798 64.5814C49.7981 64.5815 49.7982 64.5815 49.8695 64.5114L49.7982 64.5815L49.7988 64.5821C50.0127 64.796 50.3295 64.9023 50.5482 64.9023C50.7053 64.9023 50.8407 64.876 50.9646 64.8209C51.0878 64.7661 51.1946 64.6851 51.2974 64.5824C51.2975 64.5823 51.2976 64.5822 51.2977 64.5821L61.3812 54.6925L61.3819 54.6918C61.4848 54.5889 61.5659 54.4821 61.6207 54.3587C61.6758 54.2348 61.7021 54.0994 61.7021 53.9423C61.7021 53.7852 61.6758 53.6498 61.6207 53.526C61.566 53.4027 61.485 53.296 61.3823 53.1932C61.3821 53.1931 61.382 53.193 61.3819 53.1929L49.9168 41.5351L60.3097 32.1045C60.31 32.1041 60.3104 32.1038 60.3108 32.1035C61.0088 31.5048 61.4112 30.7026 61.4112 29.7984C61.4112 28.9067 61.1146 28.0071 60.5111 27.4024L57.7977 24.3983L57.7968 24.3973C56.4999 23.0006 54.4013 22.8993 53.0024 24.197C53.002 24.1974 53.0016 24.1978 53.0012 24.1982L48.5656 28.0551C48.5514 28.0583 48.5339 28.0636 48.5157 28.0727C48.4917 28.0847 48.4647 28.1042 48.4439 28.1354C48.4314 28.1542 48.4225 28.1752 48.4173 28.1978ZM50.646 62.3345L48.3631 60.0517L53.9151 54.5954L53.9157 54.5948C54.3426 54.1679 54.3426 53.5228 53.9157 53.0959C53.489 52.6692 52.8442 52.669 52.4173 53.0954C52.4171 53.0956 52.417 53.0957 52.4168 53.0959L46.8642 58.5528L44.5809 56.2695L47.613 53.2373C48.04 52.8104 48.04 52.1653 47.613 51.7384C47.1861 51.3115 46.541 51.3115 46.1141 51.7384L43.0835 54.7691L40.8955 52.4899L46.4489 47.0323L46.4495 47.0317C46.8764 46.6047 46.8764 45.9597 46.4495 45.5327C46.0227 45.1059 45.3778 45.1058 44.9509 45.5325C44.9508 45.5325 44.9507 45.5326 44.9506 45.5327L39.3995 50.9881L37.2102 48.7077L40.2438 45.6742C40.6707 45.2473 40.6707 44.6022 40.2438 44.1752C39.8169 43.7483 39.1718 43.7483 38.7449 44.1752L35.7142 47.2059L33.5262 44.9268L39.0796 39.4691L39.0802 39.4685C39.5071 39.0416 39.5071 38.3965 39.0802 37.9696C38.6534 37.5428 38.0085 37.5427 37.5816 37.9693C37.5815 37.9694 37.5814 37.9695 37.5813 37.9696L32.0302 43.425L29.841 41.1446L32.8746 38.111C33.3015 37.6841 33.3015 37.039 32.8746 36.6121C32.448 36.1855 31.8037 36.1852 31.3767 36.611L28.1532 39.6449L25.963 37.3636L31.5164 31.9059L31.5171 31.9053C31.944 31.4784 31.944 30.8333 31.5171 30.4064C31.0903 29.9796 30.4454 29.9795 30.0184 30.4061C30.0183 30.4062 30.0182 30.4063 30.0181 30.4064L24.467 35.8619L22.1813 33.4848L30.6696 25.0918L47.568 42.2798L47.568 42.2798L59.1333 54.0379L50.646 62.3345ZM46.8152 38.4323L52.0937 33.7193L53.6053 35.3199L48.4183 40.0354L46.8152 38.4323ZM50.8811 29.0288L54.3962 25.7037C54.6695 25.4769 54.9844 25.3662 55.2959 25.3774C55.6071 25.3885 55.9224 25.5214 56.1966 25.7948L58.9049 28.7933C59.0993 29.085 59.2719 29.3506 59.2719 29.7014C59.2719 30.0505 59.1011 30.3151 58.9079 30.6051L55.2106 33.9231L53.0472 31.4775L50.8811 29.0288ZM50.5995 32.1201L45.3174 36.9306L43.8064 35.3307L49.0885 30.5202L50.5995 32.1201ZM26.701 53.6087L25.2862 52.1055L31.7341 46.2265L33.2403 47.7328L26.701 53.6087ZM23.9998 53.8213L27.8852 58.0767L19.5594 61.7771L23.9998 53.8213ZM34.6405 49.2336L36.2489 50.9313L29.708 56.9034L28.0969 55.1134L34.6405 49.2336Z" fill="#021827" stroke="#021827" stroke-width="0.2"/>
<path d="M6.62393 27.4741H21.8472C22.1609 27.4741 22.43 27.3691 22.6209 27.1781C22.8119 26.9872 22.9169 26.7181 22.9169 26.4045C22.9169 26.0908 22.8119 25.8217 22.6209 25.6308C22.43 25.4398 22.1609 25.3348 21.8472 25.3348H6.62393C6.31032 25.3348 6.0412 25.4398 5.85024 25.6308C5.65927 25.8217 5.5543 26.0908 5.5543 26.4045C5.5543 26.6794 5.69076 26.9459 5.8866 27.1418C6.08244 27.3376 6.349 27.4741 6.62393 27.4741Z" fill="#021827" stroke="#021827" stroke-width="0.2"/>
<path d="M6.62393 35.1345H16.9991C17.3127 35.1345 17.5818 35.0295 17.7728 34.8386C17.9637 34.6476 18.0687 34.3785 18.0687 34.0649C18.0687 33.7512 17.9637 33.4821 17.7728 33.2912C17.5818 33.1002 17.3127 32.9952 16.9991 32.9952H6.62393C6.31032 32.9952 6.0412 33.1002 5.85024 33.2912C5.65927 33.4821 5.5543 33.7512 5.5543 34.0649C5.5543 34.7082 6.0905 35.1345 6.62393 35.1345Z" fill="#021827" stroke="#021827" stroke-width="0.2"/>
<path d="M6.62393 42.8916H21.8472C22.1609 42.8916 22.43 42.7866 22.6209 42.5956C22.8119 42.4047 22.9169 42.1355 22.9169 41.8219C22.9169 41.5083 22.8119 41.2392 22.6209 41.0482C22.43 40.8573 22.1609 40.7523 21.8472 40.7523H6.62393C6.31032 40.7523 6.0412 40.8573 5.85024 41.0482C5.65927 41.2392 5.5543 41.5083 5.5543 41.8219C5.5543 42.0969 5.69076 42.3634 5.8866 42.5593C6.08244 42.7551 6.349 42.8916 6.62393 42.8916Z" fill="#021827" stroke="#021827" stroke-width="0.2"/>
</svg>
