<svg width="66" height="66" viewBox="0 0 66 66" fill="none" xmlns="http://www.w3.org/2000/svg">
<path d="M26.4 36.5C26.4 37.8054 26.7871 39.0814 27.5123 40.1668C28.2375 41.2521 29.2683 42.0981 30.4743 42.5976C31.6803 43.0971 33.0073 43.2278 34.2876 42.9732C35.5679 42.7185 36.7439 42.0899 37.6669 41.1669C38.5899 40.2439 39.2185 39.0679 39.4732 37.7876C39.7278 36.5073 39.5971 35.1803 39.0976 33.9743C38.5981 32.7683 37.7521 31.7375 36.6668 31.0123C35.5814 30.2871 34.3054 29.9 33 29.9C31.2496 29.9 29.5708 30.5954 28.3331 31.8331C27.0954 33.0708 26.4 34.7496 26.4 36.5ZM37.4 36.5C37.4 37.3702 37.1419 38.2209 36.6585 38.9445C36.175 39.6681 35.4878 40.232 34.6838 40.5651C33.8798 40.8981 32.9951 40.9852 32.1416 40.8154C31.2881 40.6457 30.5041 40.2266 29.8887 39.6113C29.2734 38.9959 28.8543 38.2119 28.6845 37.3584C28.5148 36.5049 28.6019 35.6202 28.9349 34.8162C29.268 34.0122 29.8319 33.325 30.5555 32.8415C31.2791 32.3581 32.1298 32.1 33 32.1C34.1669 32.1 35.2861 32.5636 36.1113 33.3887C36.9364 34.2139 37.4 35.333 37.4 36.5Z" fill="#021827" stroke="#021827" stroke-width="0.2"/>
<path d="M14.9001 41.7459L14.9 41.7459V41.7498V48.4998C14.9 48.7916 15.0159 49.0714 15.2222 49.2777C15.4285 49.484 15.7083 49.5998 16 49.5998C16.2917 49.5998 16.5715 49.484 16.7778 49.2777C16.9841 49.0714 17.1 48.7916 17.1 48.4998V41.755C17.1352 41.4197 17.2998 41.1114 17.5589 40.8955C17.8192 40.6786 18.1542 40.5723 18.492 40.5995L18.4919 40.5998H18.5H21C21.2917 40.5998 21.5715 40.484 21.7778 40.2777C21.9841 40.0714 22.1 39.7916 22.1 39.4998C22.1 39.2081 21.9841 38.9283 21.7778 38.722C21.5715 38.5157 21.2917 38.3998 21 38.3998H18.5017C17.5814 38.3683 16.6859 38.7024 16.011 39.329C15.3357 39.9561 14.9363 40.8251 14.9001 41.7459Z" fill="#021827" stroke="#021827" stroke-width="0.2"/>
<path d="M20.0717 62.9H15.5C15.2083 62.9 14.9285 63.0159 14.7222 63.2222C14.5159 63.4285 14.4 63.7083 14.4 64C14.4 64.2918 14.5159 64.5716 14.7222 64.7778C14.9285 64.9841 15.2083 65.1 15.5 65.1H50.5C50.7917 65.1 51.0715 64.9841 51.2778 64.7778C51.4841 64.5716 51.6 64.2918 51.6 64C51.6 63.7083 51.4841 63.4285 51.2778 63.2222C51.0715 63.0159 50.7917 62.9 50.5 62.9H45.9175C45.929 62.8354 45.938 62.7703 45.9445 62.7048L45.9446 62.7043L47.0995 50.3151C47.0995 50.315 47.0995 50.3149 47.0995 50.3148C47.1436 49.8792 47.0961 49.4392 46.96 49.0231C46.8239 48.6068 46.6023 48.2236 46.3093 47.8981L46.3091 47.8979C45.9735 47.5274 45.5518 47.2457 45.0817 47.0776C45.0093 45.687 44.4813 44.3581 43.5782 43.2965C42.6603 42.2175 41.4078 41.4767 40.0201 41.1921L39.955 41.1787L39.9175 41.2335C39.4746 41.8802 38.944 42.4623 38.3411 42.9631L38.156 43.1168L38.3955 43.1396C39.3065 43.2262 40.3234 43.4732 41.1543 44.0575C41.96 44.624 42.5977 45.5122 42.7912 46.9H23.1746C23.3775 45.5124 24.0199 44.624 24.8256 44.0575C25.6567 43.4731 26.6687 43.2262 27.5696 43.1396L27.8045 43.117L27.6248 42.9639C27.0341 42.4607 26.5153 41.8788 26.083 41.2343L26.0456 41.1784L25.9797 41.1921C24.5948 41.4797 23.3457 42.2218 22.4308 43.3005C21.5307 44.3618 21.0049 45.6891 20.9332 47.0776C20.4632 47.2457 20.0416 47.5273 19.706 47.8978C19.4114 48.2206 19.1876 48.6014 19.0488 49.0158C18.9101 49.4303 18.8595 49.8691 18.9004 50.3043L18.9004 50.3042L19 50.295L18.9004 50.3044L20.0717 62.9ZM22.245 62.5004L22.2455 62.5004L22.2446 62.4908L21.0996 50.0958L21.0995 50.0948C21.0861 49.9646 21.1001 49.833 21.1406 49.7085C21.1811 49.584 21.2471 49.4693 21.3345 49.3718L21.3349 49.3713C21.4106 49.2858 21.5038 49.2173 21.6081 49.1705C21.7124 49.1238 21.8254 49.0997 21.9397 49.1H21.94L44.0597 49.1C44.0598 49.1 44.0598 49.1 44.0599 49.1C44.1734 49.1004 44.2855 49.1247 44.3889 49.1714C44.4924 49.2182 44.5848 49.2863 44.6601 49.3713L44.6609 49.3722C44.75 49.4706 44.8175 49.5867 44.8588 49.7129C44.9001 49.8391 44.9143 49.9726 44.9005 50.1047L44.9004 50.1058L43.7504 62.5258L43.7504 62.5258L43.7502 62.5284C43.7439 62.6236 43.7037 62.7135 43.637 62.7817C43.5712 62.8489 43.4839 62.8908 43.3903 62.9H22.6048C22.5066 62.8901 22.4156 62.8443 22.3492 62.7713C22.2818 62.6972 22.2446 62.6006 22.245 62.5004Z" fill="#021827" stroke="#021827" stroke-width="0.2"/>
<path d="M51.1 41.7498H51.1001L51.0999 41.7459C51.0637 40.8251 50.6643 39.9561 49.989 39.329C49.3141 38.7024 48.4186 38.3683 47.4983 38.3998H45C44.7083 38.3998 44.4285 38.5157 44.2222 38.722C44.0159 38.9283 43.9 39.2081 43.9 39.4998C43.9 39.7916 44.0159 40.0714 44.2222 40.2777C44.4285 40.484 44.7083 40.5998 45 40.5998H47.5V40.6002L47.508 40.5995C47.8458 40.5723 48.1808 40.6786 48.4411 40.8955C48.7002 41.1114 48.8648 41.4197 48.9 41.755V48.4998C48.9 48.7916 49.0159 49.0714 49.2222 49.2777C49.4285 49.484 49.7083 49.5998 50 49.5998C50.2917 49.5998 50.5715 49.484 50.7778 49.2777C50.9841 49.0714 51.1 48.7916 51.1 48.4998V41.7498Z" fill="#021827" stroke="#021827" stroke-width="0.2"/>
<path d="M33 54.9C32.3869 54.9 31.7875 55.0818 31.2777 55.4224C30.7679 55.7631 30.3706 56.2472 30.136 56.8137C29.9013 57.3801 29.84 58.0034 29.9596 58.6048C30.0792 59.2061 30.3744 59.7585 30.808 60.192C31.2415 60.6256 31.7939 60.9208 32.3952 61.0404C32.9966 61.16 33.6199 61.0987 34.1863 60.864C34.7528 60.6294 35.2369 60.2321 35.5776 59.7223C35.9182 59.2125 36.1 58.6131 36.1 58C36.1 57.1778 35.7734 56.3893 35.192 55.808C34.6107 55.2266 33.8222 54.9 33 54.9ZM33 58.9C32.822 58.9 32.648 58.8472 32.5 58.7483C32.352 58.6494 32.2366 58.5089 32.1685 58.3444C32.1004 58.18 32.0826 57.999 32.1173 57.8244C32.152 57.6498 32.2377 57.4895 32.3636 57.3636C32.4895 57.2377 32.6498 57.152 32.8244 57.1173C32.999 57.0826 33.18 57.1004 33.3444 57.1685C33.5089 57.2366 33.6494 57.352 33.7483 57.5C33.8472 57.648 33.9 57.822 33.9 58C33.9 58.2387 33.8052 58.4676 33.6364 58.6364C33.4676 58.8052 33.2387 58.9 33 58.9Z" fill="#021827" stroke="#021827" stroke-width="0.2"/>
<path d="M13.5 11.1C14.5087 11.1 15.4947 10.8009 16.3334 10.2405C17.1721 9.6801 17.8258 8.88359 18.2118 7.95168C18.5978 7.01978 18.6988 5.99434 18.502 5.00504C18.3052 4.01574 17.8195 3.107 17.1062 2.39376C16.393 1.68051 15.4843 1.19478 14.495 0.997997C13.5057 0.801213 12.4802 0.90221 11.5483 1.28822C10.6164 1.67422 9.8199 2.3279 9.2595 3.16659C8.69911 4.00528 8.4 4.99132 8.4 6C8.4 7.3526 8.93732 8.64981 9.89375 9.60624C10.8502 10.5627 12.1474 11.1 13.5 11.1ZM13.5 3.1C14.0736 3.1 14.6342 3.27008 15.1111 3.58874C15.5881 3.90739 15.9598 4.36031 16.1792 4.89022C16.3987 5.42012 16.4562 6.00322 16.3443 6.56576C16.2324 7.12831 15.9562 7.64504 15.5506 8.05061C15.145 8.45618 14.6283 8.73238 14.0658 8.84427C13.5032 8.95617 12.9201 8.89874 12.3902 8.67925C11.8603 8.45975 11.4074 8.08805 11.0887 7.61115C10.7701 7.13425 10.6 6.57357 10.6 6C10.6 5.23087 10.9055 4.49325 11.4494 3.94939C11.9932 3.40554 12.7309 3.1 13.5 3.1Z" fill="#021827" stroke="#021827" stroke-width="0.2"/>
<path d="M4.17292 24.8999H2C1.70826 24.8999 1.42847 25.0158 1.22218 25.2221C1.01589 25.4284 0.9 25.7082 0.9 25.9999C0.9 26.2917 1.01589 26.5714 1.22218 26.7777C1.42847 26.984 1.70826 27.0999 2 27.0999H25C25.2917 27.0999 25.5715 26.984 25.7778 26.7777C25.9841 26.5714 26.1 26.2916 26.1 25.9999C26.1 25.7082 25.9841 25.4284 25.7778 25.2221C25.5715 25.0158 25.2917 24.8999 25 24.8999H22.827L23.5994 18.1262L23.5995 18.125C23.6344 17.7783 23.5964 17.4282 23.4879 17.0972C23.3793 16.7662 23.2026 16.4615 22.9692 16.2029L22.969 16.2027C22.8603 16.083 22.7401 15.9745 22.61 15.8787V14.932C22.6548 13.8533 22.3225 12.7926 21.67 11.9323C21.0172 11.0714 20.0846 10.465 19.0329 10.2176L18.9711 10.203L18.9316 10.2528C18.4044 10.9182 17.7595 11.4812 17.029 11.9139L16.7346 12.0883L17.0766 12.0999C17.8791 12.1271 18.7122 12.282 19.3421 12.7013C19.965 13.116 20.4 13.7962 20.4 14.9049V15.3999H6.6V14.9099C6.6 13.8012 7.03505 13.1197 7.65797 12.7044C8.28778 12.2845 9.12078 12.1296 9.92308 12.1049L10.2612 12.0944L9.97175 11.9194C9.24271 11.4784 8.60111 10.907 8.07902 10.2336L8.03965 10.1829L7.97709 10.1976C6.92538 10.445 5.99283 11.0514 5.33996 11.9123C4.68751 12.7726 4.35516 13.8333 4.4 14.912V15.8587C4.26996 15.9545 4.14972 16.063 4.04106 16.1826C3.8016 16.4449 3.62066 16.7551 3.51023 17.0927C3.39979 17.4303 3.36241 17.7875 3.40058 18.1407L3.40065 18.1413L4.17292 24.8999ZM5.59936 17.9036L5.59928 17.9029C5.59438 17.8623 5.59814 17.8211 5.61031 17.782C5.62249 17.7429 5.6428 17.7068 5.66992 17.6762L5.67 17.6761C5.6916 17.6516 5.71827 17.6321 5.74816 17.6189C5.77804 17.6058 5.81044 17.5993 5.84308 17.5999V17.5999H5.845L21.155 17.5999L21.1554 17.5999C21.1874 17.5998 21.2192 17.6065 21.2484 17.6197C21.2777 17.6328 21.3038 17.652 21.325 17.6761L21.325 17.6761L21.3268 17.678C21.3537 17.707 21.3742 17.7413 21.3869 17.7788C21.3995 17.816 21.4042 17.8555 21.4005 17.8946C21.4005 17.8949 21.4005 17.8951 21.4004 17.8954L20.6127 24.8749H6.39424L5.59936 17.9036Z" fill="#021827" stroke="#021827" stroke-width="0.2"/>
<path d="M13.5 22.6C14.1075 22.6 14.6 22.1075 14.6 21.5C14.6 20.8925 14.1075 20.4 13.5 20.4C12.8925 20.4 12.4 20.8925 12.4 21.5C12.4 22.1075 12.8925 22.6 13.5 22.6Z" fill="#021827" stroke="#021827" stroke-width="0.2"/>
<path d="M52.5 11.1C53.5087 11.1 54.4947 10.8009 55.3334 10.2405C56.1721 9.6801 56.8258 8.88359 57.2118 7.95168C57.5978 7.01978 57.6988 5.99434 57.502 5.00504C57.3052 4.01574 56.8195 3.107 56.1062 2.39376C55.393 1.68051 54.4843 1.19478 53.495 0.997997C52.5057 0.801213 51.4802 0.90221 50.5483 1.28822C49.6164 1.67422 48.8199 2.3279 48.2595 3.16659C47.6991 4.00528 47.4 4.99132 47.4 6C47.4 7.3526 47.9373 8.64981 48.8938 9.60624C49.8502 10.5627 51.1474 11.1 52.5 11.1ZM52.5 3.1C53.0736 3.1 53.6342 3.27008 54.1111 3.58874C54.5881 3.90739 54.9598 4.36031 55.1792 4.89022C55.3987 5.42012 55.4562 6.00322 55.3443 6.56576C55.2324 7.12831 54.9562 7.64504 54.5506 8.05061C54.145 8.45618 53.6283 8.73238 53.0658 8.84427C52.5032 8.95617 51.9201 8.89874 51.3902 8.67925C50.8603 8.45975 50.4074 8.08805 50.0887 7.61115C49.7701 7.13425 49.6 6.57356 49.6 6C49.6 5.23087 49.9055 4.49325 50.4494 3.94939C50.9932 3.40554 51.7309 3.1 52.5 3.1Z" fill="#021827" stroke="#021827" stroke-width="0.2"/>
<path d="M43.1729 24.8999H41C40.7083 24.8999 40.4285 25.0158 40.2222 25.2221C40.0159 25.4284 39.9 25.7082 39.9 25.9999C39.9 26.2916 40.0159 26.5714 40.2222 26.7777C40.4285 26.984 40.7083 27.0999 41 27.0999H64C64.2917 27.0999 64.5715 26.984 64.7778 26.7777C64.9841 26.5714 65.1 26.2916 65.1 25.9999C65.1 25.7082 64.9841 25.4284 64.7778 25.2221C64.5715 25.0158 64.2917 24.8999 64 24.8999H61.827L62.5994 18.1262L62.5995 18.125C62.6344 17.7783 62.5964 17.4282 62.4879 17.0972C62.3793 16.7662 62.2026 16.4615 61.9692 16.2029L61.969 16.2027C61.8603 16.083 61.7401 15.9745 61.61 15.8787V14.932C61.6548 13.8533 61.3225 12.7926 60.67 11.9323C60.0171 11.0714 59.0846 10.465 58.0329 10.2176L57.9711 10.203L57.9316 10.2528C57.4044 10.9182 56.7595 11.4812 56.029 11.9139L55.7346 12.0883L56.0766 12.0999C56.8791 12.1271 57.7122 12.282 58.3421 12.7013C58.965 13.116 59.4 13.7962 59.4 14.9049V15.3999H45.6V14.9099C45.6 13.8012 46.035 13.1197 46.658 12.7044C47.2878 12.2845 48.1208 12.1296 48.9231 12.1049L49.2612 12.0944L48.9717 11.9194C48.2427 11.4784 47.6011 10.907 47.079 10.2336L47.0396 10.1829L46.9771 10.1976C45.9254 10.445 44.9928 11.0514 44.34 11.9123C43.6875 12.7726 43.3552 13.8333 43.4 14.912V15.8587C43.27 15.9545 43.1497 16.063 43.0411 16.1826C42.8016 16.4449 42.6207 16.7551 42.5102 17.0927C42.3998 17.4303 42.3624 17.7875 42.4006 18.1407L42.4006 18.1413L43.1729 24.8999ZM44.5994 17.9036L44.5993 17.9029C44.5944 17.8623 44.5981 17.8211 44.6103 17.782C44.6225 17.7429 44.6428 17.7068 44.6699 17.6762L44.67 17.6761C44.6912 17.652 44.7173 17.6328 44.7466 17.6197C44.7758 17.6065 44.8075 17.5998 44.8396 17.5999H44.84L60.155 17.5999L60.1554 17.5999C60.1874 17.5998 60.2192 17.6065 60.2484 17.6197C60.2777 17.6328 60.3038 17.652 60.325 17.6761L60.325 17.6761L60.3268 17.678C60.3537 17.707 60.3742 17.7413 60.3869 17.7788C60.3995 17.816 60.4042 17.8555 60.4005 17.8946C60.4005 17.8949 60.4005 17.8951 60.4004 17.8954L59.6127 24.8749H45.3942L44.5994 17.9036Z" fill="#021827" stroke="#021827" stroke-width="0.2"/>
<path d="M52.5 22.6C53.1075 22.6 53.6 22.1075 53.6 21.5C53.6 20.8925 53.1075 20.4 52.5 20.4C51.8925 20.4 51.4 20.8925 51.4 21.5C51.4 22.1075 51.8925 22.6 52.5 22.6Z" fill="#021827" stroke="#021827" stroke-width="0.2"/>
<path d="M45.615 7.58935L45.8026 7.6833L45.7575 7.47846C45.5963 6.74595 45.5597 5.99154 45.6491 5.24687L45.6578 5.17413L45.5911 5.14387C41.6365 3.35079 37.3445 2.42319 33.0023 2.42319C28.6602 2.42319 24.3682 3.35079 20.4135 5.14387L20.347 5.17406L20.3555 5.24665C20.4433 5.9916 20.405 6.74602 20.2422 7.47824L20.1966 7.68357L20.3846 7.58935C24.3007 5.62737 28.6198 4.6039 32.9998 4.59995C37.3799 4.6039 41.6989 5.62737 45.615 7.58935Z" fill="#021827" stroke="#021827" stroke-width="0.2"/>
<path d="M17.7195 56.9907L17.7149 56.942L17.6737 56.9157C13.0863 53.9856 9.44026 49.7957 7.17202 44.8475C4.90377 39.8992 4.10937 34.4022 4.88389 29.0142L4.90031 28.9H4.78491H2.78491H2.69742L2.68579 28.9867C1.8788 35.0056 2.88603 41.1284 5.57859 46.5716C8.27114 52.0148 12.5266 56.5309 17.8003 59.5418L17.9674 59.6372L17.9495 59.4457L17.7195 56.9907Z" fill="#021827" stroke="#021827" stroke-width="0.2"/>
<path d="M61.2149 28.9H61.0995L61.1159 29.0142C61.8904 34.4022 61.096 39.8992 58.8278 44.8475C56.5595 49.7957 52.9135 53.9856 48.3261 56.9157L48.2848 56.9421L48.2803 56.9908L48.0503 59.4908L48.0327 59.6819L48.1994 59.5869C53.4838 56.575 57.7475 52.0526 60.4434 46.6002C63.1392 41.1478 64.144 35.0142 63.329 28.9866L63.3173 28.9H63.2299H61.2149Z" fill="#021827" stroke="#021827" stroke-width="0.2"/>
</svg>
