<svg width="61" height="60" viewBox="0 0 61 60" fill="none" xmlns="http://www.w3.org/2000/svg">
<path d="M25.9804 44.0074C25.2706 44.0074 24.6952 43.432 24.6952 42.7222C24.6952 42.0124 25.2706 41.437 25.9804 41.437H32.4892C32.8437 41.437 33.1663 41.292 33.3986 41.0613C33.6294 40.829 33.7744 40.5063 33.7744 40.1518V38.9327C33.7744 38.5781 33.6294 38.2555 33.3986 38.0232C33.1663 37.7925 32.8437 37.6475 32.4892 37.6475H22.3396C21.4795 37.6475 20.5329 37.8661 19.5468 38.2274C18.4878 38.6169 17.3985 39.1619 16.3228 39.7829L11.1478 42.6668V54.4697L14.138 52.1696C14.4887 51.9009 14.8281 51.6428 15.2319 51.431C15.7193 51.1751 16.2461 51.0104 16.8633 51.0104H37.1282C37.2444 51.0104 37.3461 51.0005 37.4334 50.9808L37.4638 50.9724C37.564 50.9459 37.6657 50.9018 37.7704 50.8411L57.1449 39.6554C57.4501 39.4792 57.6581 39.1915 57.7431 38.8727C57.8289 38.5523 57.7947 38.2001 57.6194 37.8964L57.0098 36.8413C56.8587 36.5794 56.6196 36.4154 56.3456 36.3425C55.9607 36.2393 55.5044 36.2841 55.0649 36.4526L39.4572 42.4527C38.7975 42.7048 38.0574 42.3746 37.8054 41.7149C37.5533 41.0552 37.8836 40.315 38.5432 40.063L54.1509 34.0629C55.0877 33.703 56.1042 33.621 57.0075 33.8632C57.9162 34.1054 58.711 34.658 59.2295 35.5553L59.8391 36.6105C60.3705 37.5313 60.4775 38.5835 60.2224 39.5347C59.9681 40.4874 59.3487 41.3452 58.4309 41.875L39.0549 53.0585C38.7543 53.2362 38.4461 53.3652 38.1257 53.4518L38.0612 53.4669C37.7553 53.5436 37.4471 53.5808 37.1282 53.5808H16.8633C16.7084 53.5808 16.5649 53.6286 16.4268 53.7007C16.2044 53.8177 15.9538 54.0082 15.6942 54.2071L10.6407 58.0855L10.6012 58.1143C10.4373 58.3876 10.2406 58.6396 10.0167 58.8636C9.31375 59.5658 8.35041 60 7.29219 60H3.85561C2.79891 60 1.83405 59.5658 1.13642 58.8689C0.434222 58.1659 0 57.2026 0 56.1444V42.1127C0 41.0559 0.434222 40.0911 1.1311 39.3935C1.83405 38.6913 2.79891 38.257 3.85561 38.257H7.29219C8.35041 38.257 9.31375 38.6913 10.0114 39.3881C10.2164 39.5931 10.3978 39.8201 10.5526 40.0653L15.0626 37.5533C16.2674 36.8602 17.4835 36.2522 18.6632 35.818C19.9226 35.3564 21.1637 35.0771 22.3396 35.0771H32.4892C33.5474 35.0771 34.5107 35.5113 35.2084 36.2081C35.9106 36.9111 36.3448 37.876 36.3448 38.9327V40.1518C36.3448 41.21 35.9106 42.1734 35.2137 42.871C34.5107 43.5732 33.5474 44.0074 32.4892 44.0074H25.9804ZM23.7562 23.6165C21.8318 20.3446 19.3039 16.0487 19.3039 10.8753C19.3039 7.87368 20.5215 5.15296 22.4892 3.1853C24.4568 1.21764 27.1776 0 30.1792 0C33.1815 0 35.9015 1.21764 37.8691 3.1853C39.8368 5.15296 41.0544 7.87368 41.0544 10.8753C41.0544 16.0495 38.5265 20.3446 36.6021 23.6157C36.0503 24.554 34.7871 26.4997 34.7279 27.586C34.7279 28.6412 34.2944 29.6053 33.596 30.3044L33.5884 30.312C32.8892 31.0089 31.9267 31.4416 30.8722 31.4416H29.4853C28.4309 31.4416 27.466 31.0081 26.7669 30.3097L26.7593 30.3021C26.0624 29.603 25.6297 28.6404 25.6297 27.586C25.6297 26.6257 24.2458 24.4485 23.7562 23.6165ZM29.9415 25.9151H30.4175V17.0052H29.9415V25.9151ZM31.7908 28.4855H28.5668L28.5736 28.4924C28.8089 28.7277 29.1308 28.8712 29.4853 28.8712H30.8722C31.2268 28.8712 31.5486 28.7277 31.7786 28.4977L31.7908 28.4855ZM27.3711 24.8288V17.0052H27.1001C26.2917 17.0052 25.5667 16.6841 25.0414 16.1679C24.5092 15.6434 24.1836 14.9222 24.1836 14.1281C24.1836 13.3318 24.5069 12.6114 25.027 12.0914C25.547 11.5714 26.2681 11.248 27.0629 11.248C27.8577 11.248 28.5782 11.5714 29.0982 12.0914C29.6182 12.6114 29.9415 13.3326 29.9415 14.1266V14.4348H30.4175V14.1509C30.4175 13.3485 30.7402 12.6251 31.2602 12.0997C31.7824 11.5722 32.5029 11.248 33.2946 11.248C34.0909 11.248 34.8114 11.5714 35.3314 12.0914C35.8514 12.6114 36.1748 13.3326 36.1748 14.1266C36.1748 14.9229 35.8498 15.6449 35.3154 16.1679C34.7901 16.6826 34.0629 17.0007 33.2483 16.9999L32.9879 17.0052V24.8265C33.3713 24.0568 33.8602 23.2263 34.3931 22.3207C36.1611 19.3153 38.484 15.3678 38.484 10.8753C38.484 8.58271 37.5541 6.50497 36.0518 5.00266C34.5495 3.50034 32.4725 2.57041 30.1792 2.57041C27.8866 2.57041 25.8089 3.50034 24.3065 5.00266C22.8042 6.50497 21.8743 8.58271 21.8743 10.8753C21.8743 15.367 24.1972 19.3153 25.9652 22.3214C26.4981 23.2278 26.987 24.0591 27.3711 24.8288ZM32.9879 14.1502V14.4348H33.2468C33.3591 14.4401 33.4548 14.4014 33.5178 14.3399C33.5709 14.2876 33.6043 14.2116 33.6043 14.1281C33.6043 14.0431 33.5687 13.9634 33.514 13.9088C33.4594 13.8541 33.3812 13.8184 33.2961 13.8184C33.2081 13.8184 33.1306 13.8526 33.0775 13.9065C33.0229 13.9619 32.9879 14.0477 32.9879 14.1502ZM27.0994 14.4348H27.3711V14.1266C27.3711 14.0431 27.3355 13.9634 27.2808 13.9088C27.2261 13.8541 27.148 13.8184 27.0629 13.8184C26.9779 13.8184 26.899 13.8541 26.8443 13.9088C26.7896 13.9634 26.754 14.0416 26.754 14.1266C26.754 14.2116 26.7866 14.2883 26.839 14.3399C26.8982 14.3984 26.9893 14.4348 27.0994 14.4348ZM7.29219 40.8274H3.85561C3.5011 40.8274 3.17847 40.9724 2.94618 41.2032C2.7154 41.4355 2.57041 41.7581 2.57041 42.1127V56.1444C2.57041 56.4989 2.7154 56.8215 2.94618 57.0538C3.17847 57.2846 3.5011 57.4296 3.85561 57.4296H7.29219C7.6467 57.4296 7.96933 57.2846 8.20162 57.0538C8.4324 56.8215 8.57739 56.4989 8.57739 56.1444V42.1127C8.57739 41.7581 8.4324 41.4355 8.20162 41.2032C7.96933 40.9724 7.6467 40.8274 7.29219 40.8274Z" fill="#021827"/>
</svg>
