<svg width="57" height="57" viewBox="0 0 57 57" fill="none" xmlns="http://www.w3.org/2000/svg">
<path fill-rule="evenodd" clip-rule="evenodd" d="M39.5819 23.6689C39.9535 24.0616 40.5728 24.0774 40.9576 23.7058L46.2203 18.6908C46.771 18.169 47.1268 17.6236 47.4009 16.9146L49.3141 11.8259C49.5117 11.2962 49.7384 10.8429 50.0388 10.358L50.4235 9.75189C48.8292 7.68845 46.4679 6.15211 43.9354 5.53279L42.1803 8.14174C41.4846 9.18533 40.6307 9.91003 39.487 10.4397L35.1283 12.461C34.4326 12.7851 33.9029 13.1935 33.4179 13.7918C30.1133 17.8897 27.3752 22.5486 25.296 27.6326C25.2064 27.8513 25.2064 28.0411 25.296 28.2598C25.3935 28.4785 25.4858 28.5919 25.8468 28.7447C26.1946 28.8896 26.5583 28.7895 26.7928 28.5023L32.9251 20.9625C33.576 20.1614 34.3403 19.6159 35.3074 19.2602L43.461 16.2586C43.8616 16.1136 44.307 16.2665 44.5336 16.6302C44.7523 16.9859 44.6996 17.455 44.3886 17.7502L39.6082 22.2961C39.4264 22.4779 39.3131 22.7204 39.3131 22.976C39.3104 23.2369 39.4001 23.4792 39.5819 23.6689ZM45.6458 2.99269L45.7907 2.77396C48.2336 3.58299 50.471 5.04296 52.1971 6.95616L52.0759 7.1459L51.4329 8.16048C49.7542 6.20249 47.4615 4.71087 44.9896 3.96243L45.6458 2.99269ZM38.2801 24.9001C37.7741 24.3704 37.5001 23.6668 37.5238 22.9263C37.5396 22.1857 37.8426 21.4979 38.3776 20.9893L40.0194 19.4319L35.9294 20.9366C35.2627 21.187 34.7646 21.5427 34.3192 22.0935L28.1869 29.6332C27.681 30.2525 26.9325 30.5925 26.1683 30.5925C25.8363 30.5925 25.5016 30.5319 25.1774 30.3948C24.6635 30.1919 24.0205 29.8361 23.649 28.9507C23.3775 28.2919 23.3696 27.6041 23.641 26.9478C25.7888 21.7063 28.6086 16.8971 32.0268 12.6618C32.6777 11.8528 33.4261 11.2703 34.3722 10.8329L38.7442 8.81427C39.5848 8.42952 40.1804 7.91566 40.6943 7.14347L44.157 1.99412L44.6709 1.222C44.8896 0.903128 45.2823 0.752921 45.6618 0.858333C48.898 1.7728 51.8548 3.70178 54.0023 6.29494C54.2448 6.598 54.2737 7.01963 54.0629 7.34643L52.603 9.66022L51.5515 11.3152C51.3169 11.692 51.143 12.0346 50.9928 12.4484L49.0716 17.545C48.7159 18.5043 48.202 19.2764 47.4615 19.9879L42.1909 24.995C41.0867 26.0518 39.3316 26.0122 38.2801 24.9001ZM36.2772 30.4896C36.2482 30.255 36.1797 30.118 35.8688 29.8835C35.5736 29.6568 35.1968 29.6489 34.8937 29.8677L27.0221 35.5625C26.1814 36.1739 25.3117 36.5007 24.2761 36.5903L15.6246 37.3756C15.2003 37.4204 14.8077 37.1569 14.6865 36.7484C14.5652 36.3399 14.7392 35.9025 15.1186 35.6969L20.9031 32.5425C21.3801 32.2842 21.554 31.6965 21.2957 31.2275C21.0375 30.7505 20.4419 30.5765 19.9729 30.8348L13.5902 34.3133C12.9235 34.677 12.4333 35.1066 11.9958 35.7206L8.82823 40.1452C8.50409 40.6064 8.1615 40.9859 7.74774 41.3785L7.22595 41.8555C8.23264 44.2668 10.1063 46.3619 12.3911 47.6189L14.7655 45.5476C15.7115 44.7227 16.7235 44.2405 17.9568 44.027L22.6977 43.2101C23.454 43.0731 24.0733 42.8175 24.6952 42.3642C28.9459 39.2624 32.7935 35.4755 36.1222 31.0958C36.2618 30.9139 36.3062 30.7241 36.2772 30.4896ZM10.0798 49.6296L9.89009 49.8036C7.73443 48.3884 5.95035 46.4014 4.77764 44.1087L4.94366 43.9506L5.82912 43.1416C6.94915 45.4711 8.77012 47.5056 10.9653 48.8575L10.18 49.5453L10.0798 49.6296ZM38.0536 30.2474C38.1431 30.951 37.9692 31.6151 37.5397 32.1843C34.1138 36.6907 30.1423 40.6092 25.7417 43.8164C24.901 44.4278 24.0313 44.7993 23.0036 44.9733L18.2548 45.7981C17.3482 45.9562 16.6367 46.2962 15.941 46.9023L11.2607 50.987L10.565 51.5931C10.399 51.7381 10.1882 51.8119 9.97471 51.8119C9.81658 51.8119 9.66374 51.775 9.52143 51.6906C6.63319 49.9671 4.26664 47.3345 2.86731 44.2804C2.70919 43.9247 2.79089 43.5083 3.07813 43.2447L3.73695 42.6386L6.52771 40.0587C6.85976 39.7556 7.11011 39.4684 7.37364 39.1047L10.536 34.68C11.1342 33.8473 11.8378 33.2359 12.7364 32.7431L19.1191 29.2645C20.4578 28.5319 22.1365 29.03 22.8691 30.3687C23.5938 31.7075 23.1037 33.394 21.7649 34.1187L19.7753 35.1992L24.1156 34.8066C24.8193 34.746 25.3937 34.5272 25.9683 34.1109L33.8399 28.416C34.778 27.7361 36.0246 27.7493 36.9469 28.4529C37.3976 28.7876 37.9271 29.3039 38.0536 30.2474ZM15.3136 16.5833C15.4876 16.7573 15.7221 16.8469 15.9487 16.8469C16.1754 16.8469 16.4099 16.7573 16.5839 16.5833C16.9317 16.2355 16.9317 15.6689 16.5839 15.321L9.95874 8.69592C9.61088 8.34806 9.04428 8.34806 8.69643 8.69592C8.34858 9.04377 8.34858 9.61039 8.69643 9.96612L15.3136 16.5833ZM11.6453 28.5001C11.6453 28.002 11.2448 27.6015 10.752 27.6015H1.39141C0.893342 27.6015 0.492798 28.002 0.492798 28.5001C0.492798 28.9929 0.893362 29.3934 1.39141 29.3934H10.7547C11.2448 29.3934 11.6453 28.9929 11.6453 28.5001ZM28.4957 45.3423C28.9937 45.3423 29.3969 45.7429 29.3969 46.241V55.6042C29.3969 56.097 28.9963 56.4976 28.4957 56.4976C28.0029 56.4976 27.6023 56.097 27.6023 55.6042V46.2437C27.6023 45.7429 28.0029 45.3423 28.4957 45.3423ZM41.6773 40.4117C41.3295 40.0638 40.7629 40.0638 40.415 40.4117C40.0593 40.7596 40.0593 41.3262 40.415 41.674L47.0323 48.2991C47.2062 48.4731 47.4407 48.5627 47.6674 48.5627C47.894 48.5627 48.1285 48.4731 48.3025 48.2991C48.6503 47.9513 48.6503 47.3847 48.3025 47.0289L41.6773 40.4117ZM55.6072 27.6017C56.1 27.6017 56.5006 28.0023 56.5006 28.5004C56.5006 28.9932 56.1 29.3937 55.6072 29.3937H46.2439C45.7459 29.3937 45.3453 28.9931 45.3453 28.5004C45.3453 28.0023 45.7459 27.6017 46.2439 27.6017H55.6072ZM28.495 11.6527C28.0022 11.6527 27.6016 11.2521 27.6016 10.7515V1.39091C27.6016 0.898109 28.0022 0.497559 28.495 0.497559C28.9931 0.497559 29.3962 0.898123 29.3962 1.39091V10.7542C29.3936 11.2522 28.993 11.6527 28.495 11.6527ZM20.9026 12.4301C21.0476 12.7779 21.3796 12.9809 21.7354 12.9809C21.8487 12.9809 21.9621 12.9651 22.0754 12.9124C22.5286 12.7305 22.7474 12.2008 22.5603 11.7475L21.2901 8.66951C21.1003 8.20833 20.5785 7.99751 20.1173 8.17671C19.6641 8.36645 19.4454 8.89614 19.6325 9.34943L20.9026 12.4301ZM8.69581 21.2266L11.7659 22.5047C11.8793 22.5575 11.9926 22.5812 12.1059 22.5812C12.4617 22.5812 12.7937 22.3703 12.9387 22.0304C13.1284 21.5692 12.9097 21.0474 12.4538 20.8577L9.38364 19.5769C8.92247 19.3793 8.4007 19.6007 8.21093 20.0539C8.01592 20.5151 8.23464 21.0369 8.69581 21.2266ZM36.0947 44.565L37.3571 47.643C37.5468 48.0963 37.3281 48.6259 36.8722 48.8157C36.7588 48.8605 36.6455 48.8842 36.5322 48.8842C36.1764 48.8842 35.8444 48.6734 35.6994 48.3255L34.4371 45.2475C34.2474 44.7942 34.4608 44.2725 34.922 44.0827C35.3753 43.8903 35.905 44.1038 36.0947 44.565ZM48.7839 36.9409C48.639 37.2809 48.307 37.4917 47.9512 37.4917C47.8379 37.4917 47.7245 37.468 47.6112 37.4153L44.5411 36.1372C44.0799 35.9474 43.8691 35.4256 44.0562 34.9645C44.2459 34.5112 44.7677 34.2925 45.2289 34.4875L48.299 35.7656C48.755 35.9579 48.9737 36.4797 48.7839 36.9409Z" fill="#021827"/>
</svg>
