<svg width="70" height="70" viewBox="0 0 70 70" fill="none" xmlns="http://www.w3.org/2000/svg">
<path d="M60.3725 12.7468C68.0707 21.7595 72.1306 34.4303 68.8615 44.0792C65.5925 53.675 54.9944 60.249 44.2381 64.8084C33.4819 69.3677 22.5674 71.9125 14.1839 68.2544C5.8003 64.5433 -0.0523734 54.6293 0.000353382 45.9347C0.0530802 37.2401 6.11666 29.7649 12.0748 21.1233C18.0329 12.4818 23.9383 2.67382 32.5855 0.500176C41.2327 -1.72649 52.6217 3.68113 60.3725 12.7468Z" fill="#C8EEA6"/>
<path d="M36.3539 45C36.1539 45 35.9739 44.93 35.8139 44.79C35.6739 44.65 35.6039 44.47 35.6039 44.25V29.97L31.4939 33.12C31.3139 33.26 31.1239 33.31 30.9239 33.27C30.7439 33.23 30.5839 33.12 30.4439 32.94L28.6739 30.63C28.5539 30.45 28.5039 30.26 28.5239 30.06C28.5639 29.84 28.6839 29.67 28.8839 29.55L35.7839 24.21C35.9039 24.13 36.0139 24.08 36.1139 24.06C36.2339 24.02 36.3639 24 36.5039 24H40.2539C40.4539 24 40.6239 24.07 40.7639 24.21C40.9239 24.35 41.0039 24.53 41.0039 24.75V44.25C41.0039 44.47 40.9239 44.65 40.7639 44.79C40.6239 44.93 40.4539 45 40.2539 45H36.3539Z" fill="#021827"/>
</svg>
