<svg width="70" height="70" viewBox="0 0 70 70" fill="none" xmlns="http://www.w3.org/2000/svg">
<path d="M60.3725 12.7468C68.0707 21.7595 72.1306 34.4303 68.8615 44.0792C65.5925 53.675 54.9944 60.249 44.2381 64.8084C33.4819 69.3677 22.5674 71.9125 14.1839 68.2544C5.8003 64.5433 -0.0523734 54.6293 0.000353382 45.9347C0.0530802 37.2401 6.11666 29.7649 12.0748 21.1233C18.0329 12.4818 23.9383 2.67382 32.5855 0.500176C41.2327 -1.72649 52.6217 3.68113 60.3725 12.7468Z" fill="#C8EEA6"/>
<path d="M27.2541 45C27.0341 45 26.8441 44.93 26.6841 44.79C26.5441 44.65 26.4741 44.47 26.4741 44.25V42.12C26.4741 41.98 26.5141 41.77 26.5941 41.49C26.6741 41.19 26.8841 40.91 27.2241 40.65L30.3441 37.59C31.9441 36.37 33.2541 35.34 34.2741 34.5C35.3141 33.64 36.0841 32.88 36.5841 32.22C37.0841 31.56 37.3341 30.94 37.3341 30.36C37.3341 29.68 37.1541 29.12 36.7941 28.68C36.4541 28.22 35.8541 27.99 34.9941 27.99C34.4141 27.99 33.9241 28.12 33.5241 28.38C33.1441 28.62 32.8541 28.94 32.6541 29.34C32.4541 29.74 32.3141 30.15 32.2341 30.57C32.1541 30.83 32.0141 31.01 31.8141 31.11C31.6341 31.21 31.4341 31.26 31.2141 31.26H27.4641C27.2841 31.26 27.1341 31.2 27.0141 31.08C26.8941 30.96 26.8341 30.81 26.8341 30.63C26.8541 29.67 27.0541 28.77 27.4341 27.93C27.8341 27.09 28.3841 26.35 29.0841 25.71C29.8041 25.05 30.6541 24.54 31.6341 24.18C32.6341 23.82 33.7541 23.64 34.9941 23.64C36.6941 23.64 38.1341 23.91 39.3141 24.45C40.5141 24.99 41.4241 25.75 42.0441 26.73C42.6641 27.69 42.9741 28.82 42.9741 30.12C42.9741 31.1 42.7541 32.02 42.3141 32.88C41.8941 33.72 41.2841 34.53 40.4841 35.31C39.7041 36.07 38.7741 36.86 37.6941 37.68L34.9341 40.47H42.6441C42.8641 40.47 43.0441 40.54 43.1841 40.68C43.3441 40.82 43.4241 41 43.4241 41.22V44.25C43.4241 44.47 43.3441 44.65 43.1841 44.79C43.0441 44.93 42.8641 45 42.6441 45H27.2541Z" fill="#021827"/>
</svg>
