<svg width="70" height="70" viewBox="0 0 70 70" fill="none" xmlns="http://www.w3.org/2000/svg">
<path d="M60.3725 12.7468C68.0707 21.7595 72.1306 34.4303 68.8615 44.0792C65.5925 53.675 54.9944 60.249 44.2381 64.8084C33.4819 69.3677 22.5674 71.9125 14.1839 68.2544C5.8003 64.5433 -0.0523734 54.6293 0.000353382 45.9347C0.0530802 37.2401 6.11666 29.7649 12.0748 21.1233C18.0329 12.4818 23.9383 2.67382 32.5855 0.500176C41.2327 -1.72649 52.6217 3.68113 60.3725 12.7468Z" fill="#C8EEA6"/>
<path d="M34.8623 45.3C33.3023 45.3 31.9723 45.12 30.8723 44.76C29.7723 44.38 28.8723 43.9 28.1723 43.32C27.4723 42.72 26.9523 42.09 26.6123 41.43C26.2723 40.75 26.0923 40.1 26.0723 39.48C26.0723 39.3 26.1323 39.15 26.2523 39.03C26.3923 38.91 26.5523 38.85 26.7323 38.85H30.6323C30.8723 38.85 31.0623 38.9 31.2023 39C31.3423 39.08 31.4723 39.22 31.5923 39.42C31.7523 39.8 31.9823 40.11 32.2823 40.35C32.6023 40.59 32.9823 40.76 33.4223 40.86C33.8623 40.94 34.3423 40.98 34.8623 40.98C35.8823 40.98 36.6723 40.75 37.2323 40.29C37.8123 39.81 38.1023 39.16 38.1023 38.34C38.1023 37.48 37.8323 36.87 37.2923 36.51C36.7523 36.13 35.9823 35.94 34.9823 35.94H31.6523C31.4323 35.94 31.2523 35.87 31.1123 35.73C30.9723 35.59 30.9023 35.41 30.9023 35.19V33.51C30.9023 33.27 30.9523 33.06 31.0523 32.88C31.1523 32.7 31.2623 32.57 31.3823 32.49L36.3023 28.32H27.9623C27.7623 28.32 27.5823 28.25 27.4223 28.11C27.2823 27.97 27.2123 27.79 27.2123 27.57V24.75C27.2123 24.53 27.2823 24.35 27.4223 24.21C27.5823 24.07 27.7623 24 27.9623 24H41.7623C41.9823 24 42.1623 24.07 42.3023 24.21C42.4623 24.35 42.5423 24.53 42.5423 24.75V27.3C42.5423 27.52 42.4923 27.72 42.3923 27.9C42.2923 28.06 42.1823 28.19 42.0623 28.29L37.5023 32.52L37.7123 32.58C38.8523 32.72 39.8723 33.03 40.7723 33.51C41.6723 33.97 42.3823 34.62 42.9023 35.46C43.4223 36.3 43.6823 37.37 43.6823 38.67C43.6823 40.03 43.2923 41.21 42.5123 42.21C41.7523 43.19 40.7123 43.95 39.3923 44.49C38.0723 45.03 36.5623 45.3 34.8623 45.3Z" fill="#021827"/>
</svg>
