<svg width="70" height="70" viewBox="0 0 70 70" fill="none" xmlns="http://www.w3.org/2000/svg">
<path d="M60.3725 12.7468C68.0707 21.7595 72.1306 34.4303 68.8615 44.0792C65.5925 53.675 54.9944 60.249 44.2381 64.8084C33.4819 69.3677 22.5674 71.9125 14.1839 68.2544C5.8003 64.5433 -0.0523734 54.6293 0.000353382 45.9347C0.0530802 37.2401 6.11666 29.7649 12.0748 21.1233C18.0329 12.4818 23.9383 2.67382 32.5855 0.500176C41.2327 -1.72649 52.6217 3.68113 60.3725 12.7468Z" fill="#C8EEA6"/>
<path d="M36.9454 45C36.7454 45 36.5654 44.93 36.4054 44.79C36.2654 44.65 36.1954 44.47 36.1954 44.25V40.86H26.8654C26.6654 40.86 26.4854 40.79 26.3254 40.65C26.1854 40.51 26.1154 40.33 26.1154 40.11V37.26C26.1154 37.08 26.1454 36.92 26.2054 36.78C26.2854 36.62 26.3654 36.47 26.4454 36.33L35.1754 24.51C35.4354 24.17 35.8054 24 36.2854 24H40.6354C40.8554 24 41.0354 24.07 41.1754 24.21C41.3354 24.35 41.4154 24.53 41.4154 24.75V36.39H44.0554C44.2954 36.39 44.4854 36.47 44.6254 36.63C44.7654 36.77 44.8354 36.94 44.8354 37.14V40.11C44.8354 40.33 44.7554 40.51 44.5954 40.65C44.4554 40.79 44.2854 40.86 44.0854 40.86H41.4154V44.25C41.4154 44.47 41.3354 44.65 41.1754 44.79C41.0354 44.93 40.8554 45 40.6354 45H36.9454ZM31.2754 36.6H36.3154V29.52L31.2754 36.6Z" fill="#021827"/>
</svg>
