<svg width="70" height="70" viewBox="0 0 70 70" fill="none" xmlns="http://www.w3.org/2000/svg">
<path d="M60.3725 12.7468C68.0707 21.7595 72.1306 34.4303 68.8615 44.0792C65.5925 53.675 54.9944 60.249 44.2381 64.8084C33.4819 69.3677 22.5674 71.9125 14.1839 68.2544C5.8003 64.5433 -0.0523734 54.6293 0.000353382 45.9347C0.0530802 37.2401 6.11666 29.7649 12.0748 21.1233C18.0329 12.4818 23.9383 2.67382 32.5855 0.500176C41.2327 -1.72649 52.6217 3.68113 60.3725 12.7468Z" fill="#C8EEA6"/>
<path d="M34.9027 45.33C33.0227 45.33 31.4527 45.04 30.1927 44.46C28.9327 43.86 27.9727 43.09 27.3127 42.15C26.6727 41.19 26.3327 40.16 26.2927 39.06C26.2927 38.88 26.3527 38.73 26.4727 38.61C26.5927 38.49 26.7427 38.43 26.9227 38.43H30.9427C31.2027 38.43 31.4027 38.49 31.5427 38.61C31.7027 38.71 31.8227 38.84 31.9027 39C32.0827 39.46 32.3127 39.84 32.5927 40.14C32.8927 40.44 33.2327 40.66 33.6127 40.8C34.0127 40.94 34.4527 41.01 34.9327 41.01C35.4927 41.01 36.0127 40.89 36.4927 40.65C36.9727 40.41 37.3527 40.06 37.6327 39.6C37.9327 39.12 38.0827 38.55 38.0827 37.89C38.0827 37.29 37.9427 36.77 37.6627 36.33C37.4027 35.89 37.0327 35.54 36.5527 35.28C36.0727 35.02 35.5327 34.89 34.9327 34.89C34.4527 34.89 34.0627 34.95 33.7627 35.07C33.4627 35.17 33.2127 35.3 33.0127 35.46C32.8127 35.62 32.6327 35.76 32.4727 35.88C32.3127 35.98 32.1327 36.03 31.9327 36.03H28.0027C27.8227 36.03 27.6627 35.97 27.5227 35.85C27.4027 35.71 27.3427 35.55 27.3427 35.37L28.4227 24.9C28.4627 24.6 28.5727 24.38 28.7527 24.24C28.9327 24.08 29.1527 24 29.4127 24H41.4427C41.6627 24 41.8427 24.07 41.9827 24.21C42.1227 24.35 42.1927 24.53 42.1927 24.75V27.57C42.1927 27.79 42.1227 27.97 41.9827 28.11C41.8427 28.25 41.6627 28.32 41.4427 28.32H32.7427L32.3527 32.22C32.7927 31.92 33.3027 31.68 33.8827 31.5C34.4827 31.3 35.2927 31.2 36.3127 31.2C37.2727 31.2 38.1827 31.36 39.0427 31.68C39.9227 32 40.7027 32.46 41.3827 33.06C42.0827 33.66 42.6227 34.38 43.0027 35.22C43.4027 36.04 43.6027 36.97 43.6027 38.01C43.6027 39.43 43.2527 40.69 42.5527 41.79C41.8727 42.89 40.8827 43.76 39.5827 44.4C38.2827 45.02 36.7227 45.33 34.9027 45.33Z" fill="#021827"/>
</svg>
