<svg width="70" height="70" viewBox="0 0 70 70" fill="none" xmlns="http://www.w3.org/2000/svg">
<path d="M60.3725 12.7468C68.0707 21.7595 72.1306 34.4303 68.8615 44.0792C65.5925 53.675 54.9944 60.249 44.2381 64.8084C33.4819 69.3677 22.5674 71.9125 14.1839 68.2544C5.8003 64.5433 -0.0523734 54.6293 0.000353382 45.9347C0.0530802 37.2401 6.11666 29.7649 12.0748 21.1233C18.0329 12.4818 23.9383 2.67382 32.5855 0.500176C41.2327 -1.72649 52.6217 3.68113 60.3725 12.7468Z" fill="#C8EEA6"/>
<path d="M35.1295 45.3C33.3695 45.3 31.8195 44.98 30.4795 44.34C29.1395 43.7 28.0895 42.82 27.3295 41.7C26.5895 40.56 26.2195 39.26 26.2195 37.8C26.2195 37.18 26.3095 36.57 26.4895 35.97C26.6895 35.35 26.9295 34.77 27.2095 34.23C27.4895 33.67 27.7695 33.18 28.0495 32.76C28.3295 32.32 28.5595 31.97 28.7395 31.71L34.0195 24.6C34.1195 24.5 34.2495 24.38 34.4095 24.24C34.5695 24.08 34.7995 24 35.0995 24H39.0895C39.2695 24 39.4195 24.07 39.5395 24.21C39.6595 24.33 39.7195 24.48 39.7195 24.66C39.7195 24.74 39.7095 24.82 39.6895 24.9C39.6695 24.96 39.6395 25.01 39.5995 25.05L35.5495 30.57C35.6695 30.53 35.8095 30.51 35.9695 30.51C36.1495 30.49 36.3095 30.48 36.4495 30.48C37.3495 30.52 38.2395 30.72 39.1195 31.08C39.9995 31.44 40.7995 31.93 41.5195 32.55C42.2395 33.17 42.8095 33.92 43.2295 34.8C43.6695 35.66 43.8895 36.63 43.8895 37.71C43.8895 39.09 43.5295 40.36 42.8095 41.52C42.0895 42.66 41.0695 43.58 39.7495 44.28C38.4495 44.96 36.9095 45.3 35.1295 45.3ZM35.0995 40.98C35.6795 40.98 36.2195 40.86 36.7195 40.62C37.2195 40.36 37.6195 40 37.9195 39.54C38.2395 39.06 38.3995 38.47 38.3995 37.77C38.3995 37.07 38.2495 36.49 37.9495 36.03C37.6495 35.55 37.2495 35.19 36.7495 34.95C36.2495 34.71 35.6995 34.59 35.0995 34.59C34.4995 34.59 33.9395 34.71 33.4195 34.95C32.9195 35.19 32.5195 35.55 32.2195 36.03C31.9195 36.49 31.7695 37.07 31.7695 37.77C31.7695 38.47 31.9195 39.06 32.2195 39.54C32.5395 40 32.9495 40.36 33.4495 40.62C33.9495 40.86 34.4995 40.98 35.0995 40.98Z" fill="#021827"/>
</svg>
