<svg width="70" height="70" viewBox="0 0 70 70" fill="none" xmlns="http://www.w3.org/2000/svg">
<path d="M60.3725 12.7468C68.0707 21.7595 72.1306 34.4303 68.8615 44.0792C65.5925 53.675 54.9944 60.249 44.2381 64.8084C33.4819 69.3677 22.5674 71.9125 14.1839 68.2544C5.8003 64.5433 -0.0523734 54.6293 0.000353382 45.9347C0.0530802 37.2401 6.11666 29.7649 12.0748 21.1233C18.0329 12.4818 23.9383 2.67382 32.5855 0.500176C41.2327 -1.72649 52.6217 3.68113 60.3725 12.7468Z" fill="#C8EEA6"/>
<path d="M30.6314 45C30.4514 45 30.3014 44.94 30.1814 44.82C30.0614 44.68 30.0014 44.52 30.0014 44.34C30.0014 44.26 30.0214 44.17 30.0614 44.07L36.9914 28.53H27.9914C27.7914 28.53 27.6114 28.46 27.4514 28.32C27.3114 28.16 27.2414 27.97 27.2414 27.75V24.75C27.2414 24.53 27.3114 24.35 27.4514 24.21C27.6114 24.07 27.7914 24 27.9914 24H42.0314C42.2714 24 42.4614 24.07 42.6014 24.21C42.7414 24.35 42.8114 24.53 42.8114 24.75V27.42C42.8114 27.72 42.7814 27.97 42.7214 28.17C42.6614 28.37 42.5814 28.57 42.4814 28.77L35.5514 44.28C35.4914 44.4 35.3814 44.55 35.2214 44.73C35.0614 44.91 34.8214 45 34.5014 45H30.6314Z" fill="#021827"/>
</svg>
