<svg width="60" height="62" viewBox="0 0 60 62" fill="none" xmlns="http://www.w3.org/2000/svg">
<path d="M30.2629 50.0219C30.9591 50.0219 31.5211 49.4599 31.5211 48.7636C31.5211 48.0673 30.9591 47.5053 30.2629 47.5053C29.5666 47.5053 29.0046 48.0673 29.0046 48.7636C29.0046 49.4599 29.5666 50.0219 30.2629 50.0219Z" fill="#021827" stroke="#021827" stroke-width="0.4"/>
<path d="M31.2081 31.6875L31.2081 31.6875L31.2086 31.6829C31.4055 29.8669 32.935 28.4976 34.7704 28.4976H47.1673C47.6651 28.4976 48.0759 28.0868 48.0759 27.5889V7.71967H48.7169C49.4568 7.71967 50.057 8.31989 50.057 9.05983V32.3039C50.057 33.0438 49.4568 33.644 48.7169 33.644H11.8193C11.0794 33.644 10.4791 33.0438 10.4791 32.3039V9.05983C10.4791 8.31989 11.0794 7.71967 11.8193 7.71967H12.4602V27.5889C12.4602 28.0868 12.871 28.4976 13.3689 28.4976H25.7657C27.592 28.4976 29.1306 29.8671 29.3275 31.6828C29.3775 32.1549 29.8142 32.4944 30.2634 32.4944H30.2634H30.2635H30.2635H30.2636H30.2636H30.2637H30.2637H30.2638H30.2638H30.2639H30.2639H30.264H30.2641H30.2641H30.2642H30.2642H30.2643H30.2643H30.2644H30.2644H30.2645H30.2645H30.2646H30.2646H30.2647H30.2647H30.2648H30.2648H30.2649H30.2649H30.265H30.265H30.2651H30.2651H30.2652H30.2652H30.2653H30.2653H30.2654H30.2654H30.2654H30.2655H30.2655H30.2656H30.2656H30.2657H30.2657H30.2658H30.2658H30.2659H30.2659H30.266H30.266H30.266H30.2661H30.2661H30.2662H30.2662H30.2663H30.2663H30.2664H30.2664H30.2664H30.2665H30.2665H30.2666H30.2666H30.2667H30.2667H30.2667H30.2668H30.2668H30.2669H30.2669H30.267H30.267H30.267H30.2671H30.2671H30.2672H30.2672H30.2672H30.2673H30.2673H30.2674H30.2674H30.2674H30.2675H30.2675H30.2676H30.2676H30.2676H30.2677H30.2677H30.2678H30.2678H30.2678H30.2679H30.2679H30.2679H30.268H30.268H30.2681H30.2681H30.2681H30.2682H30.2682H30.2682H30.2683H30.2683H30.2684H30.2684H30.2684H30.2685H30.2685H30.2685H30.2686H30.2686H30.2686H30.2687H30.2687H30.2688H30.2688H30.2688H30.2689H30.2689H30.2689H30.269H30.269H30.269H30.2691H30.2691H30.2691H30.2692H30.2692H30.2692H30.2693H30.2693H30.2693H30.2694H30.2694H30.2694H30.2695H30.2695H30.2695H30.2696H30.2696H30.2696H30.2697H30.2697H30.2697H30.2698H30.2698H30.2698H30.2699H30.2699H30.2699H30.27H30.27H30.27H30.2701H30.2701H30.2701H30.2701H30.2702H30.2702H30.2702H30.2703H30.2703H30.2703H30.2704H30.2704H30.2704H30.2705H30.2705H30.2705H30.2705H30.2706H30.2706H30.2706H30.2707H30.2707H30.2707H30.2708H30.2708H30.2708H30.2708H30.2709H30.2709H30.2709H30.271H30.271H30.271H30.271H30.2711H30.2711H30.2711H30.2712H30.2712H30.2712H30.2713H30.2713H30.2713H30.2713H30.2714H30.2714H30.2714H30.2715H30.2715H30.2715H30.2715H30.2716H30.2716H30.2716H30.2717H30.2717H30.2717H30.2717H30.2718H30.2718H30.2718H30.2719H30.2719H30.2719H30.2719H30.272H30.272H30.272H30.272H30.2721H30.2721H30.2721H30.2722H30.2722H30.2722H30.2722H30.2723H30.2723H30.2723H30.2724H30.2724H30.2724H30.2724H30.2725H30.2725H30.2725H30.2726H30.2726H30.2726H30.2726H30.2727H30.2727H30.2727H30.2727H30.2728H30.2728H30.2728H30.2729H30.2729H30.2729H30.2729H30.273H30.273H30.273H30.273H30.2731H30.2731H30.2731H30.2732H30.2732H30.2732H30.2732H30.2733H30.2733H30.2733H30.2734H30.2734H30.2734H30.2734H30.2735H30.2735H30.2735H30.2736H30.2736H30.2736H30.2736H30.2737H30.2737H30.2737H30.2737H30.2738H30.2738H30.2738H30.2739H30.2739H30.2739H30.2739H30.274H30.274H30.274H30.2741H30.2741H30.2741H30.2741H30.2742H30.2742H30.2742H30.2743H30.2743H30.2743H30.2743H30.2744H30.2744H30.2744H30.2745H30.2745H30.2745H30.2745H30.2746H30.2746H30.2746H30.2747H30.2747H30.2747H30.2748H30.2748H30.2748H30.2748H30.2749H30.2749H30.2749H30.275H30.275H30.275H30.2751H30.2751H30.2751H30.2751H30.2752H30.2752H30.2752H30.2753H30.2753H30.2753H30.2754H30.2754H30.2754H30.2755H30.2755H30.2755H30.2756H30.2756H30.2756H30.2756H30.2757H30.2757H30.2757H30.2758H30.2758H30.2758H30.2759H30.2759H30.2759H30.276H30.276H30.276H30.2761H30.2761H30.2761H30.2762H30.2762H30.2762H30.2763H30.2763H30.2763H30.2764H30.2764H30.2764H30.2765H30.2765H30.2765H30.2766H30.2766H30.2766H30.2767H30.2767H30.2767H30.2768H30.2768H30.2768H30.2769H30.2769H30.277H30.277H30.277H30.2771H30.2771H30.2771H30.2772H30.2772H30.2772H30.2773H30.2773H30.2774H30.2774H30.2774H30.2775H30.2775H30.2775H30.2776H30.2776H30.2777H30.2777H30.2777H30.2778H30.2778H30.2778H30.2779H30.2779H30.278H30.278H30.278H30.2781H30.2781H30.2782H30.2782H30.2782H30.2783H30.2783H30.2784H30.2784H30.2784H30.2785H30.2785H30.2786H30.2786H30.2786H30.2787H30.2787H30.2788H30.2788H30.2789H30.2789H30.2789H30.279H30.279H30.2791H30.2791H30.2792H30.2792H30.2792H30.2793H30.2793H30.2794H30.2794H30.2795H30.2795H30.2796H30.2796H30.2796H30.2797H30.2797H30.2798H30.2798H30.2799H30.2799H30.28H30.28H30.2801H30.2801H30.2802H30.2802H30.2802H30.2803H30.2803H30.2804H30.2804H30.2805H30.2805H30.2806H30.2806H30.2807H30.2807H30.2808H30.2808H30.2809H30.2809H30.281H30.281H30.2811H30.2811H30.2812H30.2812H30.2813H30.2813H30.2814H30.2814H30.2815H30.2815H30.2816H30.2817H30.2817H30.2818H30.2818H30.2819H30.2819H30.282H30.282H30.2821H30.2821H30.2822H30.2822H30.2823H30.2824H30.2824H30.2825H30.2825H30.2826H30.2826H30.2827H30.2827H30.2828H30.2828H30.2829H30.283H30.283H30.2831H30.2831H30.2832H30.2832H30.2833H30.2833H30.2834H30.2834H30.2835H30.2835H30.2836H30.2836H30.2837H30.2837H30.2838H30.2838H30.2839H30.2839H30.284H30.284H30.2841H30.2841H30.2842H30.2842H30.2843H30.2843H30.2843H30.2844H30.2844H30.2845H30.2845H30.2846H30.2846H30.2847H30.2847H30.2848H30.2848H30.2849H30.2849H30.2849H30.285H30.285H30.2851H30.2851H30.2852H30.2852H30.2853H30.2853H30.2853H30.2854H30.2854H30.2855H30.2855H30.2856H30.2856H30.2856H30.2857H30.2857H30.2858H30.2858H30.2859H30.2859H30.2859H30.286H30.286H30.2861H30.2861H30.2861H30.2862H30.2862H30.2863H30.2863H30.2863H30.2864H30.2864H30.2865H30.2865H30.2865H30.2866H30.2866H30.2867H30.2867H30.2867H30.2868H30.2868H30.2868H30.2869H30.2869H30.287H30.287H30.287H30.2871H30.2871H30.2871H30.2872H30.2872H30.2873H30.2873H30.2873H30.2874H30.2874H30.2874H30.2875H30.2875H30.2875H30.2876H30.2876H30.2876H30.2877H30.2877H30.2878H30.2878H30.2878H30.2879H30.2879H30.2879H30.288H30.288H30.288H30.2881H30.2881H30.2881H30.2882H30.2882H30.2882H30.2883H30.2883H30.2883H30.2884H30.2884H30.2884H30.2885H30.2885H30.2885H30.2886H30.2886H30.2886H30.2887H30.2887H30.2887H30.2888H30.2888H30.2888H30.2889H30.2889H30.2889H30.2889H30.289H30.289H30.289H30.2891H30.2891H30.2891H30.2892H30.2892H30.2892H30.2893H30.2893H30.2893H30.2894H30.2894H30.2894H30.2894H30.2895H30.2895H30.2895H30.2896H30.2896H30.2896H30.2897H30.2897H30.2897H30.2897H30.2898H30.2898H30.2898H30.2899H30.2899H30.2899H30.2899H30.29H30.29H30.29H30.2901H30.2901H30.2901H30.2902H30.2902H30.2902H30.2902H30.2903H30.2903H30.2903H30.2904H30.2904H30.2904H30.2904H30.2905H30.2905H30.2905H30.2906H30.2906H30.2906H30.2906H30.2907H30.2907H30.2907H30.2908H30.2908H30.2908H30.2908H30.2909H30.2909H30.2909H30.2909H30.291H30.291H30.291H30.2911H30.2911H30.2911H30.2911H30.2912H30.2912H30.2912H30.2913H30.2913H30.2913H30.2913H30.2914H30.2914H30.2914H30.2914H30.2915H30.2915H30.2915H30.2916H30.2916H30.2916H30.2916H30.2917H30.2917H30.2917H30.2918H30.2918H30.2918H30.2918H30.2919H30.2919H30.2919H30.2919H30.292H30.292H30.292H30.2921H30.2921H30.2921H30.2921H30.2922H30.2922H30.2922H30.2923H30.2923H30.2923H30.2923H30.2924H30.2924H30.2924H30.2924H30.2925H30.2925H30.2925H30.2926H30.2926H30.2926H30.2926H30.2927H30.2927H30.2927H30.2928H30.2928H30.2928H30.2928H30.2929H30.2929H30.2929H30.293H30.293H30.293H30.293H30.2931H30.2931H30.2931H30.2932H30.2932H30.2932H30.2932H30.2933H30.2933H30.2933H30.2934H30.2934H30.2934H30.2934H30.2935H30.2935H30.2935H30.2936H30.2936H30.2936H30.2937H30.2937H30.2937H30.2937H30.2938H30.2938H30.2938H30.2939H30.2939H30.2939H30.294H30.294H30.294H30.294H30.2941H30.2941H30.2941H30.2942H30.2942H30.2942H30.2943H30.2943H30.2943H30.2944H30.2944H30.2944H30.2944H30.2945H30.2945H30.2945H30.2946H30.2946H30.2946H30.2947H30.2947H30.2947H30.2948H30.2948H30.2948H30.2949H30.2949H30.2949H30.295H30.295H30.295H30.2951H30.2951H30.2951H30.2952H30.2952H30.2952H30.2953H30.2953H30.2953H30.2954H30.2954H30.2954H30.2955H30.2955H30.2955H30.2956H30.2956H30.2956H30.2957H30.2957H30.2957H30.2958H30.2958H30.2959H30.2959H30.2959H30.296H30.296H30.296H30.2961H30.2961H30.2961H30.2962H30.2962H30.2963H30.2963H30.2963H30.2964H30.2964H30.2964H30.2965H30.2965H30.2966H30.2966H30.2966H30.2967H30.2967H30.2967H30.2968H30.2968H30.2969H30.2969H30.2969H30.297H30.297H30.2971H30.2971H30.2971H30.2972H30.2972H30.2973H30.2973H30.2973H30.2974H30.2974H30.2975H30.2975H30.2975H30.2976H30.2976H30.2977H30.2977H30.2978H30.2978H30.2978H30.2979H30.2979H30.298H30.298H30.2981H30.2981H30.2981H30.2982H30.2982H30.2983H30.2983H30.2984H30.2984H30.2985H30.2985H30.2985H30.2986H30.2986H30.2987H30.2987H30.2988H30.2988H30.2989H30.2989H30.299H30.299H30.299H30.2991H30.2991H30.2992H30.2992H30.2993H30.2993H30.2994H30.2994H30.2995H30.2995H30.2996H30.2996H30.2997H30.2997H30.2998H30.2998H30.2999H30.2999H30.3H30.3H30.3001H30.3001H30.3002H30.3002H30.3003H30.3003H30.3004H30.3004H30.3005H30.3006H30.3006H30.3007H30.3007H30.3008H30.3008H30.3009H30.3009H30.301H30.301H30.3011H30.3011C30.7645 32.4944 31.1483 32.142 31.2081 31.6875ZM11.8193 35.4519H48.698C50.4431 35.4519 51.8554 34.0395 51.8554 32.2944V9.05983C51.8554 7.31473 50.4431 5.90235 48.698 5.90235H48.057V1.70866C48.057 1.2108 47.6462 0.8 47.1484 0.8H34.761C32.884 0.8 31.235 1.76662 30.2633 3.22159C29.2917 1.76662 27.6427 0.8 25.7657 0.8H13.3689C12.871 0.8 12.4602 1.2108 12.4602 1.70866V5.90235H11.8193C10.0742 5.90235 8.66182 7.31473 8.66182 9.05983V32.3039C8.66182 34.0404 10.0845 35.4519 11.8193 35.4519ZM34.761 2.61732H46.2491V26.6803H34.761C33.3918 26.6803 32.1311 27.192 31.172 28.0427V6.20629C31.172 4.22856 32.7833 2.61732 34.761 2.61732ZM14.2776 2.61732H25.7657C27.7435 2.61732 29.3547 4.22856 29.3547 6.20629V28.0333C28.3956 27.1825 27.1349 26.6708 25.7657 26.6708H14.2776V2.61732Z" fill="#021827" stroke="#021827" stroke-width="0.4"/>
<path d="M34.4679 8.02211H42.953C43.4508 8.02211 43.8616 7.6113 43.8616 7.11345C43.8616 6.61559 43.4508 6.20479 42.953 6.20479H34.4679C33.9701 6.20479 33.5593 6.61559 33.5593 7.11345C33.5593 7.60956 33.9589 8.02211 34.4679 8.02211Z" fill="#021827" stroke="#021827" stroke-width="0.4"/>
<path d="M34.4679 12.7936H42.953C43.4508 12.7936 43.8616 12.3828 43.8616 11.8849C43.8616 11.3871 43.4508 10.9763 42.953 10.9763H34.4679C33.9701 10.9763 33.5593 11.3871 33.5593 11.8849C33.5593 12.381 33.9589 12.7936 34.4679 12.7936Z" fill="#021827" stroke="#021827" stroke-width="0.4"/>
<path d="M34.4679 17.556H42.953C43.4508 17.556 43.8616 17.1452 43.8616 16.6474C43.8616 16.1495 43.4508 15.7387 42.953 15.7387H34.4679C33.9701 15.7387 33.5593 16.1495 33.5593 16.6474C33.5593 17.1435 33.9589 17.556 34.4679 17.556Z" fill="#021827" stroke="#021827" stroke-width="0.4"/>
<path d="M17.5734 8.02211H26.0584C26.5563 8.02211 26.9671 7.6113 26.9671 7.11345C26.9671 6.61559 26.5563 6.20479 26.0584 6.20479H17.5734C17.0755 6.20479 16.6647 6.61559 16.6647 7.11345C16.6647 7.6113 17.0755 8.02211 17.5734 8.02211Z" fill="#021827" stroke="#021827" stroke-width="0.4"/>
<path d="M17.5734 12.7936H26.0584C26.5563 12.7936 26.9671 12.3828 26.9671 11.8849C26.9671 11.3871 26.5563 10.9763 26.0584 10.9763H17.5734C17.0755 10.9763 16.6647 11.3871 16.6647 11.8849C16.6647 12.3828 17.0755 12.7936 17.5734 12.7936Z" fill="#021827" stroke="#021827" stroke-width="0.4"/>
<path d="M17.5734 17.556H26.0584C26.5563 17.556 26.9671 17.1452 26.9671 16.6474C26.9671 16.1495 26.5563 15.7387 26.0584 15.7387H17.5734C17.0755 15.7387 16.6647 16.1495 16.6647 16.6474C16.6647 17.1452 17.0755 17.556 17.5734 17.556Z" fill="#021827" stroke="#021827" stroke-width="0.4"/>
<path d="M17.5734 22.3275H26.0584C26.5563 22.3275 26.9671 21.9167 26.9671 21.4189C26.9671 20.921 26.5563 20.5102 26.0584 20.5102H17.5734C17.0755 20.5102 16.6647 20.921 16.6647 21.4189C16.6647 21.9167 17.0755 22.3275 17.5734 22.3275Z" fill="#021827" stroke="#021827" stroke-width="0.4"/>
<path d="M54.7164 10.5986H53.7905C53.2926 10.5986 52.8818 11.0094 52.8818 11.5072C52.8818 12.0051 53.2926 12.4159 53.7905 12.4159H54.7164C56.4768 12.4159 57.9086 13.8476 57.9086 15.608V43.0741H2.61732V15.608C2.61732 13.8476 4.04903 12.4159 5.80944 12.4159H6.73542C7.23328 12.4159 7.64408 12.0051 7.64408 11.5072C7.64408 11.0094 7.23328 10.5986 6.73542 10.5986H5.80944C3.04387 10.5986 0.8 12.8425 0.8 15.608V49.4536C0.8 52.2192 3.04387 54.4631 5.80944 54.4631H19.8393V59.3827H17.5354C17.0375 59.3827 16.6267 59.7935 16.6267 60.2914C16.6267 60.7893 17.0375 61.2001 17.5354 61.2001H42.981C43.4789 61.2001 43.8897 60.7893 43.8897 60.2914C43.8897 59.7935 43.4789 59.3827 42.981 59.3827H40.6771V54.4631H54.707C57.4726 54.4631 59.7164 52.2192 59.7164 49.4536V15.6087C59.7263 12.8425 57.4819 10.5986 54.7164 10.5986ZM38.8692 59.3827H21.6567V54.4631H38.8692V59.3827ZM57.9086 49.4536C57.9086 51.214 56.4768 52.6457 54.7164 52.6457H5.80944C4.04903 52.6457 2.61732 51.214 2.61732 49.4536V44.8914H57.9086V49.4536Z" fill="#021827" stroke="#021827" stroke-width="0.4"/>
</svg>
