<svg width="62" height="62" viewBox="0 0 62 62" fill="none" xmlns="http://www.w3.org/2000/svg">
<path d="M3.87894 19.6262H3.87882C3.35666 19.629 2.93354 20.0528 2.93354 20.5762V59.3H1.75C1.22499 59.3 0.8 59.725 0.8 60.25C0.8 60.775 1.22499 61.2 1.75 61.2H60.25C60.775 61.2 61.2 60.775 61.2 60.25C61.2 59.725 60.775 59.3 60.25 59.3H58.8445V35.5571C58.8445 26.1248 53.7997 17.4468 45.6514 12.7552V1.75C45.6514 1.22499 45.2264 0.8 44.7014 0.8H17.2986C16.7736 0.8 16.3486 1.22499 16.3486 1.75V19.5676L3.87894 19.6262ZM16.3486 43.301H4.83354V37.3443H16.3486V43.301ZM16.3486 35.4443H4.83354V29.4883H16.3486V35.4443ZM4.83354 45.201H16.3486V51.1569H4.83354V45.201ZM35.5227 59.3H26.4773V52.3721H35.5227V59.3ZM56.9445 35.5571V59.3H45.6514V14.975C52.6533 19.4397 56.9445 27.178 56.9445 35.5571ZM43.7514 2.7V59.3H37.4227V51.4221C37.4227 50.8971 36.9977 50.4721 36.4727 50.4721H25.5273C25.0023 50.4721 24.5773 50.8971 24.5773 51.4221V59.3H18.2486V2.7H43.7514ZM16.3486 27.5883H4.83354V21.5216L16.3486 21.4676V27.5883ZM4.83354 53.0569H16.3486V59.3H4.83354V53.0569Z" fill="#021827" stroke="#021827" stroke-width="0.4"/>
<path d="M24.6294 11.0057C25.1544 11.0057 25.5794 10.5807 25.5794 10.0557V7.17065C25.5794 6.64565 25.1544 6.22065 24.6294 6.22065C24.1044 6.22065 23.6794 6.64565 23.6794 7.17065V10.0557C23.6794 10.5807 24.1044 11.0057 24.6294 11.0057Z" fill="#021827" stroke="#021827" stroke-width="0.4"/>
<path d="M31 11.0057C31.525 11.0057 31.95 10.5807 31.95 10.0557V7.17065C31.95 6.64565 31.525 6.22065 31 6.22065C30.475 6.22065 30.05 6.64565 30.05 7.17065V10.0557C30.05 10.5807 30.475 11.0057 31 11.0057Z" fill="#021827" stroke="#021827" stroke-width="0.4"/>
<path d="M37.3706 11.0057C37.8956 11.0057 38.3206 10.5807 38.3206 10.0557V7.17065C38.3206 6.64565 37.8956 6.22065 37.3706 6.22065C36.8456 6.22065 36.4206 6.64565 36.4206 7.17065V10.0557C36.4206 10.5807 36.8456 11.0057 37.3706 11.0057Z" fill="#021827" stroke="#021827" stroke-width="0.4"/>
<path d="M24.6294 19.5545C25.1544 19.5545 25.5794 19.1295 25.5794 18.6045V15.7195C25.5794 15.1945 25.1544 14.7695 24.6294 14.7695C24.1044 14.7695 23.6794 15.1945 23.6794 15.7195V18.6045C23.6794 19.1295 24.1044 19.5545 24.6294 19.5545Z" fill="#021827" stroke="#021827" stroke-width="0.4"/>
<path d="M31 19.5545C31.525 19.5545 31.95 19.1295 31.95 18.6045V15.7195C31.95 15.1945 31.525 14.7695 31 14.7695C30.475 14.7695 30.05 15.1945 30.05 15.7195V18.6045C30.05 19.1295 30.475 19.5545 31 19.5545Z" fill="#021827" stroke="#021827" stroke-width="0.4"/>
<path d="M37.3706 19.5545C37.8956 19.5545 38.3206 19.1295 38.3206 18.6045V15.7195C38.3206 15.1945 37.8956 14.7695 37.3706 14.7695C36.8456 14.7695 36.4206 15.1945 36.4206 15.7195V18.6045C36.4206 19.1295 36.8456 19.5545 37.3706 19.5545Z" fill="#021827" stroke="#021827" stroke-width="0.4"/>
<path d="M24.6294 28.1033C25.1544 28.1033 25.5794 27.6783 25.5794 27.1533V24.2683C25.5794 23.7433 25.1544 23.3183 24.6294 23.3183C24.1044 23.3183 23.6794 23.7433 23.6794 24.2683V27.1533C23.6794 27.6783 24.1044 28.1033 24.6294 28.1033Z" fill="#021827" stroke="#021827" stroke-width="0.4"/>
<path d="M31 28.1033C31.525 28.1033 31.95 27.6783 31.95 27.1533V24.2683C31.95 23.7433 31.525 23.3183 31 23.3183C30.475 23.3183 30.05 23.7433 30.05 24.2683V27.1533C30.05 27.6783 30.475 28.1033 31 28.1033Z" fill="#021827" stroke="#021827" stroke-width="0.4"/>
<path d="M37.3706 28.1033C37.8956 28.1033 38.3206 27.6783 38.3206 27.1533V24.2683C38.3206 23.7433 37.8956 23.3183 37.3706 23.3183C36.8456 23.3183 36.4206 23.7433 36.4206 24.2683V27.1533C36.4206 27.6783 36.8456 28.1033 37.3706 28.1033Z" fill="#021827" stroke="#021827" stroke-width="0.4"/>
<path d="M24.6294 36.6521C25.1544 36.6521 25.5794 36.2272 25.5794 35.7021V32.8171C25.5794 32.2921 25.1544 31.8671 24.6294 31.8671C24.1044 31.8671 23.6794 32.2921 23.6794 32.8171V35.7021C23.6794 36.2272 24.1044 36.6521 24.6294 36.6521Z" fill="#021827" stroke="#021827" stroke-width="0.4"/>
<path d="M31 36.6521C31.525 36.6521 31.95 36.2272 31.95 35.7021V32.8171C31.95 32.2921 31.525 31.8671 31 31.8671C30.475 31.8671 30.05 32.2921 30.05 32.8171V35.7021C30.05 36.2272 30.475 36.6521 31 36.6521Z" fill="#021827" stroke="#021827" stroke-width="0.4"/>
<path d="M37.3706 36.6521C37.8956 36.6521 38.3206 36.2272 38.3206 35.7021V32.8171C38.3206 32.2921 37.8956 31.8671 37.3706 31.8671C36.8456 31.8671 36.4206 32.2921 36.4206 32.8171V35.7021C36.4206 36.2272 36.8456 36.6521 37.3706 36.6521Z" fill="#021827" stroke="#021827" stroke-width="0.4"/>
<path d="M24.6294 45.201C25.1544 45.201 25.5794 44.776 25.5794 44.251V41.3652C25.5794 40.8402 25.1544 40.4152 24.6294 40.4152C24.1044 40.4152 23.6794 40.8402 23.6794 41.3652V44.251C23.6794 44.776 24.1044 45.201 24.6294 45.201Z" fill="#021827" stroke="#021827" stroke-width="0.4"/>
<path d="M31 45.201C31.525 45.201 31.95 44.776 31.95 44.251V41.3652C31.95 40.8402 31.525 40.4152 31 40.4152C30.475 40.4152 30.05 40.8402 30.05 41.3652V44.251C30.05 44.776 30.475 45.201 31 45.201Z" fill="#021827" stroke="#021827" stroke-width="0.4"/>
<path d="M37.3706 45.201C37.8956 45.201 38.3206 44.776 38.3206 44.251V41.3652C38.3206 40.8402 37.8956 40.4152 37.3706 40.4152C36.8456 40.4152 36.4206 40.8402 36.4206 41.3652V44.251C36.4206 44.776 36.8456 45.201 37.3706 45.201Z" fill="#021827" stroke="#021827" stroke-width="0.4"/>
<path d="M49.5107 37.5127H53.0857C53.6107 37.5127 54.0357 37.0878 54.0357 36.5627C54.0357 36.0377 53.6107 35.6127 53.0857 35.6127H49.5107C48.9857 35.6127 48.5607 36.0377 48.5607 36.5627C48.5607 37.0878 48.9857 37.5127 49.5107 37.5127Z" fill="#021827" stroke="#021827" stroke-width="0.4"/>
<path d="M49.5107 45.5372H53.0857C53.6107 45.5372 54.0357 45.1122 54.0357 44.5872C54.0357 44.0622 53.6107 43.6372 53.0857 43.6372H49.5107C48.9857 43.6372 48.5607 44.0622 48.5607 44.5872C48.5607 45.1122 48.9857 45.5372 49.5107 45.5372Z" fill="#021827" stroke="#021827" stroke-width="0.4"/>
<path d="M53.0857 51.6608H49.5107C48.9857 51.6608 48.5607 52.0858 48.5607 52.6108C48.5607 53.1358 48.9857 53.5608 49.5107 53.5608H53.0857C53.6107 53.5608 54.0357 53.1358 54.0357 52.6108C54.0357 52.0858 53.6107 51.6608 53.0857 51.6608Z" fill="#021827" stroke="#021827" stroke-width="0.4"/>
</svg>
