<svg width="53" height="56" viewBox="0 0 53 56" fill="none" xmlns="http://www.w3.org/2000/svg">
<path d="M51.2532 5.19856H34.8593V1.12829C34.8593 0.504909 34.3544 0 33.731 0H10.2432C9.61983 0 9.11492 0.504909 9.11492 1.12829V7.44668H4.81617C4.19279 7.44668 3.68788 7.95159 3.68788 8.57497V35.7751L0.0209761 54.6545C-0.0438997 54.9845 0.0435417 55.3287 0.25792 55.5882C0.47229 55.8477 0.791034 56 1.1295 56L18.3444 55.9972H50.4159H50.4385C51.0618 55.9972 51.5667 55.4923 51.5667 54.8689C51.5667 54.7166 51.5357 54.5699 51.4821 54.4373L47.8547 35.7753V24.7604H51.2536C51.877 24.7604 52.3819 24.2554 52.3819 23.6321V6.32688C52.3819 5.7035 51.8766 5.19856 51.2532 5.19856ZM11.3715 2.25657H32.6028V17.8944H28.9753C28.9697 17.8944 28.9641 17.8916 28.9556 17.8916C28.95 17.8916 28.9443 17.8944 28.9358 17.8944H18.5925C18.3724 17.8944 18.1581 17.9593 17.9747 18.0778L11.3714 22.3963L11.3715 2.25657ZM19.7233 53.7403L20.5582 49.6446H30.9811L31.8159 53.7403H19.7233ZM34.1228 53.7403L33.0086 48.2907C32.9014 47.766 32.4388 47.3881 31.9029 47.3881H19.6387C19.1028 47.3881 18.6402 47.766 18.533 48.2907L17.4216 53.7403H2.49721L5.74386 37.0273H45.8011L49.0477 53.7403H34.1228ZM45.5977 34.7707H5.94417V9.70578H9.11463V24.4807C9.11463 24.8954 9.34029 25.2762 9.70698 25.4736C9.8734 25.5639 10.0596 25.609 10.2429 25.609C10.4601 25.609 10.6745 25.547 10.8607 25.4257L18.9309 20.1509H27.8272V23.6317C27.8272 24.255 28.3321 24.76 28.9555 24.76H34.7718L38.419 30.3647C38.6221 30.6778 38.9662 30.8696 39.3385 30.8781H39.3639C39.7278 30.8781 40.0691 30.7032 40.2806 30.407L44.334 24.76H45.5977L45.5977 34.7707ZM50.1249 22.5036H43.753C43.3891 22.5036 43.0478 22.6785 42.8362 22.9747L39.4091 27.7501L36.3289 23.017C36.1201 22.6982 35.7619 22.5036 35.3811 22.5036H30.0867V20.1511H33.7339C34.3572 20.1511 34.8621 19.6462 34.8621 19.0229L34.8593 7.45477H50.1253L50.1249 22.5036Z" fill="#021827"/>
<path d="M37.8207 20.6055C38.0012 20.7155 38.2043 20.7719 38.4102 20.7719C38.5851 20.7719 38.7628 20.7324 38.9236 20.6478L47.0841 16.4788C47.4564 16.287 47.6934 15.9034 47.699 15.4831C47.7046 15.0628 47.4733 14.6764 47.1038 14.479L38.9433 10.1181C38.5936 9.93194 38.1705 9.94041 37.832 10.1463C37.4907 10.3494 37.2819 10.7189 37.2819 11.1138V19.6433C37.2819 20.0353 37.4879 20.3996 37.8207 20.6055ZM39.5385 12.9953L44.1363 15.4521L39.5385 17.7989V12.9953Z" fill="#021827"/>
<path d="M19.376 16.1063C21.8356 16.1063 23.8355 14.4506 23.8355 12.414V7.03774L26.4503 6.09843C27.0371 5.88687 27.3417 5.24093 27.1301 4.65422C26.9186 4.06751 26.2726 3.76286 25.6859 3.97443L22.3265 5.18453C21.878 5.34531 21.5819 5.77124 21.5819 6.24515V9.22383C20.9303 8.91355 20.1828 8.72174 19.3789 8.72174C16.9193 8.72174 14.9193 10.3775 14.9193 12.4141C14.9165 14.4506 16.9163 16.1063 19.376 16.1063ZM19.376 10.9783C20.5494 10.9783 21.579 11.6496 21.579 12.414C21.579 13.1784 20.5494 13.8498 19.376 13.8498C18.2026 13.8498 17.173 13.1784 17.173 12.414C17.173 11.6496 18.2026 10.9783 19.376 10.9783Z" fill="#021827"/>
<path d="M26.6259 25.5615H16.8689C16.2455 25.5615 15.7406 26.0664 15.7406 26.6898C15.7406 27.3132 16.2455 27.8181 16.8689 27.8181H26.6259C27.2493 27.8181 27.7542 27.3132 27.7542 26.6898C27.7542 26.0664 27.2493 25.5615 26.6259 25.5615Z" fill="#021827"/>
<path d="M26.6259 29.8179H16.8689C16.2455 29.8179 15.7406 30.3228 15.7406 30.9462C15.7406 31.5695 16.2455 32.0744 16.8689 32.0744H26.6259C27.2493 32.0744 27.7542 31.5695 27.7542 30.9462C27.7542 30.3228 27.2493 29.8179 26.6259 29.8179Z" fill="#021827"/>
</svg>
