<svg width="51" height="54" viewBox="0 0 51 54" fill="none" xmlns="http://www.w3.org/2000/svg">
<path d="M8.41372 15.6349C12.5284 15.6349 15.8774 12.357 15.8774 8.30979C15.8774 4.26291 12.5287 0.95 8.41372 0.95C4.29909 0.95 0.95 4.22796 0.95 8.27515C0.95 12.322 4.29878 15.6349 8.41372 15.6349ZM8.41372 2.43574C11.713 2.43574 14.3917 5.0474 14.3917 8.27515C14.3917 11.5029 11.713 14.1146 8.41372 14.1146C5.11441 14.1146 2.43574 11.5029 2.43574 8.27515C2.43574 5.0474 5.11441 2.43574 8.41372 2.43574Z" fill="#021827" stroke="#021827" stroke-width="0.1"/>
<path d="M42.9533 15.635C47.0679 15.635 50.417 12.357 50.417 8.30985C50.417 4.26273 47.068 0.98481 42.9535 0.984698C38.8385 0.949939 35.4896 4.22816 35.4896 8.2752C35.4896 12.3221 38.8383 15.635 42.9533 15.635ZM48.9659 8.2752C48.9659 11.503 46.2872 14.1146 42.9879 14.1146C39.6882 14.1146 36.9753 11.5026 36.9753 8.2752C36.9753 5.04745 39.654 2.4358 42.9533 2.4358C46.253 2.4358 48.9659 5.04782 48.9659 8.2752Z" fill="#021827" stroke="#021827" stroke-width="0.1"/>
<mask id="path-3-outside-1_274_1497" maskUnits="userSpaceOnUse" x="0.416016" y="16.5249" width="51" height="37" fill="black">
<rect fill="white" x="0.416016" y="16.5249" width="51" height="37"/>
<path d="M50.6792 24.4536C50.6792 24.419 50.6792 24.3843 50.6792 24.3843V24.0033C50.6792 23.934 50.6792 23.8647 50.6445 23.83C50.2981 20.2964 47.2841 17.5249 43.5772 17.5249C39.6625 17.5249 36.4753 20.6428 36.4753 24.4883V26.9826L33.981 30.447H27.2601H24.5926H17.8717L15.6199 27.329V24.4883C15.6199 20.6428 12.4327 17.5249 8.51795 17.5249C4.60322 17.5249 1.41602 20.6428 1.41602 24.4883V44.7201V44.7548C1.41602 44.7894 1.41602 44.7894 1.41602 44.824C1.41602 44.8587 1.41602 44.8587 1.41602 44.8933V44.928L3.77178 52.5149C3.87571 52.8267 4.15286 52.9999 4.43001 52.9999C4.49929 52.9999 4.56858 52.9999 4.63787 52.9653C5.01895 52.8613 5.19216 52.4803 5.08823 52.0992L2.76711 44.6162V24.4536C2.76711 21.3703 5.33074 18.876 8.4833 18.876C11.6359 18.876 14.1995 21.3703 14.1995 24.4536V25.3543L12.0862 22.4096C11.8784 22.0979 11.428 22.0286 11.1162 22.2364C10.8737 22.4096 10.7698 22.7561 10.8737 23.0332C10.9084 23.1025 10.9084 23.1718 10.9776 23.2064L17.1788 31.7981H24.6272H27.2948C28.4034 31.7981 29.3041 32.6641 29.3041 33.7727C29.3041 34.8813 28.4034 35.7474 27.2948 35.7474H24.6272H16.1049C15.4467 35.7474 14.8231 35.4356 14.442 34.916L6.8897 24.4536L6.78577 24.2804C6.57791 23.9686 6.12754 23.8993 5.81575 24.1418C5.50396 24.3497 5.43467 24.8001 5.67717 25.1118L13.368 35.7474C13.6106 36.0939 13.9223 36.371 14.2688 36.6135V44.7548V52.2724C14.2688 52.6535 14.5806 52.9653 14.9617 52.9653C15.3427 52.9653 15.6545 52.6535 15.6545 52.2724V44.6855V37.0639C15.8277 37.0985 16.001 37.0985 16.1395 37.0985H24.6272H27.2948H35.7824C36.0249 37.0985 36.2674 37.0639 36.51 37.0292V44.6855V52.2724C36.51 52.6535 36.8217 52.9653 37.2028 52.9653C37.5839 52.9653 37.8957 52.6535 37.8957 52.2724V44.6855V24.4536C37.8957 21.3703 40.4593 18.876 43.6119 18.876C46.7298 18.876 49.2588 21.3357 49.3281 24.3843V35.401L46.2448 44.6855L44.9976 48.4616C44.7205 49.2584 43.9583 49.8127 43.0922 49.8127C42.8844 49.8127 42.6419 49.7781 42.434 49.7088C41.9143 49.5356 41.4986 49.1891 41.2561 48.7041C41.0136 48.2537 40.979 47.6995 41.1522 47.2144L41.9836 44.7201L45.2748 34.7774V22.8254C45.2748 22.4443 44.963 22.1325 44.5819 22.1325C44.2008 22.1325 43.889 22.4443 43.889 22.8254V34.5349L40.5286 44.6855L39.8357 46.7641C39.5586 47.5955 39.5932 48.4963 40.009 49.2931C40.4247 50.0899 41.1175 50.7134 41.9836 50.9906C42.3301 51.0945 42.7111 51.1638 43.0576 51.1638C44.5126 51.1638 45.8291 50.2631 46.2794 48.8773L47.6652 44.6508L49.2934 39.7661V44.5469L49.2588 44.6508L46.9723 52.0299C46.8684 52.411 47.0762 52.7921 47.4227 52.896C47.492 52.9306 47.5612 52.9306 47.6305 52.9306C47.9423 52.9306 48.1848 52.7228 48.2888 52.4456L50.6445 44.8587V44.824C50.6445 44.7894 50.6445 44.7894 50.6445 44.7548C50.6445 44.7201 50.6445 44.7201 50.6445 44.6855V44.6508L50.6792 24.4536ZM30.0316 35.7474C30.4473 35.1931 30.6898 34.5003 30.6898 33.7727C30.6898 33.0452 30.4473 32.3524 30.0316 31.7981H34.7085L36.51 29.3037V35.5742C36.2674 35.6781 36.0249 35.7128 35.7824 35.7128H30.0316V35.7474Z"/>
</mask>
<path d="M50.6792 24.4536C50.6792 24.419 50.6792 24.3843 50.6792 24.3843V24.0033C50.6792 23.934 50.6792 23.8647 50.6445 23.83C50.2981 20.2964 47.2841 17.5249 43.5772 17.5249C39.6625 17.5249 36.4753 20.6428 36.4753 24.4883V26.9826L33.981 30.447H27.2601H24.5926H17.8717L15.6199 27.329V24.4883C15.6199 20.6428 12.4327 17.5249 8.51795 17.5249C4.60322 17.5249 1.41602 20.6428 1.41602 24.4883V44.7201V44.7548C1.41602 44.7894 1.41602 44.7894 1.41602 44.824C1.41602 44.8587 1.41602 44.8587 1.41602 44.8933V44.928L3.77178 52.5149C3.87571 52.8267 4.15286 52.9999 4.43001 52.9999C4.49929 52.9999 4.56858 52.9999 4.63787 52.9653C5.01895 52.8613 5.19216 52.4803 5.08823 52.0992L2.76711 44.6162V24.4536C2.76711 21.3703 5.33074 18.876 8.4833 18.876C11.6359 18.876 14.1995 21.3703 14.1995 24.4536V25.3543L12.0862 22.4096C11.8784 22.0979 11.428 22.0286 11.1162 22.2364C10.8737 22.4096 10.7698 22.7561 10.8737 23.0332C10.9084 23.1025 10.9084 23.1718 10.9776 23.2064L17.1788 31.7981H24.6272H27.2948C28.4034 31.7981 29.3041 32.6641 29.3041 33.7727C29.3041 34.8813 28.4034 35.7474 27.2948 35.7474H24.6272H16.1049C15.4467 35.7474 14.8231 35.4356 14.442 34.916L6.8897 24.4536L6.78577 24.2804C6.57791 23.9686 6.12754 23.8993 5.81575 24.1418C5.50396 24.3497 5.43467 24.8001 5.67717 25.1118L13.368 35.7474C13.6106 36.0939 13.9223 36.371 14.2688 36.6135V44.7548V52.2724C14.2688 52.6535 14.5806 52.9653 14.9617 52.9653C15.3427 52.9653 15.6545 52.6535 15.6545 52.2724V44.6855V37.0639C15.8277 37.0985 16.001 37.0985 16.1395 37.0985H24.6272H27.2948H35.7824C36.0249 37.0985 36.2674 37.0639 36.51 37.0292V44.6855V52.2724C36.51 52.6535 36.8217 52.9653 37.2028 52.9653C37.5839 52.9653 37.8957 52.6535 37.8957 52.2724V44.6855V24.4536C37.8957 21.3703 40.4593 18.876 43.6119 18.876C46.7298 18.876 49.2588 21.3357 49.3281 24.3843V35.401L46.2448 44.6855L44.9976 48.4616C44.7205 49.2584 43.9583 49.8127 43.0922 49.8127C42.8844 49.8127 42.6419 49.7781 42.434 49.7088C41.9143 49.5356 41.4986 49.1891 41.2561 48.7041C41.0136 48.2537 40.979 47.6995 41.1522 47.2144L41.9836 44.7201L45.2748 34.7774V22.8254C45.2748 22.4443 44.963 22.1325 44.5819 22.1325C44.2008 22.1325 43.889 22.4443 43.889 22.8254V34.5349L40.5286 44.6855L39.8357 46.7641C39.5586 47.5955 39.5932 48.4963 40.009 49.2931C40.4247 50.0899 41.1175 50.7134 41.9836 50.9906C42.3301 51.0945 42.7111 51.1638 43.0576 51.1638C44.5126 51.1638 45.8291 50.2631 46.2794 48.8773L47.6652 44.6508L49.2934 39.7661V44.5469L49.2588 44.6508L46.9723 52.0299C46.8684 52.411 47.0762 52.7921 47.4227 52.896C47.492 52.9306 47.5612 52.9306 47.6305 52.9306C47.9423 52.9306 48.1848 52.7228 48.2888 52.4456L50.6445 44.8587V44.824C50.6445 44.7894 50.6445 44.7894 50.6445 44.7548C50.6445 44.7201 50.6445 44.7201 50.6445 44.6855V44.6508L50.6792 24.4536ZM30.0316 35.7474C30.4473 35.1931 30.6898 34.5003 30.6898 33.7727C30.6898 33.0452 30.4473 32.3524 30.0316 31.7981H34.7085L36.51 29.3037V35.5742C36.2674 35.6781 36.0249 35.7128 35.7824 35.7128H30.0316V35.7474Z" fill="#021827"/>
<path d="M50.6792 24.4536C50.6792 24.419 50.6792 24.3843 50.6792 24.3843V24.0033C50.6792 23.934 50.6792 23.8647 50.6445 23.83C50.2981 20.2964 47.2841 17.5249 43.5772 17.5249C39.6625 17.5249 36.4753 20.6428 36.4753 24.4883V26.9826L33.981 30.447H27.2601H24.5926H17.8717L15.6199 27.329V24.4883C15.6199 20.6428 12.4327 17.5249 8.51795 17.5249C4.60322 17.5249 1.41602 20.6428 1.41602 24.4883V44.7201V44.7548C1.41602 44.7894 1.41602 44.7894 1.41602 44.824C1.41602 44.8587 1.41602 44.8587 1.41602 44.8933V44.928L3.77178 52.5149C3.87571 52.8267 4.15286 52.9999 4.43001 52.9999C4.49929 52.9999 4.56858 52.9999 4.63787 52.9653C5.01895 52.8613 5.19216 52.4803 5.08823 52.0992L2.76711 44.6162V24.4536C2.76711 21.3703 5.33074 18.876 8.4833 18.876C11.6359 18.876 14.1995 21.3703 14.1995 24.4536V25.3543L12.0862 22.4096C11.8784 22.0979 11.428 22.0286 11.1162 22.2364C10.8737 22.4096 10.7698 22.7561 10.8737 23.0332C10.9084 23.1025 10.9084 23.1718 10.9776 23.2064L17.1788 31.7981H24.6272H27.2948C28.4034 31.7981 29.3041 32.6641 29.3041 33.7727C29.3041 34.8813 28.4034 35.7474 27.2948 35.7474H24.6272H16.1049C15.4467 35.7474 14.8231 35.4356 14.442 34.916L6.8897 24.4536L6.78577 24.2804C6.57791 23.9686 6.12754 23.8993 5.81575 24.1418C5.50396 24.3497 5.43467 24.8001 5.67717 25.1118L13.368 35.7474C13.6106 36.0939 13.9223 36.371 14.2688 36.6135V44.7548V52.2724C14.2688 52.6535 14.5806 52.9653 14.9617 52.9653C15.3427 52.9653 15.6545 52.6535 15.6545 52.2724V44.6855V37.0639C15.8277 37.0985 16.001 37.0985 16.1395 37.0985H24.6272H27.2948H35.7824C36.0249 37.0985 36.2674 37.0639 36.51 37.0292V44.6855V52.2724C36.51 52.6535 36.8217 52.9653 37.2028 52.9653C37.5839 52.9653 37.8957 52.6535 37.8957 52.2724V44.6855V24.4536C37.8957 21.3703 40.4593 18.876 43.6119 18.876C46.7298 18.876 49.2588 21.3357 49.3281 24.3843V35.401L46.2448 44.6855L44.9976 48.4616C44.7205 49.2584 43.9583 49.8127 43.0922 49.8127C42.8844 49.8127 42.6419 49.7781 42.434 49.7088C41.9143 49.5356 41.4986 49.1891 41.2561 48.7041C41.0136 48.2537 40.979 47.6995 41.1522 47.2144L41.9836 44.7201L45.2748 34.7774V22.8254C45.2748 22.4443 44.963 22.1325 44.5819 22.1325C44.2008 22.1325 43.889 22.4443 43.889 22.8254V34.5349L40.5286 44.6855L39.8357 46.7641C39.5586 47.5955 39.5932 48.4963 40.009 49.2931C40.4247 50.0899 41.1175 50.7134 41.9836 50.9906C42.3301 51.0945 42.7111 51.1638 43.0576 51.1638C44.5126 51.1638 45.8291 50.2631 46.2794 48.8773L47.6652 44.6508L49.2934 39.7661V44.5469L49.2588 44.6508L46.9723 52.0299C46.8684 52.411 47.0762 52.7921 47.4227 52.896C47.492 52.9306 47.5612 52.9306 47.6305 52.9306C47.9423 52.9306 48.1848 52.7228 48.2888 52.4456L50.6445 44.8587V44.824C50.6445 44.7894 50.6445 44.7894 50.6445 44.7548C50.6445 44.7201 50.6445 44.7201 50.6445 44.6855V44.6508L50.6792 24.4536ZM30.0316 35.7474C30.4473 35.1931 30.6898 34.5003 30.6898 33.7727C30.6898 33.0452 30.4473 32.3524 30.0316 31.7981H34.7085L36.51 29.3037V35.5742C36.2674 35.6781 36.0249 35.7128 35.7824 35.7128H30.0316V35.7474Z" stroke="#021827" stroke-width="0.2" mask="url(#path-3-outside-1_274_1497)"/>
</svg>
