<svg width="53" height="52" viewBox="0 0 53 52" fill="none" xmlns="http://www.w3.org/2000/svg">
<path d="M25.7461 27.1206L23.1461 24.5206C22.8076 24.1821 22.2591 24.1821 21.9206 24.5206L16.9745 29.4667H12.5316C13.3586 28.5456 13.8667 27.3326 13.8667 26C13.8667 23.1326 11.5341 20.8 8.66667 20.8C5.79922 20.8 3.46667 23.1326 3.46667 26C3.46667 27.3326 3.97469 28.5456 4.80174 29.4667H4.33333C1.94407 29.4667 0 31.4108 0 33.8V39.8667C0 40.3457 0.38805 40.7334 0.866667 40.7334H3.46667V51.1334C3.46667 51.6124 3.85472 52 4.33333 52H8.66667H13C13.4786 52 13.8667 51.6124 13.8667 51.1334V34.6667H19.0667C19.2965 34.6667 19.5169 34.5753 19.6794 34.4128L25.7461 28.3461C26.0846 28.0076 26.0846 27.4592 25.7461 27.1206ZM5.2 26C5.2 24.0881 6.75517 22.5334 8.66667 22.5334C10.5782 22.5334 12.1333 24.0881 12.1333 26C12.1333 27.912 10.5782 29.4667 8.66667 29.4667C6.75517 29.4667 5.2 27.912 5.2 26ZM18.7078 32.9334H13C12.5214 32.9334 12.1333 33.321 12.1333 33.8V50.2667H9.53333V40.7334H7.8V50.2667H5.2V33.8H3.46667V39H1.73333V33.8C1.73333 32.3663 2.89961 31.2 4.33333 31.2H17.3333C17.5631 31.2 17.7836 31.1086 17.9461 30.9461L22.5333 26.3589L23.9078 27.7334L18.7078 32.9334Z" fill="#021827"/>
<path d="M52.1702 6.08359L49.5127 5.55208C45.7502 4.79967 42.3267 2.96732 39.6129 0.253903C39.2743 -0.0846343 38.7259 -0.0846343 38.3874 0.253903C35.6735 2.96732 32.25 4.79967 28.4876 5.55208L25.83 6.08359C25.3683 6.17585 25.0649 6.62018 25.1466 7.08398L25.822 10.9112C27.0788 18.0324 31.8146 23.945 38.4902 26.7262L38.6671 26.7998C38.7737 26.8447 38.8867 26.8667 39.0001 26.8667C39.1135 26.8667 39.2265 26.8447 39.3332 26.7998L39.5105 26.7262C46.1857 23.9451 50.9214 18.0324 52.1783 10.9112L52.8537 7.08397C52.9353 6.62018 52.6319 6.17585 52.1702 6.08359ZM50.4712 10.6099C49.3273 17.0904 45.0444 22.4809 39.0001 25.0605C32.9555 22.4809 28.6729 17.0904 27.5291 10.6099L27.0009 7.61719L28.8278 7.25156C32.6487 6.4873 36.1479 4.70149 39.0001 2.06849C41.8523 4.7015 45.3516 6.4873 49.1724 7.25156L50.9993 7.61719L50.4712 10.6099Z" fill="#021827"/>
<path d="M37.2664 16.1079L34.4125 13.254L33.187 14.4795L36.6537 17.9462C36.8229 18.1154 37.0447 18.2001 37.2664 18.2001C37.4882 18.2001 37.7099 18.1154 37.8792 17.9462L45.6792 10.1462L44.4537 8.92065L37.2664 16.1079Z" fill="#021827"/>
<path d="M17.3334 45.9333H15.6001V47.6667H17.3334V45.9333Z" fill="#021827"/>
<path d="M20.8002 45.9333H19.0669V47.6667H20.8002V45.9333Z" fill="#021827"/>
<path d="M24.2665 45.9333H22.5332V47.6667H24.2665V45.9333Z" fill="#021827"/>
<path d="M27.7333 45.9333H26V47.6667H27.7333V45.9333Z" fill="#021827"/>
<path d="M31.2001 45.9333H29.4668V47.6667H31.2001V45.9333Z" fill="#021827"/>
<path d="M34.6664 45.9333H32.9331V47.6667H34.6664V45.9333Z" fill="#021827"/>
<path d="M38.1332 45.9333H36.3999V47.6667H38.1332V45.9333Z" fill="#021827"/>
<path d="M41.6 45.9333H39.8667V47.6667H41.6V45.9333Z" fill="#021827"/>
<path d="M41.6 42.4666H39.8667V44.1999H41.6V42.4666Z" fill="#021827"/>
<path d="M41.6 39H39.8667V40.7333H41.6V39Z" fill="#021827"/>
<path d="M41.6 35.5334H39.8667V37.2668H41.6V35.5334Z" fill="#021827"/>
<path d="M41.6 32.0667H39.8667V33.8H41.6V32.0667Z" fill="#021827"/>
<path d="M41.6 28.6001H39.8667V30.3334H41.6V28.6001Z" fill="#021827"/>
<path d="M9.53314 17.3333H7.7998V19.0666H9.53314V17.3333Z" fill="#021827"/>
<path d="M9.53314 13.8667H7.7998V15.6H9.53314V13.8667Z" fill="#021827"/>
<path d="M9.53314 10.3999H7.7998V12.1332H9.53314V10.3999Z" fill="#021827"/>
<path d="M9.53314 6.93335H7.7998V8.66668H9.53314V6.93335Z" fill="#021827"/>
<path d="M12.9999 6.93335H11.2666V8.66668H12.9999V6.93335Z" fill="#021827"/>
<path d="M16.4667 6.93335H14.7334V8.66668H16.4667V6.93335Z" fill="#021827"/>
<path d="M19.9335 6.93335H18.2002V8.66668H19.9335V6.93335Z" fill="#021827"/>
<path d="M23.3998 6.93335H21.6665V8.66668H23.3998V6.93335Z" fill="#021827"/>
</svg>
