<svg width="72" height="66" viewBox="0 0 72 66" fill="none" xmlns="http://www.w3.org/2000/svg">
<mask id="path-1-outside-1_282_1247" maskUnits="userSpaceOnUse" x="0" y="0" width="72" height="66" fill="black">
<rect fill="white" width="72" height="66"/>
<path d="M9.12782 43.6638C7.60322 44.1065 6.02577 43.9482 4.67703 43.3207C3.20227 42.6346 1.98841 41.3798 1.38734 39.7261L1.37268 39.688C0.786277 38.049 0.915281 36.3249 1.59551 34.8619C2.22589 33.5102 3.33126 32.3785 4.7826 31.7363C4.75035 31.2056 4.8559 30.6808 5.07287 30.2117L5.12858 30.1062C5.48042 29.423 6.07853 28.86 6.85554 28.5786L19.8205 23.8609L19.929 23.8287C20.5506 23.6293 21.5474 23.1338 22.7877 22.4096C24.0074 21.6971 25.4646 20.7501 27.0244 19.6301C27.5287 19.2695 28.2324 19.3867 28.593 19.8911C28.9536 20.3954 28.8364 21.0991 28.3321 21.4596C26.7605 22.5855 25.2388 23.5707 23.9194 24.3418C23.0574 24.8461 22.2804 25.2566 21.6266 25.5556L26.0011 37.5801C28.807 36.8178 34.5421 36.0994 40.3149 36.2197C43.9623 36.2959 47.6596 36.7005 50.7031 37.63L40.5146 9.63811C40.0894 10.2919 39.6174 10.9458 39.1043 11.5967C37.8963 13.1213 36.4772 14.6225 34.9643 16.0416C34.5128 16.4668 33.8003 16.4433 33.3752 15.9918C32.95 15.5403 32.9735 14.8278 33.425 14.4026C34.8793 13.0393 36.2251 11.6173 37.3451 10.204C38.2306 9.08394 38.9812 7.95805 39.5324 6.85566C39.2656 5.77961 39.3946 4.67721 39.8373 3.72719L39.8872 3.63043C40.4062 2.57787 41.315 1.71289 42.5055 1.2819C43.7252 0.839171 45.0153 0.935922 46.1089 1.44609C47.2055 1.95626 48.1086 2.88573 48.5513 4.10544L60.4144 36.7007C60.8601 37.9204 60.7633 39.2134 60.2561 40.307L60.2062 40.4038C59.6873 41.4564 58.7784 42.3213 57.5938 42.7523L57.5645 42.7641C56.3506 43.1951 55.0693 43.0983 53.9874 42.594L53.8907 42.5442C52.9789 42.0956 52.2106 41.3509 51.7386 40.3921C48.7157 39.0844 44.4789 38.5479 40.2718 38.4599C33.8947 38.3309 27.6873 39.2134 25.7816 40.0051L25.7552 40.0168H25.7523L25.7288 40.0285H25.7259L25.6995 40.0402H25.6966L22.6971 41.1339L29.2531 59.1481C29.6577 60.2623 29.4994 61.4526 28.9159 62.473C28.3676 63.4346 27.4294 64.2498 26.2419 64.6808C25.0545 65.1118 23.8142 65.0913 22.7763 64.7101C21.6738 64.3025 20.7855 63.4904 20.3779 62.3762L13.822 44.365L12.7283 44.7608C11.9103 45.0599 11.0454 44.9954 10.3183 44.6552L10.2127 44.5995C9.78757 44.3826 9.40935 44.0659 9.11617 43.673L9.12782 43.6638ZM61.4434 27.3324C60.8306 27.2268 60.423 26.6434 60.5285 26.0306C60.6341 25.4177 61.2176 25.0102 61.8304 25.1157L70.6206 26.6668C71.2334 26.7723 71.6409 27.3558 71.5354 27.9686C71.4298 28.5814 70.8464 28.9889 70.2336 28.8834L61.4434 27.3324ZM57.0805 12.0653C56.6818 12.5403 55.9722 12.6048 55.4972 12.2061C55.0223 11.8073 54.9578 11.0977 55.3565 10.6228L61.0944 3.78532C61.4932 3.31034 62.2027 3.24583 62.6777 3.64458C63.1527 4.04333 63.2172 4.75291 62.8185 5.22788L57.0805 12.0653ZM58.7489 20.0464C58.1654 20.2575 57.5204 19.9555 57.3093 19.375C57.0982 18.7915 57.4001 18.1465 57.9807 17.9353L66.3693 14.8831C66.9528 14.672 67.5978 14.974 67.8089 15.5545C68.02 16.138 67.7181 16.783 67.1375 16.9942L58.7489 20.0464ZM31.651 18.9263C31.1702 19.3163 30.4636 19.2459 30.0706 18.7651C29.6807 18.2842 29.751 17.5776 30.2319 17.1847L30.3638 17.0762C30.8447 16.6863 31.5513 16.7566 31.9442 17.2375C32.3342 17.7183 32.2638 18.4249 31.7829 18.8179L31.651 18.9263ZM20.5948 41.8982L15.9446 43.59L22.5006 61.6042C22.6677 62.0616 23.0635 62.4076 23.562 62.5923C24.1279 62.8005 24.8169 62.8063 25.4854 62.563C26.1539 62.3196 26.6758 61.871 26.9749 61.3491C27.2388 60.8888 27.3209 60.3669 27.1508 59.9065L20.5948 41.8953L20.5948 41.8982ZM43.3385 3.37182L43.2124 3.41873C42.6319 3.64743 42.1803 4.08136 41.9164 4.60617L41.8871 4.67653C41.6086 5.27173 41.5705 5.97251 41.805 6.58529L53.6621 39.1655C53.885 39.7724 54.3306 40.2474 54.8731 40.5201L54.9434 40.5494C55.5005 40.8074 56.1544 40.8661 56.7701 40.6608L56.8991 40.6139C57.4796 40.3823 57.9311 39.9513 58.195 39.4265L58.2244 39.3561C58.4941 38.7785 58.544 38.1012 58.3123 37.465L46.4259 4.80523C46.1855 4.1983 45.7252 3.73503 45.1681 3.47705C44.6139 3.21904 43.9601 3.16333 43.3415 3.3715L43.3385 3.37182ZM5.43956 33.9142C4.63035 34.3422 4.00878 35.0196 3.63934 35.8141C3.20247 36.7494 3.11745 37.8489 3.47808 38.8956L3.52793 39.0334C3.92374 40.0626 4.6978 40.8454 5.63019 41.2823C6.42476 41.6517 7.33366 41.7719 8.23084 41.5784L5.43956 33.9142ZM19.5364 26.3557L7.62379 30.6921C7.40975 30.7683 7.24263 30.9208 7.14001 31.1055L7.11655 31.1642C7.01686 31.3782 6.99633 31.6274 7.08137 31.859L10.8109 42.1031C10.8871 42.3172 11.0396 42.4843 11.2243 42.5869L11.283 42.6104C11.497 42.71 11.7462 42.7306 11.9778 42.6455L23.8875 38.3121L19.5364 26.3581L19.5364 26.3557Z"/>
</mask>
<path d="M9.12782 43.6638C7.60322 44.1065 6.02577 43.9482 4.67703 43.3207C3.20227 42.6346 1.98841 41.3798 1.38734 39.7261L1.37268 39.688C0.786277 38.049 0.915281 36.3249 1.59551 34.8619C2.22589 33.5102 3.33126 32.3785 4.7826 31.7363C4.75035 31.2056 4.8559 30.6808 5.07287 30.2117L5.12858 30.1062C5.48042 29.423 6.07853 28.86 6.85554 28.5786L19.8205 23.8609L19.929 23.8287C20.5506 23.6293 21.5474 23.1338 22.7877 22.4096C24.0074 21.6971 25.4646 20.7501 27.0244 19.6301C27.5287 19.2695 28.2324 19.3867 28.593 19.8911C28.9536 20.3954 28.8364 21.0991 28.3321 21.4596C26.7605 22.5855 25.2388 23.5707 23.9194 24.3418C23.0574 24.8461 22.2804 25.2566 21.6266 25.5556L26.0011 37.5801C28.807 36.8178 34.5421 36.0994 40.3149 36.2197C43.9623 36.2959 47.6596 36.7005 50.7031 37.63L40.5146 9.63811C40.0894 10.2919 39.6174 10.9458 39.1043 11.5967C37.8963 13.1213 36.4772 14.6225 34.9643 16.0416C34.5128 16.4668 33.8003 16.4433 33.3752 15.9918C32.95 15.5403 32.9735 14.8278 33.425 14.4026C34.8793 13.0393 36.2251 11.6173 37.3451 10.204C38.2306 9.08394 38.9812 7.95805 39.5324 6.85566C39.2656 5.77961 39.3946 4.67721 39.8373 3.72719L39.8872 3.63043C40.4062 2.57787 41.315 1.71289 42.5055 1.2819C43.7252 0.839171 45.0153 0.935922 46.1089 1.44609C47.2055 1.95626 48.1086 2.88573 48.5513 4.10544L60.4144 36.7007C60.8601 37.9204 60.7633 39.2134 60.2561 40.307L60.2062 40.4038C59.6873 41.4564 58.7784 42.3213 57.5938 42.7523L57.5645 42.7641C56.3506 43.1951 55.0693 43.0983 53.9874 42.594L53.8907 42.5442C52.9789 42.0956 52.2106 41.3509 51.7386 40.3921C48.7157 39.0844 44.4789 38.5479 40.2718 38.4599C33.8947 38.3309 27.6873 39.2134 25.7816 40.0051L25.7552 40.0168H25.7523L25.7288 40.0285H25.7259L25.6995 40.0402H25.6966L22.6971 41.1339L29.2531 59.1481C29.6577 60.2623 29.4994 61.4526 28.9159 62.473C28.3676 63.4346 27.4294 64.2498 26.2419 64.6808C25.0545 65.1118 23.8142 65.0913 22.7763 64.7101C21.6738 64.3025 20.7855 63.4904 20.3779 62.3762L13.822 44.365L12.7283 44.7608C11.9103 45.0599 11.0454 44.9954 10.3183 44.6552L10.2127 44.5995C9.78757 44.3826 9.40935 44.0659 9.11617 43.673L9.12782 43.6638ZM61.4434 27.3324C60.8306 27.2268 60.423 26.6434 60.5285 26.0306C60.6341 25.4177 61.2176 25.0102 61.8304 25.1157L70.6206 26.6668C71.2334 26.7723 71.6409 27.3558 71.5354 27.9686C71.4298 28.5814 70.8464 28.9889 70.2336 28.8834L61.4434 27.3324ZM57.0805 12.0653C56.6818 12.5403 55.9722 12.6048 55.4972 12.2061C55.0223 11.8073 54.9578 11.0977 55.3565 10.6228L61.0944 3.78532C61.4932 3.31034 62.2027 3.24583 62.6777 3.64458C63.1527 4.04333 63.2172 4.75291 62.8185 5.22788L57.0805 12.0653ZM58.7489 20.0464C58.1654 20.2575 57.5204 19.9555 57.3093 19.375C57.0982 18.7915 57.4001 18.1465 57.9807 17.9353L66.3693 14.8831C66.9528 14.672 67.5978 14.974 67.8089 15.5545C68.02 16.138 67.7181 16.783 67.1375 16.9942L58.7489 20.0464ZM31.651 18.9263C31.1702 19.3163 30.4636 19.2459 30.0706 18.7651C29.6807 18.2842 29.751 17.5776 30.2319 17.1847L30.3638 17.0762C30.8447 16.6863 31.5513 16.7566 31.9442 17.2375C32.3342 17.7183 32.2638 18.4249 31.7829 18.8179L31.651 18.9263ZM20.5948 41.8982L15.9446 43.59L22.5006 61.6042C22.6677 62.0616 23.0635 62.4076 23.562 62.5923C24.1279 62.8005 24.8169 62.8063 25.4854 62.563C26.1539 62.3196 26.6758 61.871 26.9749 61.3491C27.2388 60.8888 27.3209 60.3669 27.1508 59.9065L20.5948 41.8953L20.5948 41.8982ZM43.3385 3.37182L43.2124 3.41873C42.6319 3.64743 42.1803 4.08136 41.9164 4.60617L41.8871 4.67653C41.6086 5.27173 41.5705 5.97251 41.805 6.58529L53.6621 39.1655C53.885 39.7724 54.3306 40.2474 54.8731 40.5201L54.9434 40.5494C55.5005 40.8074 56.1544 40.8661 56.7701 40.6608L56.8991 40.6139C57.4796 40.3823 57.9311 39.9513 58.195 39.4265L58.2244 39.3561C58.4941 38.7785 58.544 38.1012 58.3123 37.465L46.4259 4.80523C46.1855 4.1983 45.7252 3.73503 45.1681 3.47705C44.6139 3.21904 43.9601 3.16333 43.3415 3.3715L43.3385 3.37182ZM5.43956 33.9142C4.63035 34.3422 4.00878 35.0196 3.63934 35.8141C3.20247 36.7494 3.11745 37.8489 3.47808 38.8956L3.52793 39.0334C3.92374 40.0626 4.6978 40.8454 5.63019 41.2823C6.42476 41.6517 7.33366 41.7719 8.23084 41.5784L5.43956 33.9142ZM19.5364 26.3557L7.62379 30.6921C7.40975 30.7683 7.24263 30.9208 7.14001 31.1055L7.11655 31.1642C7.01686 31.3782 6.99633 31.6274 7.08137 31.859L10.8109 42.1031C10.8871 42.3172 11.0396 42.4843 11.2243 42.5869L11.283 42.6104C11.497 42.71 11.7462 42.7306 11.9778 42.6455L23.8875 38.3121L19.5364 26.3581L19.5364 26.3557Z" fill="#021827"/>
<path d="M9.12782 43.6638C7.60322 44.1065 6.02577 43.9482 4.67703 43.3207C3.20227 42.6346 1.98841 41.3798 1.38734 39.7261L1.37268 39.688C0.786277 38.049 0.915281 36.3249 1.59551 34.8619C2.22589 33.5102 3.33126 32.3785 4.7826 31.7363C4.75035 31.2056 4.8559 30.6808 5.07287 30.2117L5.12858 30.1062C5.48042 29.423 6.07853 28.86 6.85554 28.5786L19.8205 23.8609L19.929 23.8287C20.5506 23.6293 21.5474 23.1338 22.7877 22.4096C24.0074 21.6971 25.4646 20.7501 27.0244 19.6301C27.5287 19.2695 28.2324 19.3867 28.593 19.8911C28.9536 20.3954 28.8364 21.0991 28.3321 21.4596C26.7605 22.5855 25.2388 23.5707 23.9194 24.3418C23.0574 24.8461 22.2804 25.2566 21.6266 25.5556L26.0011 37.5801C28.807 36.8178 34.5421 36.0994 40.3149 36.2197C43.9623 36.2959 47.6596 36.7005 50.7031 37.63L40.5146 9.63811C40.0894 10.2919 39.6174 10.9458 39.1043 11.5967C37.8963 13.1213 36.4772 14.6225 34.9643 16.0416C34.5128 16.4668 33.8003 16.4433 33.3752 15.9918C32.95 15.5403 32.9735 14.8278 33.425 14.4026C34.8793 13.0393 36.2251 11.6173 37.3451 10.204C38.2306 9.08394 38.9812 7.95805 39.5324 6.85566C39.2656 5.77961 39.3946 4.67721 39.8373 3.72719L39.8872 3.63043C40.4062 2.57787 41.315 1.71289 42.5055 1.2819C43.7252 0.839171 45.0153 0.935922 46.1089 1.44609C47.2055 1.95626 48.1086 2.88573 48.5513 4.10544L60.4144 36.7007C60.8601 37.9204 60.7633 39.2134 60.2561 40.307L60.2062 40.4038C59.6873 41.4564 58.7784 42.3213 57.5938 42.7523L57.5645 42.7641C56.3506 43.1951 55.0693 43.0983 53.9874 42.594L53.8907 42.5442C52.9789 42.0956 52.2106 41.3509 51.7386 40.3921C48.7157 39.0844 44.4789 38.5479 40.2718 38.4599C33.8947 38.3309 27.6873 39.2134 25.7816 40.0051L25.7552 40.0168H25.7523L25.7288 40.0285H25.7259L25.6995 40.0402H25.6966L22.6971 41.1339L29.2531 59.1481C29.6577 60.2623 29.4994 61.4526 28.9159 62.473C28.3676 63.4346 27.4294 64.2498 26.2419 64.6808C25.0545 65.1118 23.8142 65.0913 22.7763 64.7101C21.6738 64.3025 20.7855 63.4904 20.3779 62.3762L13.822 44.365L12.7283 44.7608C11.9103 45.0599 11.0454 44.9954 10.3183 44.6552L10.2127 44.5995C9.78757 44.3826 9.40935 44.0659 9.11617 43.673L9.12782 43.6638ZM61.4434 27.3324C60.8306 27.2268 60.423 26.6434 60.5285 26.0306C60.6341 25.4177 61.2176 25.0102 61.8304 25.1157L70.6206 26.6668C71.2334 26.7723 71.6409 27.3558 71.5354 27.9686C71.4298 28.5814 70.8464 28.9889 70.2336 28.8834L61.4434 27.3324ZM57.0805 12.0653C56.6818 12.5403 55.9722 12.6048 55.4972 12.2061C55.0223 11.8073 54.9578 11.0977 55.3565 10.6228L61.0944 3.78532C61.4932 3.31034 62.2027 3.24583 62.6777 3.64458C63.1527 4.04333 63.2172 4.75291 62.8185 5.22788L57.0805 12.0653ZM58.7489 20.0464C58.1654 20.2575 57.5204 19.9555 57.3093 19.375C57.0982 18.7915 57.4001 18.1465 57.9807 17.9353L66.3693 14.8831C66.9528 14.672 67.5978 14.974 67.8089 15.5545C68.02 16.138 67.7181 16.783 67.1375 16.9942L58.7489 20.0464ZM31.651 18.9263C31.1702 19.3163 30.4636 19.2459 30.0706 18.7651C29.6807 18.2842 29.751 17.5776 30.2319 17.1847L30.3638 17.0762C30.8447 16.6863 31.5513 16.7566 31.9442 17.2375C32.3342 17.7183 32.2638 18.4249 31.7829 18.8179L31.651 18.9263ZM20.5948 41.8982L15.9446 43.59L22.5006 61.6042C22.6677 62.0616 23.0635 62.4076 23.562 62.5923C24.1279 62.8005 24.8169 62.8063 25.4854 62.563C26.1539 62.3196 26.6758 61.871 26.9749 61.3491C27.2388 60.8888 27.3209 60.3669 27.1508 59.9065L20.5948 41.8953L20.5948 41.8982ZM43.3385 3.37182L43.2124 3.41873C42.6319 3.64743 42.1803 4.08136 41.9164 4.60617L41.8871 4.67653C41.6086 5.27173 41.5705 5.97251 41.805 6.58529L53.6621 39.1655C53.885 39.7724 54.3306 40.2474 54.8731 40.5201L54.9434 40.5494C55.5005 40.8074 56.1544 40.8661 56.7701 40.6608L56.8991 40.6139C57.4796 40.3823 57.9311 39.9513 58.195 39.4265L58.2244 39.3561C58.4941 38.7785 58.544 38.1012 58.3123 37.465L46.4259 4.80523C46.1855 4.1983 45.7252 3.73503 45.1681 3.47705C44.6139 3.21904 43.9601 3.16333 43.3415 3.3715L43.3385 3.37182ZM5.43956 33.9142C4.63035 34.3422 4.00878 35.0196 3.63934 35.8141C3.20247 36.7494 3.11745 37.8489 3.47808 38.8956L3.52793 39.0334C3.92374 40.0626 4.6978 40.8454 5.63019 41.2823C6.42476 41.6517 7.33366 41.7719 8.23084 41.5784L5.43956 33.9142ZM19.5364 26.3557L7.62379 30.6921C7.40975 30.7683 7.24263 30.9208 7.14001 31.1055L7.11655 31.1642C7.01686 31.3782 6.99633 31.6274 7.08137 31.859L10.8109 42.1031C10.8871 42.3172 11.0396 42.4843 11.2243 42.5869L11.283 42.6104C11.497 42.71 11.7462 42.7306 11.9778 42.6455L23.8875 38.3121L19.5364 26.3581L19.5364 26.3557Z" stroke="#021827" stroke-width="0.2" mask="url(#path-1-outside-1_282_1247)"/>
</svg>
