<svg width="53" height="54" viewBox="0 0 53 54" fill="none" xmlns="http://www.w3.org/2000/svg">
<mask id="path-1-outside-1_274_1427" maskUnits="userSpaceOnUse" x="0" y="0" width="53" height="54" fill="black">
<rect fill="white" width="53" height="54"/>
<path d="M4.74801 24.7015H48.5078C48.726 24.7027 48.9419 24.6576 49.1413 24.569C49.3407 24.4805 49.519 24.3505 49.6643 24.1878C49.8128 24.0278 49.9251 23.8377 49.9936 23.6305C50.0621 23.4233 50.0853 23.2037 50.0615 22.9868C49.8728 21.0387 49.1156 19.1891 47.884 17.668C46.6525 16.1468 45.0009 15.0214 43.1347 14.4315C44.094 13.7778 44.8186 12.8341 45.2024 11.7385C45.5862 10.643 45.6089 9.45326 45.2673 8.34385C44.9256 7.23444 44.2375 6.26367 43.3039 5.57384C42.3702 4.88401 41.2402 4.51142 40.0794 4.5107C38.9185 4.50997 37.788 4.88114 36.8535 5.56979C35.919 6.25844 35.2297 7.22835 34.8866 8.33733C34.5436 9.44631 34.5648 10.636 34.9472 11.7321C35.3296 12.8281 36.0531 13.7728 37.0116 14.4277C36.2255 14.6816 35.474 15.0322 34.7744 15.4715C33.4145 14.1674 31.7602 13.2104 29.9518 12.6817C31.1193 11.9587 32.0193 10.8749 32.5153 9.59438C33.0114 8.31389 33.0764 6.90659 32.7006 5.58581C32.3248 4.26503 31.5286 3.10278 30.4327 2.27524C29.3369 1.4477 28.0011 1 26.6279 1C25.2547 1 23.9189 1.4477 22.8231 2.27524C21.7272 3.10278 20.931 4.26503 20.5552 5.58581C20.1794 6.90659 20.2445 8.31389 20.7405 9.59438C21.2365 10.8749 22.1365 11.9587 23.304 12.6817C21.4955 13.2102 19.8411 14.1672 18.4814 15.4715C17.7821 15.032 17.0308 14.6813 16.2448 14.4277C17.2025 13.7728 17.9252 12.8284 18.3071 11.7328C18.6889 10.6373 18.7098 9.44827 18.3668 8.33999C18.0237 7.2317 17.3346 6.26244 16.4006 5.57427C15.4665 4.8861 14.3366 4.5152 13.1765 4.51593C12.0163 4.51666 10.8869 4.88898 9.95368 5.57832C9.02051 6.26766 8.33267 7.23778 7.99098 8.3465C7.64928 9.45522 7.6717 10.6442 8.05495 11.7393C8.43819 12.8343 9.16211 13.7778 10.1206 14.4315C8.25459 15.0214 6.60316 16.1468 5.37169 17.6678C4.14021 19.1889 3.38303 21.0383 3.19431 22.9862C3.17069 23.2033 3.19382 23.4228 3.26214 23.6302C3.33047 23.8375 3.44241 24.0278 3.59043 24.1883C3.73618 24.3508 3.91471 24.4805 4.11423 24.5689C4.31376 24.6574 4.52976 24.7025 4.74801 24.7015ZM36.071 9.94784C36.071 9.15592 36.3058 8.38178 36.7458 7.72332C37.1858 7.06486 37.8111 6.55165 38.5428 6.2486C39.2744 5.94554 40.0795 5.86625 40.8562 6.02075C41.6329 6.17524 42.3464 6.55659 42.9063 7.11656C43.4663 7.67654 43.8476 8.38999 44.0021 9.16669C44.1566 9.9434 44.0774 10.7485 43.7743 11.4801C43.4712 12.2118 42.958 12.8371 42.2996 13.2771C41.6411 13.717 40.867 13.9519 40.075 13.9519C39.0136 13.9501 37.9962 13.5277 37.2457 12.7772C36.4952 12.0267 36.0728 11.0092 36.071 9.94784ZM48.6413 23.1274C48.6449 23.1464 48.6435 23.166 48.6371 23.1842C48.6307 23.2024 48.6197 23.2187 48.605 23.2313C48.5938 23.246 48.579 23.2577 48.5619 23.2652C48.5449 23.2727 48.5263 23.2758 48.5078 23.2741H38.3263C38.3543 23.1223 38.3617 22.9675 38.3483 22.8137C38.123 20.5134 37.223 18.331 35.7611 16.5407C37.0062 15.8185 38.4124 15.4201 39.8512 15.3821C41.29 15.344 42.7154 15.6674 43.9969 16.3228C45.2783 16.9781 46.3749 17.9444 47.1863 19.1332C47.9977 20.322 48.498 21.6953 48.6413 23.1274ZM21.7415 7.32281C21.7414 6.35635 22.0279 5.41157 22.5648 4.60793C23.1016 3.8043 23.8647 3.17792 24.7576 2.808C25.6505 2.43807 26.633 2.34123 27.5809 2.52971C28.5288 2.71819 29.3995 3.18353 30.0829 3.86688C30.7663 4.55022 31.2318 5.42089 31.4203 6.36877C31.6089 7.31665 31.5122 8.29916 31.1424 9.19206C30.7726 10.085 30.1463 10.8481 29.3427 11.3851C28.5391 11.922 27.5944 12.2086 26.6279 12.2086C25.3323 12.2078 24.09 11.6927 23.1739 10.7767C22.2577 9.86061 21.7426 8.61839 21.7415 7.32281ZM26.6279 13.636C29.1976 13.6266 31.6782 14.577 33.5838 16.3011C35.4893 18.0252 36.6823 20.3987 36.9292 22.9566C36.9328 22.9969 36.9281 23.0376 36.9151 23.076C36.9022 23.1144 36.8813 23.1496 36.854 23.1795C36.8266 23.2094 36.7933 23.2333 36.7562 23.2495C36.7192 23.2658 36.6791 23.2742 36.6385 23.2741H16.6167C16.5761 23.2739 16.536 23.2653 16.4989 23.2487C16.4619 23.2321 16.4287 23.208 16.4015 23.1778C16.3743 23.1477 16.3537 23.1122 16.341 23.0736C16.3283 23.035 16.3238 22.9942 16.3277 22.9538C16.5749 20.3965 17.7679 18.0236 19.6732 16.3C21.5785 14.5765 24.0587 13.6264 26.6279 13.636ZM9.17783 9.94784C9.17794 9.15603 9.41285 8.38203 9.85285 7.72372C10.2928 7.06541 10.9182 6.55236 11.6498 6.24944C12.3813 5.94653 13.1863 5.86736 13.9629 6.02194C14.7395 6.17652 15.4528 6.55792 16.0126 7.11789C16.5724 7.67786 16.9536 8.39127 17.108 9.16789C17.2624 9.94451 17.183 10.7495 16.8798 11.481C16.5767 12.2125 16.0635 12.8377 15.4051 13.2775C14.7466 13.7173 13.9726 13.952 13.1808 13.9519C12.1193 13.9507 11.1016 13.5285 10.3512 12.7778C9.60069 12.0271 9.17871 11.0093 9.17783 9.94784ZM13.1808 15.3792C14.696 15.3771 16.1846 15.7777 17.4941 16.5401C16.0328 18.3298 15.133 20.5115 14.9075 22.811C14.8941 22.9656 14.9015 23.1214 14.9295 23.2741H4.74801C4.72946 23.2759 4.71075 23.273 4.69365 23.2656C4.67654 23.2582 4.66159 23.2466 4.65022 23.2318C4.63585 23.2188 4.62504 23.2023 4.61879 23.184C4.61254 23.1656 4.61107 23.146 4.61451 23.1269C4.82051 21.0004 5.81294 19.0274 7.39744 17.5943C8.98194 16.1613 11.0444 15.3713 13.1808 15.3792ZM41.6908 26.6579H1V27.3721C1 34.169 3.70008 40.6876 8.50624 45.4938C13.3124 50.2999 19.831 53 26.6279 53C33.4249 53 39.9434 50.2999 44.7496 45.4938C49.5557 40.6876 52.2558 34.169 52.2558 27.3721V26.6579H41.6908ZM25.9137 51.538C21.5344 51.1353 17.6974 47.0461 15.3652 40.9895H25.9137V51.538ZM27.3421 40.9895H37.8906C35.5584 47.0434 31.7214 51.1326 27.3421 51.538V40.9895ZM27.3421 39.5611V28.0852H40.258C40.2169 31.9833 39.5904 35.8531 38.3994 39.5649L27.3421 39.5611ZM25.9137 28.0852V39.5649H14.8559C13.6653 35.853 13.039 31.9832 12.9978 28.0852H25.9137ZM11.5743 28.0852C11.6166 31.9792 12.2255 35.8463 13.3818 39.5649H5.73529C3.68798 36.0767 2.55416 32.1282 2.43888 28.0852H11.5743ZM6.6396 40.9923H13.8774C15.4646 45.2776 17.7749 48.7075 20.5164 50.787C14.8623 49.2995 9.93489 45.8216 6.6396 40.9923ZM32.7389 50.7865C35.4804 48.7075 37.7934 45.2771 39.3779 40.9923H46.6162C43.3207 45.8216 38.3931 49.2993 32.7389 50.7865ZM47.5178 39.5649H39.874C41.0303 35.8463 41.6392 31.9792 41.6815 28.0852H50.818C50.7025 32.1284 49.5681 36.077 47.52 39.5649H47.5178Z"/>
</mask>
<path d="M4.74801 24.7015H48.5078C48.726 24.7027 48.9419 24.6576 49.1413 24.569C49.3407 24.4805 49.519 24.3505 49.6643 24.1878C49.8128 24.0278 49.9251 23.8377 49.9936 23.6305C50.0621 23.4233 50.0853 23.2037 50.0615 22.9868C49.8728 21.0387 49.1156 19.1891 47.884 17.668C46.6525 16.1468 45.0009 15.0214 43.1347 14.4315C44.094 13.7778 44.8186 12.8341 45.2024 11.7385C45.5862 10.643 45.6089 9.45326 45.2673 8.34385C44.9256 7.23444 44.2375 6.26367 43.3039 5.57384C42.3702 4.88401 41.2402 4.51142 40.0794 4.5107C38.9185 4.50997 37.788 4.88114 36.8535 5.56979C35.919 6.25844 35.2297 7.22835 34.8866 8.33733C34.5436 9.44631 34.5648 10.636 34.9472 11.7321C35.3296 12.8281 36.0531 13.7728 37.0116 14.4277C36.2255 14.6816 35.474 15.0322 34.7744 15.4715C33.4145 14.1674 31.7602 13.2104 29.9518 12.6817C31.1193 11.9587 32.0193 10.8749 32.5153 9.59438C33.0114 8.31389 33.0764 6.90659 32.7006 5.58581C32.3248 4.26503 31.5286 3.10278 30.4327 2.27524C29.3369 1.4477 28.0011 1 26.6279 1C25.2547 1 23.9189 1.4477 22.8231 2.27524C21.7272 3.10278 20.931 4.26503 20.5552 5.58581C20.1794 6.90659 20.2445 8.31389 20.7405 9.59438C21.2365 10.8749 22.1365 11.9587 23.304 12.6817C21.4955 13.2102 19.8411 14.1672 18.4814 15.4715C17.7821 15.032 17.0308 14.6813 16.2448 14.4277C17.2025 13.7728 17.9252 12.8284 18.3071 11.7328C18.6889 10.6373 18.7098 9.44827 18.3668 8.33999C18.0237 7.2317 17.3346 6.26244 16.4006 5.57427C15.4665 4.8861 14.3366 4.5152 13.1765 4.51593C12.0163 4.51666 10.8869 4.88898 9.95368 5.57832C9.02051 6.26766 8.33267 7.23778 7.99098 8.3465C7.64928 9.45522 7.6717 10.6442 8.05495 11.7393C8.43819 12.8343 9.16211 13.7778 10.1206 14.4315C8.25459 15.0214 6.60316 16.1468 5.37169 17.6678C4.14021 19.1889 3.38303 21.0383 3.19431 22.9862C3.17069 23.2033 3.19382 23.4228 3.26214 23.6302C3.33047 23.8375 3.44241 24.0278 3.59043 24.1883C3.73618 24.3508 3.91471 24.4805 4.11423 24.5689C4.31376 24.6574 4.52976 24.7025 4.74801 24.7015ZM36.071 9.94784C36.071 9.15592 36.3058 8.38178 36.7458 7.72332C37.1858 7.06486 37.8111 6.55165 38.5428 6.2486C39.2744 5.94554 40.0795 5.86625 40.8562 6.02075C41.6329 6.17524 42.3464 6.55659 42.9063 7.11656C43.4663 7.67654 43.8476 8.38999 44.0021 9.16669C44.1566 9.9434 44.0774 10.7485 43.7743 11.4801C43.4712 12.2118 42.958 12.8371 42.2996 13.2771C41.6411 13.717 40.867 13.9519 40.075 13.9519C39.0136 13.9501 37.9962 13.5277 37.2457 12.7772C36.4952 12.0267 36.0728 11.0092 36.071 9.94784ZM48.6413 23.1274C48.6449 23.1464 48.6435 23.166 48.6371 23.1842C48.6307 23.2024 48.6197 23.2187 48.605 23.2313C48.5938 23.246 48.579 23.2577 48.5619 23.2652C48.5449 23.2727 48.5263 23.2758 48.5078 23.2741H38.3263C38.3543 23.1223 38.3617 22.9675 38.3483 22.8137C38.123 20.5134 37.223 18.331 35.7611 16.5407C37.0062 15.8185 38.4124 15.4201 39.8512 15.3821C41.29 15.344 42.7154 15.6674 43.9969 16.3228C45.2783 16.9781 46.3749 17.9444 47.1863 19.1332C47.9977 20.322 48.498 21.6953 48.6413 23.1274ZM21.7415 7.32281C21.7414 6.35635 22.0279 5.41157 22.5648 4.60793C23.1016 3.8043 23.8647 3.17792 24.7576 2.808C25.6505 2.43807 26.633 2.34123 27.5809 2.52971C28.5288 2.71819 29.3995 3.18353 30.0829 3.86688C30.7663 4.55022 31.2318 5.42089 31.4203 6.36877C31.6089 7.31665 31.5122 8.29916 31.1424 9.19206C30.7726 10.085 30.1463 10.8481 29.3427 11.3851C28.5391 11.922 27.5944 12.2086 26.6279 12.2086C25.3323 12.2078 24.09 11.6927 23.1739 10.7767C22.2577 9.86061 21.7426 8.61839 21.7415 7.32281ZM26.6279 13.636C29.1976 13.6266 31.6782 14.577 33.5838 16.3011C35.4893 18.0252 36.6823 20.3987 36.9292 22.9566C36.9328 22.9969 36.9281 23.0376 36.9151 23.076C36.9022 23.1144 36.8813 23.1496 36.854 23.1795C36.8266 23.2094 36.7933 23.2333 36.7562 23.2495C36.7192 23.2658 36.6791 23.2742 36.6385 23.2741H16.6167C16.5761 23.2739 16.536 23.2653 16.4989 23.2487C16.4619 23.2321 16.4287 23.208 16.4015 23.1778C16.3743 23.1477 16.3537 23.1122 16.341 23.0736C16.3283 23.035 16.3238 22.9942 16.3277 22.9538C16.5749 20.3965 17.7679 18.0236 19.6732 16.3C21.5785 14.5765 24.0587 13.6264 26.6279 13.636ZM9.17783 9.94784C9.17794 9.15603 9.41285 8.38203 9.85285 7.72372C10.2928 7.06541 10.9182 6.55236 11.6498 6.24944C12.3813 5.94653 13.1863 5.86736 13.9629 6.02194C14.7395 6.17652 15.4528 6.55792 16.0126 7.11789C16.5724 7.67786 16.9536 8.39127 17.108 9.16789C17.2624 9.94451 17.183 10.7495 16.8798 11.481C16.5767 12.2125 16.0635 12.8377 15.4051 13.2775C14.7466 13.7173 13.9726 13.952 13.1808 13.9519C12.1193 13.9507 11.1016 13.5285 10.3512 12.7778C9.60069 12.0271 9.17871 11.0093 9.17783 9.94784ZM13.1808 15.3792C14.696 15.3771 16.1846 15.7777 17.4941 16.5401C16.0328 18.3298 15.133 20.5115 14.9075 22.811C14.8941 22.9656 14.9015 23.1214 14.9295 23.2741H4.74801C4.72946 23.2759 4.71075 23.273 4.69365 23.2656C4.67654 23.2582 4.66159 23.2466 4.65022 23.2318C4.63585 23.2188 4.62504 23.2023 4.61879 23.184C4.61254 23.1656 4.61107 23.146 4.61451 23.1269C4.82051 21.0004 5.81294 19.0274 7.39744 17.5943C8.98194 16.1613 11.0444 15.3713 13.1808 15.3792ZM41.6908 26.6579H1V27.3721C1 34.169 3.70008 40.6876 8.50624 45.4938C13.3124 50.2999 19.831 53 26.6279 53C33.4249 53 39.9434 50.2999 44.7496 45.4938C49.5557 40.6876 52.2558 34.169 52.2558 27.3721V26.6579H41.6908ZM25.9137 51.538C21.5344 51.1353 17.6974 47.0461 15.3652 40.9895H25.9137V51.538ZM27.3421 40.9895H37.8906C35.5584 47.0434 31.7214 51.1326 27.3421 51.538V40.9895ZM27.3421 39.5611V28.0852H40.258C40.2169 31.9833 39.5904 35.8531 38.3994 39.5649L27.3421 39.5611ZM25.9137 28.0852V39.5649H14.8559C13.6653 35.853 13.039 31.9832 12.9978 28.0852H25.9137ZM11.5743 28.0852C11.6166 31.9792 12.2255 35.8463 13.3818 39.5649H5.73529C3.68798 36.0767 2.55416 32.1282 2.43888 28.0852H11.5743ZM6.6396 40.9923H13.8774C15.4646 45.2776 17.7749 48.7075 20.5164 50.787C14.8623 49.2995 9.93489 45.8216 6.6396 40.9923ZM32.7389 50.7865C35.4804 48.7075 37.7934 45.2771 39.3779 40.9923H46.6162C43.3207 45.8216 38.3931 49.2993 32.7389 50.7865ZM47.5178 39.5649H39.874C41.0303 35.8463 41.6392 31.9792 41.6815 28.0852H50.818C50.7025 32.1284 49.5681 36.077 47.52 39.5649H47.5178Z" fill="#021827"/>
<path d="M4.74801 24.7015H48.5078C48.726 24.7027 48.9419 24.6576 49.1413 24.569C49.3407 24.4805 49.519 24.3505 49.6643 24.1878C49.8128 24.0278 49.9251 23.8377 49.9936 23.6305C50.0621 23.4233 50.0853 23.2037 50.0615 22.9868C49.8728 21.0387 49.1156 19.1891 47.884 17.668C46.6525 16.1468 45.0009 15.0214 43.1347 14.4315C44.094 13.7778 44.8186 12.8341 45.2024 11.7385C45.5862 10.643 45.6089 9.45326 45.2673 8.34385C44.9256 7.23444 44.2375 6.26367 43.3039 5.57384C42.3702 4.88401 41.2402 4.51142 40.0794 4.5107C38.9185 4.50997 37.788 4.88114 36.8535 5.56979C35.919 6.25844 35.2297 7.22835 34.8866 8.33733C34.5436 9.44631 34.5648 10.636 34.9472 11.7321C35.3296 12.8281 36.0531 13.7728 37.0116 14.4277C36.2255 14.6816 35.474 15.0322 34.7744 15.4715C33.4145 14.1674 31.7602 13.2104 29.9518 12.6817C31.1193 11.9587 32.0193 10.8749 32.5153 9.59438C33.0114 8.31389 33.0764 6.90659 32.7006 5.58581C32.3248 4.26503 31.5286 3.10278 30.4327 2.27524C29.3369 1.4477 28.0011 1 26.6279 1C25.2547 1 23.9189 1.4477 22.8231 2.27524C21.7272 3.10278 20.931 4.26503 20.5552 5.58581C20.1794 6.90659 20.2445 8.31389 20.7405 9.59438C21.2365 10.8749 22.1365 11.9587 23.304 12.6817C21.4955 13.2102 19.8411 14.1672 18.4814 15.4715C17.7821 15.032 17.0308 14.6813 16.2448 14.4277C17.2025 13.7728 17.9252 12.8284 18.3071 11.7328C18.6889 10.6373 18.7098 9.44827 18.3668 8.33999C18.0237 7.2317 17.3346 6.26244 16.4006 5.57427C15.4665 4.8861 14.3366 4.5152 13.1765 4.51593C12.0163 4.51666 10.8869 4.88898 9.95368 5.57832C9.02051 6.26766 8.33267 7.23778 7.99098 8.3465C7.64928 9.45522 7.6717 10.6442 8.05495 11.7393C8.43819 12.8343 9.16211 13.7778 10.1206 14.4315C8.25459 15.0214 6.60316 16.1468 5.37169 17.6678C4.14021 19.1889 3.38303 21.0383 3.19431 22.9862C3.17069 23.2033 3.19382 23.4228 3.26214 23.6302C3.33047 23.8375 3.44241 24.0278 3.59043 24.1883C3.73618 24.3508 3.91471 24.4805 4.11423 24.5689C4.31376 24.6574 4.52976 24.7025 4.74801 24.7015ZM36.071 9.94784C36.071 9.15592 36.3058 8.38178 36.7458 7.72332C37.1858 7.06486 37.8111 6.55165 38.5428 6.2486C39.2744 5.94554 40.0795 5.86625 40.8562 6.02075C41.6329 6.17524 42.3464 6.55659 42.9063 7.11656C43.4663 7.67654 43.8476 8.38999 44.0021 9.16669C44.1566 9.9434 44.0774 10.7485 43.7743 11.4801C43.4712 12.2118 42.958 12.8371 42.2996 13.2771C41.6411 13.717 40.867 13.9519 40.075 13.9519C39.0136 13.9501 37.9962 13.5277 37.2457 12.7772C36.4952 12.0267 36.0728 11.0092 36.071 9.94784ZM48.6413 23.1274C48.6449 23.1464 48.6435 23.166 48.6371 23.1842C48.6307 23.2024 48.6197 23.2187 48.605 23.2313C48.5938 23.246 48.579 23.2577 48.5619 23.2652C48.5449 23.2727 48.5263 23.2758 48.5078 23.2741H38.3263C38.3543 23.1223 38.3617 22.9675 38.3483 22.8137C38.123 20.5134 37.223 18.331 35.7611 16.5407C37.0062 15.8185 38.4124 15.4201 39.8512 15.3821C41.29 15.344 42.7154 15.6674 43.9969 16.3228C45.2783 16.9781 46.3749 17.9444 47.1863 19.1332C47.9977 20.322 48.498 21.6953 48.6413 23.1274ZM21.7415 7.32281C21.7414 6.35635 22.0279 5.41157 22.5648 4.60793C23.1016 3.8043 23.8647 3.17792 24.7576 2.808C25.6505 2.43807 26.633 2.34123 27.5809 2.52971C28.5288 2.71819 29.3995 3.18353 30.0829 3.86688C30.7663 4.55022 31.2318 5.42089 31.4203 6.36877C31.6089 7.31665 31.5122 8.29916 31.1424 9.19206C30.7726 10.085 30.1463 10.8481 29.3427 11.3851C28.5391 11.922 27.5944 12.2086 26.6279 12.2086C25.3323 12.2078 24.09 11.6927 23.1739 10.7767C22.2577 9.86061 21.7426 8.61839 21.7415 7.32281ZM26.6279 13.636C29.1976 13.6266 31.6782 14.577 33.5838 16.3011C35.4893 18.0252 36.6823 20.3987 36.9292 22.9566C36.9328 22.9969 36.9281 23.0376 36.9151 23.076C36.9022 23.1144 36.8813 23.1496 36.854 23.1795C36.8266 23.2094 36.7933 23.2333 36.7562 23.2495C36.7192 23.2658 36.6791 23.2742 36.6385 23.2741H16.6167C16.5761 23.2739 16.536 23.2653 16.4989 23.2487C16.4619 23.2321 16.4287 23.208 16.4015 23.1778C16.3743 23.1477 16.3537 23.1122 16.341 23.0736C16.3283 23.035 16.3238 22.9942 16.3277 22.9538C16.5749 20.3965 17.7679 18.0236 19.6732 16.3C21.5785 14.5765 24.0587 13.6264 26.6279 13.636ZM9.17783 9.94784C9.17794 9.15603 9.41285 8.38203 9.85285 7.72372C10.2928 7.06541 10.9182 6.55236 11.6498 6.24944C12.3813 5.94653 13.1863 5.86736 13.9629 6.02194C14.7395 6.17652 15.4528 6.55792 16.0126 7.11789C16.5724 7.67786 16.9536 8.39127 17.108 9.16789C17.2624 9.94451 17.183 10.7495 16.8798 11.481C16.5767 12.2125 16.0635 12.8377 15.4051 13.2775C14.7466 13.7173 13.9726 13.952 13.1808 13.9519C12.1193 13.9507 11.1016 13.5285 10.3512 12.7778C9.60069 12.0271 9.17871 11.0093 9.17783 9.94784ZM13.1808 15.3792C14.696 15.3771 16.1846 15.7777 17.4941 16.5401C16.0328 18.3298 15.133 20.5115 14.9075 22.811C14.8941 22.9656 14.9015 23.1214 14.9295 23.2741H4.74801C4.72946 23.2759 4.71075 23.273 4.69365 23.2656C4.67654 23.2582 4.66159 23.2466 4.65022 23.2318C4.63585 23.2188 4.62504 23.2023 4.61879 23.184C4.61254 23.1656 4.61107 23.146 4.61451 23.1269C4.82051 21.0004 5.81294 19.0274 7.39744 17.5943C8.98194 16.1613 11.0444 15.3713 13.1808 15.3792ZM41.6908 26.6579H1V27.3721C1 34.169 3.70008 40.6876 8.50624 45.4938C13.3124 50.2999 19.831 53 26.6279 53C33.4249 53 39.9434 50.2999 44.7496 45.4938C49.5557 40.6876 52.2558 34.169 52.2558 27.3721V26.6579H41.6908ZM25.9137 51.538C21.5344 51.1353 17.6974 47.0461 15.3652 40.9895H25.9137V51.538ZM27.3421 40.9895H37.8906C35.5584 47.0434 31.7214 51.1326 27.3421 51.538V40.9895ZM27.3421 39.5611V28.0852H40.258C40.2169 31.9833 39.5904 35.8531 38.3994 39.5649L27.3421 39.5611ZM25.9137 28.0852V39.5649H14.8559C13.6653 35.853 13.039 31.9832 12.9978 28.0852H25.9137ZM11.5743 28.0852C11.6166 31.9792 12.2255 35.8463 13.3818 39.5649H5.73529C3.68798 36.0767 2.55416 32.1282 2.43888 28.0852H11.5743ZM6.6396 40.9923H13.8774C15.4646 45.2776 17.7749 48.7075 20.5164 50.787C14.8623 49.2995 9.93489 45.8216 6.6396 40.9923ZM32.7389 50.7865C35.4804 48.7075 37.7934 45.2771 39.3779 40.9923H46.6162C43.3207 45.8216 38.3931 49.2993 32.7389 50.7865ZM47.5178 39.5649H39.874C41.0303 35.8463 41.6392 31.9792 41.6815 28.0852H50.818C50.7025 32.1284 49.5681 36.077 47.52 39.5649H47.5178Z" stroke="#021827" stroke-width="0.2" mask="url(#path-1-outside-1_274_1427)"/>
</svg>
