<svg width="53" height="54" viewBox="0 0 53 54" fill="none" xmlns="http://www.w3.org/2000/svg">
<path d="M8.70768 51.3657V51.3656H8.65768C5.4817 51.3656 2.90017 48.7688 2.90017 45.5742V2.90005H41.9076V48.3607C41.9076 49.4846 42.2735 50.5228 42.8891 51.3657H8.70768ZM51.075 15.8818H43.8576V1.92502C43.8576 1.38753 43.4201 0.95 42.8826 0.95H1.92502C1.38753 0.95 0.95 1.38753 0.95 1.92502V45.5742C0.95 49.8433 4.4085 53.3157 8.65768 53.3157H45.8144C46.1886 53.4037 46.5763 53.4511 46.9777 53.4511C49.7739 53.4511 52.05 51.1677 52.05 48.3607V16.8568C52.05 16.3193 51.6125 15.8818 51.075 15.8818ZM50.1 48.3607C50.1 50.0932 48.6983 51.501 46.9777 51.501C45.257 51.501 43.8576 50.0932 43.8576 48.3607V17.8318H50.1V48.3607Z" fill="#021827" stroke="#021827" stroke-width="0.1"/>
<path d="M8.39817 24.4131H21.7596C22.2971 24.4131 22.7346 23.9756 22.7346 23.4381V8.06858C22.7346 7.53109 22.2971 7.09355 21.7596 7.09355H8.39817C7.86067 7.09355 7.42314 7.53109 7.42314 8.06858V23.4381C7.42314 23.9756 7.86067 24.4131 8.39817 24.4131ZM9.37319 9.0436H20.7846V22.4629H9.37319V9.0436Z" fill="#021827" stroke="#021827" stroke-width="0.1"/>
<path d="M38.0971 8.10918H27.2897C26.7522 8.10918 26.3147 8.54671 26.3147 9.0842C26.3147 9.6217 26.7522 10.0592 27.2897 10.0592H38.0971C38.6346 10.0592 39.0721 9.6217 39.0721 9.0842C39.0721 8.54671 38.6346 8.10918 38.0971 8.10918Z" fill="#021827" stroke="#021827" stroke-width="0.1"/>
<path d="M38.0971 13.073H27.2897C26.7522 13.073 26.3147 13.5106 26.3147 14.0481C26.3147 14.5856 26.7522 15.0231 27.2897 15.0231H38.0971C38.6346 15.0231 39.0721 14.5856 39.0721 14.0481C39.0721 13.5106 38.6346 13.073 38.0971 13.073Z" fill="#021827" stroke="#021827" stroke-width="0.1"/>
<path d="M38.0971 18.0384H27.2897C26.7522 18.0384 26.3147 18.4759 26.3147 19.0134C26.3147 19.5509 26.7522 19.9884 27.2897 19.9884H38.0971C38.6346 19.9884 39.0721 19.5509 39.0721 19.0134C39.0721 18.4759 38.6346 18.0384 38.0971 18.0384Z" fill="#021827" stroke="#021827" stroke-width="0.1"/>
<path d="M23.5421 31.8426H7.59269C7.05519 31.8426 6.61766 32.2801 6.61766 32.8176C6.61766 33.3551 7.05519 33.7926 7.59269 33.7926H23.5421C24.0796 33.7926 24.5171 33.3551 24.5171 32.8176C24.5171 32.2801 24.0796 31.8426 23.5421 31.8426Z" fill="#021827" stroke="#021827" stroke-width="0.1"/>
<path d="M37.233 31.8426H29.2571C28.7197 31.8426 28.2821 32.2801 28.2821 32.8176C28.2821 33.3551 28.7197 33.7926 29.2571 33.7926H37.233C37.7705 33.7926 38.208 33.3551 38.208 32.8176C38.208 32.2801 37.7705 31.8426 37.233 31.8426Z" fill="#021827" stroke="#021827" stroke-width="0.1"/>
<path d="M23.5421 38.011H7.59269C7.05519 38.011 6.61766 38.4486 6.61766 38.9861C6.61766 39.5236 7.05519 39.9611 7.59269 39.9611H23.5421C24.0796 39.9611 24.5171 39.5236 24.5171 38.9861C24.5171 38.4486 24.0796 38.011 23.5421 38.011Z" fill="#021827" stroke="#021827" stroke-width="0.1"/>
<path d="M37.233 38.011H29.2571C28.7197 38.011 28.2821 38.4486 28.2821 38.9861C28.2821 39.5236 28.7197 39.9611 29.2571 39.9611H37.233C37.7705 39.9611 38.208 39.5236 38.208 38.9861C38.208 38.4486 37.7705 38.011 37.233 38.011Z" fill="#021827" stroke="#021827" stroke-width="0.1"/>
<path d="M23.5421 44.1795H7.59269C7.05519 44.1795 6.61766 44.617 6.61766 45.1545C6.61766 45.692 7.05519 46.1295 7.59269 46.1295H23.5421C24.0796 46.1295 24.5171 45.692 24.5171 45.1545C24.5171 44.617 24.0796 44.1795 23.5421 44.1795Z" fill="#021827" stroke="#021827" stroke-width="0.1"/>
<path d="M37.233 44.1795H29.2571C28.7197 44.1795 28.2821 44.617 28.2821 45.1545C28.2821 45.692 28.7197 46.1295 29.2571 46.1295H37.233C37.7705 46.1295 38.208 45.692 38.208 45.1545C38.208 44.617 37.7705 44.1795 37.233 44.1795Z" fill="#021827" stroke="#021827" stroke-width="0.1"/>
</svg>
