<svg width="61" height="60" viewBox="0 0 61 60" fill="none" xmlns="http://www.w3.org/2000/svg">
<path d="M6.85279 44.9176H15.3058C15.8129 44.9176 16.2243 44.5061 16.2243 43.9991V24.0915C16.2243 23.5844 15.8129 23.173 15.3058 23.173H6.85279C6.34572 23.173 5.93431 23.5844 5.93431 24.0915V44.0015C5.93431 44.5062 6.34572 44.9176 6.85279 44.9176ZM7.77126 25.01H14.3873V43.0831L7.77126 43.0807V25.01ZM18.3435 15.6409C17.8364 15.6409 17.425 16.0523 17.425 16.5594V43.9985C17.425 44.5055 17.8364 44.9169 18.3435 44.9169H26.7989C27.306 44.9169 27.7174 44.5055 27.7174 43.9985V16.5594C27.7174 16.0523 27.306 15.6409 26.7989 15.6409H18.3435ZM25.8805 43.08H19.262V17.4779H25.8805V43.08ZM6.05923 16.966C5.80569 16.5259 5.95637 15.9638 6.39648 15.7102L20.9053 7.33623C20.9531 7.30752 21.001 7.2836 21.0536 7.26447C21.1827 7.21424 21.3167 7.19511 21.4482 7.20467C21.5774 7.21424 21.7065 7.25012 21.8261 7.31709C21.8764 7.34579 21.9218 7.37688 21.9673 7.41276L32.1709 15.4494L47.3783 6.66635L41.9584 5.22404C41.468 5.09249 41.1763 4.59017 41.3078 4.09989C41.4393 3.60956 41.944 3.31539 42.4319 3.44931L49.9971 5.46088C50.2267 5.52068 50.4324 5.66897 50.5592 5.88903C50.6812 6.09951 50.7099 6.3363 50.6572 6.55633C50.6549 6.56589 50.6525 6.57546 50.6501 6.58503L48.6194 14.1526C48.4878 14.643 47.9831 14.9324 47.4929 14.8032C47.0025 14.6717 46.7131 14.167 46.8423 13.6767L48.2989 8.25194L32.5698 17.3436C32.5219 17.3723 32.4717 17.3962 32.4215 17.4153C32.3138 17.456 32.2038 17.4751 32.0938 17.4751C32.0722 17.4751 32.0507 17.4751 32.0268 17.4727C31.8976 17.4632 31.7685 17.4273 31.6489 17.3603C31.5987 17.3316 31.5508 17.3005 31.5078 17.2647L21.3017 9.22803L7.31152 17.3008C6.87381 17.5543 6.31173 17.4036 6.05817 16.9659L6.05923 16.966ZM42.0878 41.7072C42.0878 42.5731 43.0661 43.305 44.2238 43.305C46.4243 43.305 48.2134 44.8453 48.2134 46.7397C48.2134 48.3613 46.9003 49.7247 45.1422 50.0835V50.9397C45.1422 51.4468 44.7308 51.8582 44.2238 51.8582C43.7167 51.8582 43.3053 51.4468 43.3053 50.9397V50.0811C41.5568 49.7223 40.2509 48.3589 40.2509 46.7373C40.2509 46.2302 40.6623 45.8188 41.1694 45.8188C41.6764 45.8188 42.0878 46.2302 42.0878 46.7373C42.0878 47.6032 43.0661 48.3351 44.2238 48.3351C45.391 48.3351 46.3764 47.6032 46.3764 46.7373C46.3764 45.8714 45.391 45.1395 44.2238 45.1395C42.0329 45.1395 40.2509 43.5968 40.2509 41.7048C40.2509 40.0855 41.5568 38.7221 43.3053 38.3634V37.5047C43.3053 36.9977 43.7167 36.5863 44.2238 36.5863C44.7308 36.5863 45.1422 36.9977 45.1422 37.5047V38.361C46.9003 38.7198 48.2134 40.0831 48.2134 41.7048C48.2134 42.2119 47.802 42.6233 47.2949 42.6233C46.7878 42.6233 46.3764 42.2119 46.3764 41.7048C46.3764 40.8389 45.391 40.107 44.2238 40.107C43.0661 40.1094 42.0878 40.8413 42.0878 41.7072ZM57.9192 36.3829C57.9121 36.3686 57.9073 36.3518 57.9001 36.3399C57.8905 36.3255 57.881 36.3136 57.8714 36.2992C56.5056 33.96 54.5539 32.0034 52.2194 30.6281C52.1836 30.6018 52.1501 30.5731 52.1118 30.5516C52.0735 30.5301 52.0329 30.5157 51.9946 30.499C51.5688 30.2574 51.1311 30.0349 50.6815 29.8341L50.6791 16.5591C50.6791 16.052 50.2677 15.6406 49.7606 15.6406H41.3076C40.8005 15.6406 40.3891 16.052 40.3891 16.5591V28.9223C39.9825 29.0252 39.5831 29.1448 39.1885 29.2763V22.5959C39.1885 22.0889 38.7771 21.6775 38.27 21.6775H29.817C29.3099 21.6775 28.8985 22.0889 28.8985 22.5959V40.4872C28.6067 41.6855 28.4488 42.9364 28.4488 44.2233C28.4488 45.8306 28.6904 47.3805 29.1401 48.842L1.83694 48.8444V0.918472C1.83694 0.411402 1.42554 0 0.918472 0C0.411402 0 0 0.411402 0 0.918472V49.7628C0 50.2699 0.411402 50.6813 0.918472 50.6813H29.8363C30.0539 51.1621 30.2931 51.6309 30.5562 52.0854C30.561 52.0949 30.5634 52.1045 30.5682 52.1141C30.573 52.1212 30.5778 52.126 30.5825 52.1308C31.9626 54.5011 33.9407 56.4816 36.3134 57.8641C36.3206 57.8689 36.3278 57.876 36.335 57.8784C36.3421 57.8832 36.3493 57.8832 36.3541 57.888C38.6718 59.2274 41.3603 60 44.2254 60C50.0448 60 55.1369 56.8356 57.8758 52.1428C57.8829 52.1308 57.8925 52.1236 57.8997 52.1117C57.9092 52.0973 57.9116 52.0806 57.9212 52.0662C59.2535 49.7557 60.0189 47.0792 60.0189 44.2255C60.0165 41.3696 59.2511 38.6932 57.9188 36.3824L57.9192 36.3829ZM58.1465 43.3076H55.0538C55.0203 43.3076 54.9868 43.3148 54.9557 43.3172C54.8457 42.0112 54.5013 40.777 53.9655 39.6433C53.9966 39.6313 54.0277 39.6241 54.054 39.605L56.74 38.0623C57.5317 39.6624 58.0245 41.4348 58.1465 43.3076ZM50.435 35.3095L51.9705 32.6354C53.4894 33.652 54.7977 34.9579 55.8166 36.4743L53.1377 38.0123C53.109 38.029 53.0827 38.0506 53.0564 38.0697C52.3269 37.0245 51.418 36.1179 50.3728 35.386C50.3943 35.3621 50.4182 35.3406 50.435 35.3095ZM50.38 31.7193L48.842 34.3958C48.8253 34.4245 48.8157 34.4556 48.8037 34.4843C47.6724 33.9509 46.4382 33.6041 45.1346 33.4941C45.137 33.4654 45.1442 33.4391 45.1442 33.4128V30.3201C47.0122 30.4421 48.7798 30.93 50.38 31.7193ZM42.2264 17.4781H48.8424V29.1384C47.381 28.6912 45.8311 28.4496 44.2237 28.4496C43.5468 28.4496 42.8819 28.4974 42.2266 28.5811L42.2264 17.4781ZM43.3051 30.3202V33.4129C43.3051 33.4416 43.3123 33.4679 43.3147 33.4942C42.0159 33.6042 40.7865 33.9463 39.6599 34.4773C39.6479 34.4486 39.6383 34.4199 39.6216 34.3936L38.0741 31.7218C39.6695 30.9325 41.4394 30.4422 43.3051 30.3202ZM38.0837 35.379C37.0337 36.1085 36.1224 37.0222 35.3905 38.0698C35.3642 38.0506 35.3403 38.0315 35.3116 38.0124L32.6446 36.472C33.6612 34.9556 34.9671 33.652 36.4835 32.6355L38.031 35.3096C38.0454 35.3383 38.067 35.3574 38.0837 35.379ZM30.7359 23.5154H37.352V30.0261C37.0626 30.1672 36.7779 30.3179 36.5005 30.4758C36.4431 30.4949 36.3881 30.5188 36.3355 30.5499C36.2852 30.5786 36.2398 30.6145 36.1967 30.6504C33.9651 31.9755 32.0852 33.8315 30.7361 36.0488L30.7359 23.5154ZM31.7238 38.0652L34.3907 39.6055C34.4194 39.6223 34.4529 39.6295 34.4816 39.6438C33.9482 40.7728 33.6014 42.0046 33.4914 43.3081H30.3197C30.4417 41.4353 30.9344 39.6654 31.7238 38.0652ZM30.3197 45.1448H33.4937C33.6037 46.446 33.9506 47.6777 34.4816 48.8067C34.4505 48.8187 34.4194 48.8306 34.3907 48.8474L31.7237 50.3877C30.9344 48.7852 30.4417 47.0152 30.3197 45.1448ZM36.4766 55.8076C34.9625 54.7935 33.6589 53.4899 32.6424 51.9759L35.3094 50.4355C35.3381 50.4188 35.362 50.3973 35.3883 50.3781C36.1202 51.4258 37.0315 52.3371 38.0791 53.0666C38.0624 53.0881 38.0456 53.1096 38.0313 53.1336L36.4766 55.8076ZM43.3051 55.0399V58.1325C41.4347 58.0105 39.6647 57.5178 38.0669 56.7285L39.6193 54.0616C39.636 54.0329 39.6456 54.0042 39.6575 53.9755C40.7841 54.5064 42.0159 54.8485 43.3123 54.9585C43.3123 54.9848 43.3051 55.0111 43.3051 55.0399ZM35.2825 44.2264C35.2825 39.2967 39.2937 35.2853 44.2236 35.2853C49.1534 35.2853 53.1646 39.2965 53.1646 44.2264C53.1646 49.1562 49.1534 53.1649 44.2236 53.1649C39.2937 53.1649 35.2825 49.1562 35.2825 44.2264ZM45.142 58.1302V55.0375C45.142 55.0088 45.1349 54.9825 45.1325 54.9562C46.436 54.8462 47.6702 54.5017 48.8016 53.966C48.8159 53.9971 48.8255 54.0258 48.8422 54.0545L50.385 56.7238C48.7872 57.5179 47.0149 58.0082 45.142 58.1302ZM51.9755 55.8077L50.4327 53.1384C50.416 53.1097 50.3945 53.0857 50.3753 53.0594C51.4182 52.3299 52.3271 51.421 53.0566 50.3782C53.0829 50.3973 53.1068 50.4188 53.1379 50.4356L55.8168 51.9735C54.8002 53.49 53.4919 54.7936 51.9755 55.8077ZM56.7376 50.3853L54.054 48.8426C54.0253 48.8259 53.9942 48.8163 53.9655 48.8043C54.4989 47.673 54.8457 46.4388 54.9557 45.1328C54.9892 45.1376 55.0203 45.1424 55.0538 45.1424H58.1465C58.0245 47.0152 57.5294 48.7876 56.7376 50.3853Z" fill="#021827"/>
</svg>
