<svg width="35" height="56" viewBox="0 0 35 56" fill="none" xmlns="http://www.w3.org/2000/svg">
<path d="M15.4273 0.257046C16.5802 1.2003 17.525 2.41488 18.1729 3.80458L18.2052 3.882C18.8192 5.2251 19.1635 6.7298 19.1635 8.31041C19.1635 9.49568 18.9688 10.6411 18.6118 11.7091C18.2428 12.8147 17.6979 13.8324 17.0162 14.7215C16.5081 15.3829 16.1353 16.0752 15.894 16.8072L15.8797 16.847C15.6483 17.5686 15.5415 18.333 15.5581 19.1477L16.1127 48.351C16.1796 51.9414 14.5291 54.2788 12.3841 55.3424C11.5024 55.7798 10.5389 55.9992 9.58061 55.9992C8.62232 55.9992 7.65877 55.7798 6.77715 55.3424C4.6336 54.2788 2.98309 51.9414 3.04998 48.351L3.60466 19.1514C3.62044 18.3194 3.50921 17.54 3.2687 16.8072C3.02668 16.0752 2.65314 15.3822 2.14581 14.7208C1.46486 13.8316 0.920707 12.8132 0.550921 11.7084C0.194664 10.6419 0 9.49568 0 8.31041C0 6.69899 0.35776 5.16798 0.993612 3.80458C1.65427 2.38933 2.61631 1.15896 3.78955 0.212702C3.96543 0.0714016 4.17663 0.00225486 4.38632 0.00300646L5.99549 0C6.52236 0 6.95002 0.427659 6.95002 0.954528V6.85682L9.58136 8.86434L12.2127 6.85682V0.954528C12.2127 0.427659 12.6404 0 13.1672 0H14.7764C15.0282 0 15.2567 0.0977075 15.4273 0.257046ZM10.0639 44.7937L12.7508 46.345C13.0552 46.5209 13.2251 46.8403 13.2251 47.1687L13.2281 50.2758C13.2281 50.6539 13.0079 50.9808 12.6885 51.1357L10.0594 52.6539C9.75197 52.8313 9.38595 52.8185 9.10034 52.6509L6.41338 51.0996C6.10898 50.9237 5.93912 50.6043 5.93912 50.2758L5.93611 47.1687C5.93611 46.7907 6.15633 46.4637 6.47576 46.3089L9.10485 44.7907C9.41225 44.6133 9.77828 44.6261 10.0639 44.7937ZM11.3191 47.7166L9.58211 46.714L7.84517 47.7166V49.7279L9.58211 50.7306L11.3191 49.7279V47.7166ZM9.58136 22.3202C10.2307 22.3202 10.82 22.5847 11.2461 23.0109C11.6716 23.4363 11.9361 24.0263 11.9361 24.6749V37.3942C11.9361 38.0428 11.6716 38.6328 11.2461 39.0583L11.1785 39.1199C10.7584 39.5092 10.1962 39.7482 9.58211 39.7482C8.93499 39.7482 8.34724 39.4837 7.92108 39.0583C7.49192 38.6283 7.22736 38.0406 7.22736 37.3942V24.6749C7.22736 24.0308 7.49192 23.4423 7.91808 23.0147L7.92409 23.0086C8.351 22.584 8.93724 22.3202 9.58136 22.3202ZM9.58211 24.2292C9.4581 24.2292 9.34611 24.2788 9.26795 24.357C9.18602 24.4389 9.13642 24.5509 9.13642 24.6749V37.3942C9.13642 37.5175 9.18602 37.6302 9.26569 37.7099C9.34536 37.7896 9.4581 37.8392 9.58136 37.8392C9.69184 37.8392 9.79331 37.7993 9.87073 37.7354L9.89628 37.7084C9.97595 37.6287 10.0271 37.516 10.0271 37.3942V24.6749C10.0271 24.5532 9.97595 24.4404 9.89628 24.3608C9.81586 24.2803 9.70387 24.2292 9.58211 24.2292ZM27.425 40.233C27.425 39.7061 27.8527 39.2785 28.3796 39.2785C28.9064 39.2785 29.3341 39.7061 29.3341 40.233V50.938C29.3341 51.4649 28.9064 51.8925 28.3796 51.8925C27.8527 51.8925 27.425 51.4649 27.425 50.938V40.233ZM23.2627 33.4205H24.9673V10.9327L24.3382 10.3036C24.1526 10.1172 24.0594 9.87298 24.0594 9.62871L24.0586 5.63322C24.0586 5.51372 24.0804 5.39872 24.121 5.2935L25.4791 0.686208C25.6009 0.271326 25.9805 0.0022547 26.3923 0.0022547L30.3675 0C30.826 0 31.2101 0.32469 31.301 0.756107L32.6591 5.3649C32.6855 5.45434 32.6982 5.54453 32.6982 5.63322L32.7005 9.62871C32.7005 9.89177 32.5938 10.1308 32.4209 10.3036L31.7918 10.9327V33.4205H33.4964C34.0233 33.4205 34.451 33.8482 34.451 34.375V38.1451C34.451 38.5772 34.1631 38.9425 33.7685 39.0598L33.9594 39.4619C34.2751 40.1954 34.451 41.0026 34.451 41.8474V49.9293C34.451 51.5971 33.767 53.1146 32.6689 54.2135C31.5693 55.3168 30.0504 56 28.3811 56C26.7088 56 25.1898 55.3168 24.0902 54.2172L24.0376 54.1601C22.9703 53.0658 22.3082 51.5701 22.3082 49.9293V41.8474C22.3082 41.0026 22.484 40.1954 22.7997 39.4619L22.9906 39.0598C22.596 38.9425 22.3082 38.5772 22.3082 38.1451V34.375C22.3082 33.8482 22.7358 33.4205 23.2627 33.4205ZM26.8764 33.4205H29.8827V10.5374C29.8835 10.2931 29.9767 10.0481 30.1623 9.86246L30.7914 9.23337V5.76099L29.6565 1.90906H27.1033L25.9677 5.76099V9.23337L26.5968 9.86246C26.7696 10.0353 26.8764 10.2736 26.8764 10.5374V33.4205ZM32.5419 35.3296H24.2172V37.1905H24.8568C25.1086 37.1935 25.3596 37.2927 25.5468 37.4889C25.9091 37.8692 25.8933 38.4728 25.513 38.835C25.1086 39.2198 24.7779 39.6896 24.5524 40.215C24.3367 40.7148 24.2172 41.2679 24.2172 41.8474V49.9293C24.2172 51.0515 24.6682 52.0752 25.395 52.8253L25.4401 52.8673C26.1947 53.6219 27.2356 54.0909 28.3781 54.0909C29.5235 54.0909 30.5645 53.6219 31.3191 52.8673C32.0729 52.1157 32.5419 51.074 32.5419 49.9293V41.8474C32.5419 41.2679 32.4224 40.7148 32.2067 40.215C31.9887 39.7076 31.6731 39.2522 31.2875 38.8749C31.08 38.6997 30.9478 38.4382 30.9478 38.1451C30.9478 37.6182 31.3754 37.1905 31.9023 37.1905H32.5419V35.3296ZM16.4427 4.6103C15.9542 3.56257 15.2649 2.64111 14.4322 1.90906H14.1218V7.32657C14.1188 7.61293 13.9902 7.89628 13.7452 8.08343L10.1751 10.8072C9.84216 11.0733 9.35814 11.0898 9.00338 10.8192L5.46862 8.12251C5.21082 7.95115 5.04096 7.65878 5.04096 7.32657V1.90906H4.73055C3.89478 2.64337 3.20481 3.56482 2.71627 4.6103C2.19992 5.7174 1.90906 6.97482 1.90906 8.31041C1.90906 9.2965 2.06689 10.2383 2.35626 11.1041C2.65765 12.006 3.10259 12.838 3.65953 13.5648C4.30139 14.4021 4.77414 15.28 5.0808 16.2104C5.38594 17.1417 5.52574 18.127 5.5062 19.1815L4.95152 48.3811C4.90041 51.1244 6.08343 52.8719 7.62044 53.6347C8.23149 53.9376 8.90567 54.0902 9.58061 54.0902C10.2563 54.0902 10.9297 53.9376 11.5408 53.6347C13.0785 52.8719 14.2623 51.1244 14.2112 48.3811L13.6565 19.1913C13.6362 18.1458 13.7715 17.174 14.0669 16.2585L14.0812 16.2104C14.3878 15.2792 14.8606 14.4014 15.5024 13.5656C16.0601 12.838 16.5058 12.006 16.8065 11.1048C17.0966 10.2375 17.2544 9.2965 17.2544 8.31041C17.2544 7.00188 16.9756 5.76926 16.478 4.67869L16.4427 4.6103Z" fill="#021827"/>
</svg>
