<svg width="53" height="57" viewBox="0 0 53 57" fill="none" xmlns="http://www.w3.org/2000/svg">
<path fill-rule="evenodd" clip-rule="evenodd" d="M24.9568 17.4741C25.2488 17.4741 25.5258 17.6039 25.7155 17.826C25.8777 18.0057 26.1098 18.113 26.3544 18.113C26.599 18.113 26.8311 18.0057 26.9933 17.826C27.4175 17.3393 27.9566 17.4891 28.1113 17.5465C28.2661 17.6039 28.7652 17.8485 28.7652 18.4923C28.7652 19.6379 27.5198 21.1277 26.3544 21.809C25.1914 21.1277 23.9436 19.6379 23.9436 18.4923C23.9436 17.9308 24.3978 17.4741 24.9568 17.4741ZM26.0125 23.531C26.1223 23.581 26.2396 23.6034 26.3544 23.6034C26.4717 23.6034 26.589 23.581 26.6963 23.531C28.5156 22.7299 30.4597 20.5088 30.4597 18.4899C30.4597 17.3519 29.7709 16.3561 28.7077 15.9543C27.9066 15.6523 27.0481 15.7471 26.3519 16.1689C25.9351 15.9193 25.4535 15.7746 24.9543 15.7746C23.4594 15.7746 22.244 16.9924 22.244 18.4898C22.2465 20.5088 24.1957 22.7299 26.0125 23.531ZM33.9908 47.5888C32.8279 46.915 31.5801 45.4251 31.5801 44.2721C31.5801 43.7206 32.0343 43.2614 32.5908 43.2614C32.8828 43.2614 33.1598 43.3912 33.3495 43.6058C33.5092 43.793 33.7438 43.9003 33.9883 43.9003C34.2329 43.9003 34.465 43.793 34.6272 43.6058C35.0515 43.1266 35.5905 43.2764 35.7453 43.3338C35.9 43.3912 36.3991 43.6283 36.3991 44.2722C36.3991 45.4252 35.1538 46.915 33.9908 47.5888ZM36.3442 41.7441C35.5431 41.4421 34.6846 41.5294 33.9883 41.9512C33.5716 41.7016 33.0899 41.5644 32.5933 41.5644C31.0984 41.5644 29.8855 42.7822 29.8855 44.2721C29.8855 46.2986 31.8321 48.5197 33.6489 49.3208C33.7587 49.3632 33.876 49.3932 33.9908 49.3932C34.1081 49.3932 34.2254 49.3657 34.3327 49.3208C36.1521 48.5197 38.0961 46.2986 38.0961 44.2721C38.0961 43.1416 37.4099 42.1459 36.3442 41.7441ZM50.507 35.7795C50.6268 35.3428 50.5918 34.8636 50.4071 34.4269C50.205 33.9402 49.8556 33.5609 49.4214 33.3537C49.0221 33.1616 48.5978 33.1391 48.2259 33.2889C47.622 33.5384 47.4298 34.0899 47.3674 34.3919C47.2301 35.0658 47.4548 35.8244 47.9439 36.326C48.181 36.5706 48.2509 36.9275 48.1236 37.2419L45.8101 42.8571C45.6804 43.1716 45.3759 43.3737 45.0365 43.3787C44.6921 43.3862 44.3852 43.1866 44.2479 42.8696L43.7962 41.8389C42.3861 38.637 39.6709 36.4533 36.3168 35.8295C35.6155 36.1813 34.8269 36.381 33.9883 36.381C33.3046 36.381 32.6532 36.2437 32.0543 36.0091C29.1818 36.9625 27.2027 39.6902 27.2027 42.7347V54.4792H40.7764V45.8268C40.7764 45.4825 40.9885 45.168 41.313 45.0382C41.6374 44.9084 42.0067 44.9958 42.2438 45.2528L44.1255 47.2643C44.5822 47.7584 45.2436 47.9656 45.8949 47.8233C46.5463 47.6736 47.0579 47.2069 47.265 46.5705C48.5877 42.5326 49.7558 38.4724 50.507 35.7795ZM25.5056 54.4771H11.9319V45.8247C11.9319 45.4803 11.7172 45.1658 11.3928 45.036C11.0684 44.9063 10.6991 44.9936 10.4595 45.2507L8.58026 47.2621C8.12356 47.7563 7.45972 47.9634 6.81087 47.8211C6.15953 47.6714 5.64791 47.2047 5.44079 46.5684C4.1206 42.5279 2.95017 38.4673 2.20146 35.77C2.08167 35.3407 2.11661 34.8615 2.30129 34.4223C2.50094 33.9356 2.85033 33.5563 3.28708 33.3492C3.68638 33.157 4.11316 33.1345 4.4825 33.2843C5.08644 33.5338 5.27861 34.0854 5.34103 34.3874C5.47828 35.0612 5.25119 35.8199 4.76454 36.3215C4.52745 36.566 4.45757 36.9229 4.58485 37.2374L6.89831 42.8526C7.02808 43.167 7.33255 43.3692 7.67442 43.3742C8.01383 43.3742 8.32327 43.182 8.46057 42.865L8.91478 41.8343C10.3223 38.6324 13.04 36.4487 16.3916 35.8249C17.0929 36.1768 17.884 36.3764 18.72 36.3764C19.4038 36.3764 20.0552 36.2392 20.6566 36.0046C23.5291 36.9579 25.5082 39.6856 25.5082 42.7301L25.5056 54.4771ZM18.7174 27.6516C16.7809 27.6516 15.2036 29.2264 15.2036 31.168C15.2036 33.1096 16.7809 34.6843 18.7174 34.6843C20.6566 34.6843 22.2338 33.1096 22.2338 31.168C22.2338 29.2264 20.6565 27.6516 18.7174 27.6516ZM16.5288 21.4774L18.4105 19.466C18.6475 19.2089 19.0169 19.1216 19.3413 19.2513C19.6657 19.3811 19.8804 19.6956 19.8804 20.0474V26.0918C22.1963 26.6209 23.9308 28.6998 23.9308 31.1705C23.9308 32.6254 23.3318 33.9431 22.366 34.8865C24.1254 35.7824 25.523 37.2349 26.354 38.9893C27.1876 37.2349 28.5851 35.7799 30.3446 34.8865C29.3788 33.9406 28.7798 32.6229 28.7798 31.1705C28.7798 28.6998 30.5118 26.6234 32.8302 26.0918V20.0474C32.8302 19.6956 33.0423 19.3811 33.3668 19.2513C33.6912 19.1216 34.0605 19.2089 34.3001 19.466L36.1818 21.4774C36.6385 21.9716 37.2999 22.1787 37.9512 22.0364C38.6025 21.8942 39.1142 21.4275 39.3238 20.7911C40.644 16.7457 41.8144 12.685 42.5631 9.99273C42.6829 9.56348 42.6479 9.0843 42.4633 8.64009C42.064 7.67927 41.0857 7.17264 40.2821 7.50958C39.6781 7.75915 39.486 8.3057 39.4235 8.60514C39.2863 9.28645 39.5134 10.0451 40 10.5392C40.2371 10.7838 40.307 11.1407 40.1772 11.4551L37.8662 17.0703C37.7365 17.3848 37.432 17.5919 37.0901 17.5919C36.7532 17.5994 36.4413 17.3998 36.304 17.0828L35.8498 16.0521C34.4722 12.9251 31.8393 10.7639 28.5927 10.0825C27.9139 10.4119 27.1552 10.5916 26.3541 10.5916C25.553 10.5916 24.7944 10.4119 24.118 10.0825C20.8712 10.7638 18.2358 12.925 16.8635 16.0471L16.4118 17.0778C16.2746 17.3922 15.9626 17.5944 15.6257 17.5869C15.2838 17.5869 14.9793 17.3797 14.852 17.0653L12.5386 11.4501C12.4088 11.1356 12.4787 10.7763 12.7158 10.5342C13.2049 10.04 13.4295 9.2814 13.2948 8.60009C13.2324 8.29812 13.0402 7.75408 12.4362 7.50454C11.6326 7.16763 10.6543 7.67674 10.255 8.63504C10.0703 9.07926 10.0354 9.55842 10.1552 9.98768C10.9039 12.6804 12.0718 16.7407 13.3945 20.7861C13.6017 21.4225 14.1158 21.8892 14.7646 22.0314C15.4135 22.1786 16.0721 21.9716 16.5288 21.4774ZM26.3541 1.8618C28.2933 1.8618 29.8705 3.44405 29.8705 5.37814C29.8705 7.31977 28.2932 8.89449 26.3541 8.89449C24.4151 8.89449 22.8403 7.31977 22.8403 5.37814C22.8403 3.44405 24.415 1.8618 26.3541 1.8618ZM37.5046 31.168C37.5046 33.1096 35.9298 34.6843 33.9907 34.6843C32.0516 34.6843 30.4768 33.1096 30.4768 31.168C30.4768 29.2264 32.0516 27.6516 33.9907 27.6516C35.9273 27.6516 37.5046 29.2264 37.5046 31.168ZM51.974 33.7734C51.6121 32.9074 50.9682 32.2112 50.1622 31.8193C49.3187 31.4175 48.4003 31.3826 47.5742 31.727C46.6059 32.1288 45.9246 32.9723 45.7049 34.0554C45.4928 35.0936 45.7424 36.2042 46.3588 37.0702L44.9862 40.3993C43.4863 37.5069 41.0157 35.4355 37.9962 34.4971C38.7499 33.5937 39.2016 32.4357 39.2016 31.168C39.2016 28.4752 37.1502 26.2541 34.5247 25.982V22.1936L34.9365 22.6379C35.8075 23.5687 37.0703 23.963 38.3131 23.691C39.556 23.419 40.5343 22.5305 40.9311 21.3126C42.2613 17.2373 43.4392 13.1541 44.1929 10.4414C44.4125 9.64529 44.3551 8.77181 44.0257 7.98567C43.267 6.15885 41.293 5.24294 39.6259 5.93677C38.6576 6.33857 37.9763 7.18956 37.7567 8.26518C37.5445 9.30336 37.7941 10.4139 38.413 11.2799L37.0404 14.6091C35.5855 11.809 33.2046 9.7601 30.2945 8.78676C31.0881 7.87834 31.5697 6.68043 31.5697 5.37775C31.5697 2.50527 29.2313 0.171875 26.3563 0.171875C23.4838 0.171875 21.1455 2.50776 21.1455 5.37775C21.1455 6.68049 21.6271 7.8784 22.4207 8.78676C19.5108 9.76004 17.13 11.809 15.6748 14.6091L14.3022 11.2799C14.9211 10.4139 15.1707 9.30336 14.9585 8.26518C14.7389 7.19205 14.0601 6.33856 13.0893 5.93677C11.4222 5.24301 9.44816 6.15888 8.68948 7.98567C8.36006 8.7743 8.30017 9.64778 8.52227 10.4414C9.27347 13.1567 10.4514 17.2372 11.7841 21.3126C12.1809 22.5305 13.1592 23.419 14.402 23.691C15.6449 23.9705 16.9077 23.5687 17.7761 22.6379L18.1879 22.1936V25.982C15.565 26.2541 13.5111 28.4751 13.5111 31.168C13.5111 32.4358 13.9653 33.5962 14.7189 34.4971C11.6967 35.4355 9.22851 37.5043 7.72893 40.3993L6.35635 37.0702C6.97527 36.2042 7.22485 35.0936 7.01268 34.0554C6.79306 32.9748 6.11172 32.1288 5.14343 31.727C4.31736 31.3826 3.39896 31.42 2.55545 31.8193C1.74688 32.2136 1.10301 32.9074 0.743639 33.7734C0.414218 34.5621 0.354323 35.4355 0.57643 36.2292C1.33012 38.9369 2.50554 43.025 3.83825 47.1004C4.23505 48.3182 5.21331 49.2067 6.4562 49.4788C7.69902 49.7508 8.96183 49.3565 9.83282 48.4256L10.2446 47.9814V55.3209C10.2446 55.7876 10.6239 56.1719 11.0931 56.1719H41.6349C42.1041 56.1719 42.4834 55.7851 42.4834 55.3209L42.4734 47.984L42.8852 48.4282C43.7562 49.359 45.0189 49.7533 46.2593 49.4813C47.5021 49.2093 48.4804 48.3208 48.8772 47.1029C50.2074 43.0276 51.3853 38.9399 52.139 36.2317C52.3611 35.4356 52.3009 34.5621 51.974 33.7734ZM18.7169 47.5893C19.8824 46.9154 21.1277 45.4256 21.1277 44.2726C21.1277 43.721 20.676 43.2618 20.117 43.2618C19.825 43.2618 19.548 43.3916 19.3558 43.6062C19.1961 43.7934 18.9615 43.9007 18.7169 43.9007C18.4724 43.9007 18.2403 43.7934 18.0805 43.6062C17.841 43.3342 17.5664 43.2618 17.3444 43.2618C17.1697 43.2618 17.0274 43.3043 16.9625 43.3342C16.8078 43.3916 16.3087 43.6287 16.3087 44.2726C16.3087 45.4256 17.554 46.9154 18.7169 47.5893ZM20.117 41.5648C19.6204 41.5648 19.1362 41.702 18.7194 41.9516C18.0232 41.5298 17.1646 41.4425 16.3635 41.7445C15.3004 42.1463 14.6116 43.142 14.6116 44.2725C14.6116 46.299 16.5582 48.5201 18.375 49.3212C18.4848 49.3636 18.5996 49.3935 18.7169 49.3935C18.8342 49.3935 18.9515 49.3661 19.0588 49.3212C20.8782 48.5201 22.8222 46.2989 22.8222 44.2725C22.8247 42.7827 21.6119 41.5648 20.117 41.5648Z" fill="#021827"/>
</svg>
